<svg width="360" height="360" version="1.1" xmlns="http://www.w3.org/2000/svg" desc="Created with imagetracer.js version 1.2.6" ><path fill="rgb(0,0,0)" stroke="rgb(0,0,0)" stroke-width="1" opacity="0" d="M 0 0 L 360 0 L 360 360 L 0 360 L 0 0 Z M 180 32 L 157 36 L 138 43 Q 119 51 105 63 Q 78 84 64 118 L 56 147 L 55 167 L 54 168 L 57 199 L 63 219 L 66 221 L 69 220 L 69 216 L 63 198 L 62 185 L 61 184 L 61 156 L 65 135 Q 73 106 90 87 Q 106 67 130 54 L 160 42 L 176 39 L 183 39 L 184 38 L 212 39 L 240 46 Q 264 56 283 72 Q 304 91 316 119 L 324 145 L 325 159 L 326 160 L 325 191 L 320 211 Q 311 237 294 256 Q 278 274 257 286 L 230 297 L 211 301 L 177 301 L 176 300 L 165 299 Q 141 293 124 282 Q 121 283 122 280 L 126 277 Q 137 269 141 253 L 141 237 L 138 227 Q 131 209 119 196 Q 117 191 112 191 Q 102 200 96 212 L 90 226 L 89 234 L 88 236 L 79 231 L 63 227 L 39 228 L 20 233 L 16 236 L 16 241 L 21 253 L 35 275 Q 48 293 73 299 Q 85 301 94 298 Q 107 294 116 285 L 137 296 L 159 304 L 169 306 L 176 306 L 177 307 L 186 307 L 187 308 L 201 308 L 202 307 L 218 306 L 241 300 L 261 291 L 287 272 Q 304 256 316 236 L 327 210 L 332 185 L 332 156 L 325 125 Q 314 96 295 76 Q 274 52 242 40 L 215 33 L 207 33 L 206 32 L 180 32 Z M 185 54 L 177 56 L 171 56 L 148 63 Q 131 70 119 81 L 116 83 Q 96 99 85 124 L 77 150 L 76 162 L 75 163 L 75 176 L 77 177 L 96 177 L 98 173 L 98 160 L 103 141 Q 109 124 120 112 Q 132 97 149 88 L 166 81 L 185 77 L 205 77 L 216 79 L 243 90 L 254 98 Q 273 114 283 139 L 288 158 L 289 175 L 293 177 L 311 177 L 312 176 L 311 153 L 306 134 Q 297 110 282 94 Q 265 74 240 63 L 218 56 L 211 56 L 204 54 L 185 54 Z M 193 113 L 185 124 L 166 158 L 160 174 Q 159 193 168 202 L 179 210 L 193 214 Q 211 214 219 204 Q 218 201 221 202 L 228 187 Q 230 171 225 163 L 197 114 L 193 113 Z " /><path fill="rgb(0,0,0)" stroke="rgb(0,0,0)" stroke-width="1" opacity="0" d="M 193.5 122 L 196 123.5 L 221 168.5 L 222 171.5 L 222 186.5 Q 218.6 197.1 210.5 203 Q 203.7 208.7 190.5 208 Q 176.4 205.1 170 194.5 L 166 184.5 L 166 174.5 Q 177 145.5 193.5 122 Z M 176 171 L 173 175 L 174 184 L 177 191 Q 181 197 189 199 L 191 196 L 187 192 Q 178 188 180 174 Q 180 171 176 171 Z " /><path fill="rgb(0,0,0)" stroke="rgb(0,0,0)" stroke-width="1" opacity="0" d="M 112.5 199 L 118 203.5 L 130 222.5 L 135 235.5 L 136 245.5 Q 133.5 247 135 252.5 L 131 261.5 L 119.5 274 L 118 273.5 L 118 243.5 L 117 242.5 L 117 226.5 L 114.5 223 L 111 225.5 L 112 260.5 L 109 258.5 L 106 252.5 L 94 239.5 L 94 233.5 Q 99.5 212.5 112.5 199 Z " /><path fill="rgb(0,0,0)" stroke="rgb(0,0,0)" stroke-width="1" opacity="0" d="M 47.5 233 Q 82 232 97 250.5 Q 106.2 261 110 276 L 55.5 251 L 51.5 251 L 50 254.5 L 109 282.5 L 93.5 292 L 78.5 294 Q 52.4 289.6 40 271.5 L 31 258.5 L 23 242.5 L 23 238 L 47.5 233 Z " /><path fill="rgb(141,206,23)" stroke="rgb(141,206,23)" stroke-width="1" opacity="0.9568627450980393" d="M 147.5 63 L 152.5 64 L 154.5 63 L 153 67.5 L 154 69.5 L 151 73.5 L 153 75.5 Q 152.3 82.5 154 86 Q 133.4 94.6 120 111.5 Q 111.4 120.9 106 133.5 L 101 146.5 L 100 153.5 L 98 156.5 L 99 158.5 L 96.5 168 L 96 162.5 Q 98.5 161 97 155.5 L 94.5 154 L 94.5 156 Q 89.7 154.7 91 158 L 93 158 L 93 163 Q 95.7 161.9 95 164.5 L 92.5 166 L 90.5 166 L 87.5 167 L 79 161 L 78.5 155 L 77.5 157 L 77 153.5 L 82 151.5 L 82 149.5 L 80.5 145 L 79 145.5 L 81 139.5 L 80 137.5 Q 90.9 103.4 115.5 83 Q 129.3 70.8 147.5 63 Z M 88 152 L 89 154 Q 90 151 88 152 Z " /><path fill="rgb(141,206,23)" stroke="rgb(141,206,23)" stroke-width="1" opacity="0.9568627450980393" d="M 76.5 159 L 77 162.5 L 76 162.5 L 76.5 159 Z " /><path fill="rgb(141,206,23)" stroke="rgb(141,206,23)" stroke-width="1" opacity="0.9568627450980393" d="M 75.5 169 L 78 175.5 L 76 176.5 L 75.5 169 Z " /><path fill="rgb(141,206,23)" stroke="rgb(141,206,23)" stroke-width="1" opacity="0.9568627450980393" d="M 96 169 Q 99.3 167.7 98 172.5 L 95.5 177 L 85 175.5 L 92.5 174 L 96 174.5 L 96 169 Z " /><path fill="rgb(141,206,23)" stroke="rgb(141,206,23)" stroke-width="1" opacity="0.9568627450980393" d="M 78.5 172 L 79 174 Q 82.8 172.5 82 175.5 L 79 175.5 L 78.5 172 Z " /><path fill="rgb(141,206,23)" stroke="rgb(141,206,23)" stroke-width="1" opacity="0.9568627450980393" d="M 88.5 172 L 87.5 174 L 88.5 172 Z " /><path fill="rgb(243,175,15)" stroke="rgb(243,175,15)" stroke-width="1" opacity="0.9490196078431372" d="M 184.5 54 L 203.5 54 L 225.5 58 Q 249.8 65.6 267 79 L 269 82.5 L 266.5 81 L 262.5 79 L 262 80.5 L 263 82.5 L 261.5 86 L 260.5 84 L 258 85.5 L 259 88 Q 261.7 86.9 261 89.5 L 257 91 L 256.5 89 L 255 94.5 L 255.5 96 L 252.5 94 L 252 95.5 L 253.5 98 L 242.5 90 L 215.5 79 L 204.5 77 L 184.5 77 L 165.5 81 L 156.5 84 L 154.5 86 Q 152 82.6 153 75.5 L 151 73.5 L 154 69.5 L 153 67.5 L 154.5 63 L 148.5 64 L 148.5 63 L 162.5 58 L 184.5 54 Z " /><path fill="rgb(55,69,57)" stroke="rgb(55,69,57)" stroke-width="1" opacity="0.9176470588235294" d="M 179.5 32 L 205.5 32 L 206.5 33 L 214.5 33 L 241.5 40 Q 273.7 52.3 295 75.5 Q 314.4 95.6 325 124.5 L 332 155.5 L 332 184.5 L 327 209.5 L 316 235.5 Q 303.9 256.4 286.5 272 L 260.5 291 L 240.5 300 L 217.5 306 L 201.5 307 L 200.5 308 L 186.5 308 L 185.5 307 L 176.5 307 L 175.5 306 L 168.5 306 L 158.5 304 L 136.5 296 L 115.5 285 Q 107.1 294.1 93.5 298 Q 85.2 300.7 72.5 299 Q 47.6 292.9 35 274.5 L 21 252.5 L 16 240.5 L 16 235.5 L 19.5 233 L 38.5 228 L 62.5 227 L 78.5 231 L 87.5 236 L 89 233.5 L 90 225.5 L 96 211.5 Q 102.3 199.8 111.5 191 Q 117.1 191.5 119 195.5 Q 130.7 208.8 138 226.5 L 141 236.5 L 141 252.5 Q 137.2 268.7 125.5 277 L 122 279.5 Q 120.9 282.8 123.5 282 Q 141.2 293.3 164.5 299 L 175.5 300 L 176.5 301 L 210.5 301 L 229.5 297 L 256.5 286 Q 278.3 273.8 294 255.5 Q 310.6 236.6 320 210.5 L 325 190.5 L 326 159.5 L 325 158.5 L 324 144.5 L 316 118.5 Q 303.6 90.9 282.5 72 Q 264.4 55.5 239.5 46 L 211.5 39 L 183.5 38 L 182.5 39 L 175.5 39 L 159.5 42 L 129.5 54 Q 106.3 66.8 90 86.5 Q 73.4 106.4 65 134.5 L 61 155.5 L 61 183.5 L 62 184.5 L 63 197.5 L 69 215.5 L 69 219.5 L 65.5 221 L 63 218.5 L 57 198.5 L 54 167.5 L 55 166.5 L 56 146.5 L 64 117.5 Q 78.4 84.4 104.5 63 Q 119.1 51.1 137.5 43 L 156.5 36 L 179.5 32 Z M 113 199 Q 100 213 94 234 L 94 240 L 106 253 L 109 259 L 112 261 L 111 226 L 115 223 L 117 227 L 117 243 L 118 244 L 118 274 L 120 274 L 131 262 L 135 253 Q 134 247 136 246 L 135 236 L 130 223 L 118 204 L 113 199 Z M 48 233 L 23 238 L 23 243 L 31 259 L 40 272 Q 52 290 79 294 L 94 292 L 109 283 L 50 255 L 52 251 L 56 251 L 110 276 Q 106 261 97 251 Q 82 232 48 233 Z " /><path fill="rgb(55,69,57)" stroke="rgb(55,69,57)" stroke-width="1" opacity="0.9176470588235294" d="M 192.5 113 L 197 114 L 225 162.5 Q 229.9 171.1 228 186.5 L 221 202 Q 218.3 200.9 219 203.5 Q 210.9 213.9 192.5 214 L 178.5 210 L 168 201.5 Q 158.8 192.7 160 173.5 L 166 157.5 L 185 123.5 L 192.5 113 Z M 194 122 Q 177 145 166 175 L 166 185 L 170 195 Q 176 205 191 208 Q 204 209 211 203 Q 219 197 222 187 L 222 172 L 221 169 L 196 124 L 194 122 Z " /><path fill="rgb(55,69,57)" stroke="rgb(55,69,57)" stroke-width="1" opacity="0.9176470588235294" d="M 78.5 144 L 79.5 146 L 81 145.5 L 83 150.5 L 77.5 153 L 77 149.5 L 78.5 144 Z " /><path fill="rgb(55,69,57)" stroke="rgb(55,69,57)" stroke-width="1" opacity="0.9176470588235294" d="M 87.5 152 Q 89.8 151.3 89 153.5 L 87.5 152 Z " /><path fill="rgb(55,69,57)" stroke="rgb(55,69,57)" stroke-width="1" opacity="0.9176470588235294" d="M 94.5 154 L 97 155.5 L 96 167.5 L 97 167.5 L 97.5 164 L 98 169 Q 94 167.6 96 174.5 L 92.5 174 L 85 175.5 L 94 176.5 L 77.5 177 L 77 174.5 Q 78 169.5 75 168.5 L 75 162.5 L 77 162.5 L 76 155.5 L 77 155.5 L 77.5 157 L 78.5 155 L 79 161 L 88.5 167 L 92.5 164 L 92.5 166 L 95 164.5 Q 95.7 161.9 93 163 L 93 158 Q 90 159 91 156 L 95 155.5 L 94.5 154 Z M 79 174 L 79 176 L 82 176 Q 83 172 79 174 Z " /><path fill="rgb(55,69,57)" stroke="rgb(55,69,57)" stroke-width="1" opacity="0.9176470588235294" d="M 175.5 171 Q 179.5 170.5 180 173.5 Q 178.5 187.5 186.5 192 L 191 195.5 L 188.5 199 Q 180.6 196.9 177 190.5 L 174 183.5 L 173 174.5 L 175.5 171 Z " /><path fill="rgb(235,54,35)" stroke="rgb(235,54,35)" stroke-width="1" opacity="0.9529411764705882" d="M 261.5 78 L 266.5 81 L 267.5 80 L 271.5 84 L 282 93.5 Q 297 110.5 306 133.5 L 311 152.5 L 312 175.5 L 310.5 177 L 292.5 177 L 289 174.5 L 288 157.5 L 283 138.5 L 270 115.5 L 254 98.5 L 252 94.5 L 254.5 96 L 256 95.5 L 256 93.5 L 256.5 89 L 257 91 L 261 89.5 L 259 86.5 L 258.5 85 L 260.5 84 L 261.5 86 L 263 81.5 L 261 81.5 L 262 79.5 L 261.5 78 Z " /></svg>