<svg width="310" height="310" version="1.1" xmlns="http://www.w3.org/2000/svg" desc="Created with imagetracer.js version 1.2.6" ><path fill="rgb(0,0,0)" stroke="rgb(0,0,0)" stroke-width="1" opacity="0" d="M 0 0 L 310 0 L 310 310 L 0 310 L 0 0 Z M 243 59 L 241 60 L 235 68 Q 233 77 237 82 L 245 86 Q 252 87 255 84 L 259 77 Q 261 69 258 66 L 251 59 L 243 59 Z M 279 59 L 246 103 L 243 109 Q 244 111 248 111 L 281 67 Q 284 65 283 61 Q 282 58 279 59 Z M 130 70 L 113 75 L 99 84 Q 89 92 83 103 L 78 116 L 76 127 L 64 129 L 55 134 Q 40 143 37 164 L 38 178 L 45 193 Q 54 205 73 209 L 112 209 L 113 207 L 112 202 L 100 202 L 99 201 L 71 201 Q 61 198 55 192 Q 48 186 45 176 L 45 161 L 51 148 Q 60 133 83 134 Q 84 112 95 99 Q 108 81 134 77 Q 158 77 172 88 L 187 106 Q 192 114 194 126 L 198 130 L 205 128 L 219 128 Q 230 131 237 138 Q 243 144 246 153 L 248 162 Q 248 177 241 187 Q 234 195 224 200 Q 215 203 202 201 Q 200 204 194 202 L 192 204 Q 191 208 194 209 L 218 209 L 223 208 L 240 199 Q 252 190 255 172 L 255 157 L 247 139 Q 239 127 225 122 L 221 121 L 201 121 Q 196 104 186 92 Q 176 81 163 74 L 149 70 L 130 70 Z M 276 85 L 272 87 L 269 90 L 267 96 L 267 101 L 269 107 L 275 111 Q 282 113 286 110 L 291 103 Q 292 94 289 90 Q 286 83 276 85 Z M 153 174 L 151 175 L 130 210 L 124 223 L 122 232 Q 122 246 129 254 Q 136 263 150 265 L 162 264 L 173 258 Q 180 252 183 242 Q 185 227 181 220 L 158 179 L 153 174 Z " /><path fill="rgb(0,0,0)" stroke="rgb(0,0,0)" stroke-width="1" opacity="0" d="M 244.5 66 Q 250.8 64.8 252 68.5 Q 254 78 248.5 80 L 243 79 L 241 71.5 L 244.5 66 Z " /><path fill="rgb(0,0,0)" stroke="rgb(0,0,0)" stroke-width="1" opacity="0" d="M 278.5 91 L 284 94.5 Q 286 103 281.5 105 L 275 104 Q 273.1 101.3 274 94.5 L 278.5 91 Z " /><path fill="rgb(0,0,0)" stroke="rgb(0,0,0)" stroke-width="1" opacity="0" d="M 152.5 186 L 155 187.5 L 174 221.5 L 176 228.5 L 176 238.5 Q 173.3 248.8 165.5 254 Q 160 259 147.5 257 Q 137.7 254.3 133 246.5 Q 128 239.9 130 226.5 L 152.5 186 Z M 137 227 L 135 229 Q 134 239 138 245 L 146 251 L 149 251 Q 151 250 150 245 L 145 243 L 142 236 L 142 234 L 141 229 Q 142 225 137 227 Z " /><path fill="rgb(68,68,69)" stroke="rgb(68,68,69)" stroke-width="1" opacity="0.9725490196078431" d="M 242.5 60 Q 254.3 58.2 257 65.5 Q 259.5 69 258 76.5 L 255 83 L 251.5 85 L 243.5 85 L 238 81.5 L 236 78.5 L 235 70.5 Q 235.9 63.9 240.5 61 L 242.5 60 Z M 245 65 Q 239 67 241 77 Q 242 81 250 80 L 253 76 L 252 68 Q 250 64 245 65 Z " /><path fill="rgb(68,68,69)" stroke="rgb(68,68,69)" stroke-width="1" opacity="0.9725490196078431" d="M 278.5 60 Q 283.8 58.3 282 63.5 L 247.5 110 L 244 108.5 L 247 102.5 L 278.5 60 Z " /><path fill="rgb(68,68,69)" stroke="rgb(68,68,69)" stroke-width="1" opacity="0.9725490196078431" d="M 136.5 70 L 149.5 71 L 160.5 74 Q 175 80.5 185 91.5 L 195 106.5 L 199 118.5 L 201.5 122 L 214.5 121 L 224.5 123 L 234.5 128 L 245 137.5 Q 254.3 147.7 255 166.5 L 251 182.5 L 239.5 198 Q 231.5 205.5 218.5 208 L 193 208 L 192 205.5 L 193 203 L 195.5 202 L 219.5 202 Q 231.9 198.9 239 190.5 L 247 176.5 Q 249.6 168.6 248 156.5 Q 244.6 143.4 235.5 136 L 221.5 128 L 205.5 127 L 197.5 129 L 195 125.5 Q 193.3 113.7 188 105.5 L 172.5 88 Q 160.3 76.7 137.5 76 L 136.5 77 L 128.5 77 L 118.5 80 Q 105.6 85.1 97 94.5 L 86 112.5 L 83 122.5 L 83 131.5 L 81.5 133 Q 59 133.5 50 147.5 L 44 161.5 L 44 174.5 Q 47.1 186.9 55.5 194 L 71.5 202 L 109.5 202 L 112 204.5 L 110.5 208 L 108.5 209 L 107.5 208 L 71.5 208 L 67.5 207 Q 54.5 203 47 193.5 L 39 178.5 L 38 162.5 Q 41.2 143.7 54.5 135 L 63.5 130 L 70.5 128 L 75.5 128 L 77 126.5 Q 80.4 99.4 97.5 86 L 112.5 76 L 128.5 71 Q 134.8 72.8 136.5 70 Z " /><path fill="rgb(68,68,69)" stroke="rgb(68,68,69)" stroke-width="1" opacity="0.9725490196078431" d="M 278.5 85 Q 286 85.5 289 90.5 L 291 98.5 L 289 105.5 L 285.5 109 L 277.5 111 L 270 106.5 Q 266.5 102.5 268 93.5 L 272.5 87 L 278.5 85 Z M 277 91 L 273 96 Q 272 102 275 105 L 278 106 L 283 105 L 285 102 L 284 94 Q 283 90 277 91 Z " /><path fill="rgb(68,68,69)" stroke="rgb(68,68,69)" stroke-width="1" opacity="0.9725490196078431" d="M 152.5 175 L 157 178.5 L 180 219.5 L 183 229.5 L 183 237.5 Q 180.5 250 172.5 257 Q 165.1 264.6 149.5 264 Q 136.6 261.9 130 253.5 L 124 242.5 L 123 230.5 Q 125.3 218.3 131 209.5 L 147 181.5 L 152.5 175 Z M 154 184 Q 139 203 129 228 Q 127 244 135 251 Q 140 256 148 258 Q 160 260 166 255 Q 174 249 177 239 L 177 229 L 174 220 L 154 184 Z " /><path fill="rgb(68,68,69)" stroke="rgb(68,68,69)" stroke-width="1" opacity="0.9725490196078431" d="M 136 228 Q 139.8 227 141 229.5 Q 139.4 240.6 145.5 244 L 150 247.5 L 149 250 L 145.5 250 L 139 244.5 L 136 238.5 L 135 230.5 L 136 228 Z " /><path fill="rgb(57,57,58)" stroke="rgb(57,57,58)" stroke-width="1" opacity="0.29411764705882354" d="M 242.5 59 L 250.5 59 L 258 65.5 Q 260.5 69 259 76.5 L 254.5 84 L 252.5 85 L 253.5 83 Q 255.8 83.8 255 81.5 Q 259.7 77.7 258 67.5 L 252.5 61 Q 249.3 58.7 242.5 60 L 237.5 64 L 240.5 60 L 242.5 59 Z " /><path fill="rgb(57,57,58)" stroke="rgb(57,57,58)" stroke-width="1" opacity="0.29411764705882354" d="M 278.5 59 Q 282.3 58.3 283 60.5 Q 283.6 65.1 281 66.5 L 253.5 103 L 255 100.5 L 282 63.5 L 282 60 Q 278.2 59 277 61.5 L 274.5 65 L 276 62.5 L 278.5 59 Z " /><path fill="rgb(57,57,58)" stroke="rgb(57,57,58)" stroke-width="1" opacity="0.29411764705882354" d="M 244.5 65 L 249 65.5 Q 243.5 65 242 68.5 L 241.5 71 L 241 68.5 L 244.5 65 Z " /><path fill="rgb(57,57,58)" stroke="rgb(57,57,58)" stroke-width="1" opacity="0.29411764705882354" d="M 250.5 66 L 251.5 68 L 250.5 66 Z " /><path fill="rgb(57,57,58)" stroke="rgb(57,57,58)" stroke-width="1" opacity="0.29411764705882354" d="M 273.5 66 L 272 68.5 L 266.5 76 L 268 73.5 L 273.5 66 Z " /><path fill="rgb(57,57,58)" stroke="rgb(57,57,58)" stroke-width="1" opacity="0.29411764705882354" d="M 235.5 67 L 236 69.5 L 235 69.5 L 235.5 67 Z " /><path fill="rgb(57,57,58)" stroke="rgb(57,57,58)" stroke-width="1" opacity="0.29411764705882354" d="M 252.5 69 L 253 75.5 L 252 75.5 L 252.5 69 Z " /><path fill="rgb(57,57,58)" stroke="rgb(57,57,58)" stroke-width="1" opacity="0.29411764705882354" d="M 129.5 70 L 136 70.5 L 129.5 71 L 129.5 70 Z " /><path fill="rgb(57,57,58)" stroke="rgb(57,57,58)" stroke-width="1" opacity="0.29411764705882354" d="M 142.5 70 L 149 70.5 L 142.5 71 L 142.5 70 Z " /><path fill="rgb(57,57,58)" stroke="rgb(57,57,58)" stroke-width="1" opacity="0.29411764705882354" d="M 124.5 71 L 128 71.5 L 121.5 73 L 121.5 72 L 124.5 71 Z " /><path fill="rgb(57,57,58)" stroke="rgb(57,57,58)" stroke-width="1" opacity="0.29411764705882354" d="M 150.5 71 L 153 71.5 L 150.5 72 L 150.5 71 Z " /><path fill="rgb(57,57,58)" stroke="rgb(57,57,58)" stroke-width="1" opacity="0.29411764705882354" d="M 154.5 72 L 157 72.5 L 154.5 73 L 154.5 72 Z " /><path fill="rgb(57,57,58)" stroke="rgb(57,57,58)" stroke-width="1" opacity="0.29411764705882354" d="M 241.5 73 L 243 77.5 L 241 76.5 L 241.5 73 Z " /><path fill="rgb(57,57,58)" stroke="rgb(57,57,58)" stroke-width="1" opacity="0.29411764705882354" d="M 115.5 74 L 117 74.5 Q 101 80.5 91 92.5 L 83.5 104 L 83 102.5 Q 89.3 91.8 98.5 84 L 115.5 74 Z " /><path fill="rgb(57,57,58)" stroke="rgb(57,57,58)" stroke-width="1" opacity="0.29411764705882354" d="M 161.5 74 Q 176.5 80 186 91.5 L 195 105.5 L 193 104.5 Q 188.4 94.1 180.5 87 Q 172.6 79.4 161.5 75 L 161.5 74 Z " /><path fill="rgb(57,57,58)" stroke="rgb(57,57,58)" stroke-width="1" opacity="0.29411764705882354" d="M 235.5 74 L 236 77.5 L 235 77.5 L 235.5 74 Z " /><path fill="rgb(57,57,58)" stroke="rgb(57,57,58)" stroke-width="1" opacity="0.29411764705882354" d="M 137.5 76 L 142 76.5 L 137.5 77 L 137.5 76 Z " /><path fill="rgb(57,57,58)" stroke="rgb(57,57,58)" stroke-width="1" opacity="0.29411764705882354" d="M 128.5 77 L 133 77.5 L 128.5 78 L 128.5 77 Z " /><path fill="rgb(57,57,58)" stroke="rgb(57,57,58)" stroke-width="1" opacity="0.29411764705882354" d="M 145.5 77 Q 154 77 159 80.5 L 157.5 81 Q 153.2 77.8 145.5 78 L 145.5 77 Z " /><path fill="rgb(57,57,58)" stroke="rgb(57,57,58)" stroke-width="1" opacity="0.29411764705882354" d="M 251.5 77 L 249.5 80 L 251.5 77 Z " /><path fill="rgb(57,57,58)" stroke="rgb(57,57,58)" stroke-width="1" opacity="0.29411764705882354" d="M 265.5 77 L 263 80.5 L 244 108.5 L 247.5 110 L 252.5 104 L 251 106.5 L 247.5 111 Q 243.5 111.5 243 108.5 L 246 102.5 L 265.5 77 Z " /><path fill="rgb(57,57,58)" stroke="rgb(57,57,58)" stroke-width="1" opacity="0.29411764705882354" d="M 124.5 78 L 127 78.5 L 121.5 80 L 121.5 79 L 124.5 78 Z " /><path fill="rgb(57,57,58)" stroke="rgb(57,57,58)" stroke-width="1" opacity="0.29411764705882354" d="M 236.5 79 L 239 82.5 L 237 81.5 L 236.5 79 Z " /><path fill="rgb(57,57,58)" stroke="rgb(57,57,58)" stroke-width="1" opacity="0.29411764705882354" d="M 118.5 80 L 120 80.5 Q 104.1 86.1 95 98.5 L 89.5 107 L 90 105.5 Q 93.6 96.6 100.5 91 L 118.5 80 Z " /><path fill="rgb(57,57,58)" stroke="rgb(57,57,58)" stroke-width="1" opacity="0.29411764705882354" d="M 160.5 81 L 165 83.5 L 163.5 83 Q 159.8 82.8 160.5 81 Z " /><path fill="rgb(57,57,58)" stroke="rgb(57,57,58)" stroke-width="1" opacity="0.29411764705882354" d="M 240.5 83 L 243 84.5 L 241.5 85 L 240.5 83 Z " /><path fill="rgb(57,57,58)" stroke="rgb(57,57,58)" stroke-width="1" opacity="0.29411764705882354" d="M 166.5 84 L 171 87.5 L 168.5 86 L 166.5 84 Z " /><path fill="rgb(57,57,58)" stroke="rgb(57,57,58)" stroke-width="1" opacity="0.29411764705882354" d="M 244.5 85 L 251 85.5 L 244.5 86 L 244.5 85 Z " /><path fill="rgb(57,57,58)" stroke="rgb(57,57,58)" stroke-width="1" opacity="0.29411764705882354" d="M 275.5 85 L 278 85.5 L 275.5 86 L 275.5 85 Z " /><path fill="rgb(57,57,58)" stroke="rgb(57,57,58)" stroke-width="1" opacity="0.29411764705882354" d="M 280.5 85 Q 286.9 85.1 289 89.5 L 285.5 87 L 280.5 86 L 280.5 85 Z " /><path fill="rgb(57,57,58)" stroke="rgb(57,57,58)" stroke-width="1" opacity="0.29411764705882354" d="M 271.5 87 L 270 89.5 L 268.5 93 L 268 91.5 L 271.5 87 Z " /><path fill="rgb(57,57,58)" stroke="rgb(57,57,58)" stroke-width="1" opacity="0.29411764705882354" d="M 172.5 88 L 188 105.5 Q 193.3 113.7 195 125.5 L 197.5 129 L 200 129.5 L 197.5 130 L 194 125.5 Q 192.3 113.7 187 105.5 L 172.5 88 Z " /><path fill="rgb(57,57,58)" stroke="rgb(57,57,58)" stroke-width="1" opacity="0.29411764705882354" d="M 276.5 91 L 278 91.5 L 274.5 94 L 276.5 91 Z " /><path fill="rgb(57,57,58)" stroke="rgb(57,57,58)" stroke-width="1" opacity="0.29411764705882354" d="M 279.5 91 Q 283.5 90.5 284 93.5 L 281.5 92 Q 278.5 92.5 279.5 91 Z " /><path fill="rgb(57,57,58)" stroke="rgb(57,57,58)" stroke-width="1" opacity="0.29411764705882354" d="M 290.5 94 L 291 96.5 L 290 96.5 L 290.5 94 Z " /><path fill="rgb(57,57,58)" stroke="rgb(57,57,58)" stroke-width="1" opacity="0.29411764705882354" d="M 267.5 95 L 268 100.5 L 267 100.5 L 267.5 95 Z " /><path fill="rgb(57,57,58)" stroke="rgb(57,57,58)" stroke-width="1" opacity="0.29411764705882354" d="M 273.5 95 L 274 100.5 L 273 100.5 L 273.5 95 Z " /><path fill="rgb(57,57,58)" stroke="rgb(57,57,58)" stroke-width="1" opacity="0.29411764705882354" d="M 284.5 95 L 285 101.5 L 284 101.5 L 284.5 95 Z " /><path fill="rgb(57,57,58)" stroke="rgb(57,57,58)" stroke-width="1" opacity="0.29411764705882354" d="M 290.5 99 L 291 102.5 L 290 102.5 L 290.5 99 Z " /><path fill="rgb(57,57,58)" stroke="rgb(57,57,58)" stroke-width="1" opacity="0.29411764705882354" d="M 268.5 103 L 272.5 109 L 277 110.5 L 274.5 111 L 269 106.5 L 268.5 103 Z " /><path fill="rgb(57,57,58)" stroke="rgb(57,57,58)" stroke-width="1" opacity="0.29411764705882354" d="M 283.5 103 L 282.5 105 L 283.5 103 Z " /><path fill="rgb(57,57,58)" stroke="rgb(57,57,58)" stroke-width="1" opacity="0.29411764705882354" d="M 275.5 104 L 281 105.5 L 277.5 106 L 275.5 104 Z " /><path fill="rgb(57,57,58)" stroke="rgb(57,57,58)" stroke-width="1" opacity="0.29411764705882354" d="M 289.5 104 L 290 105.5 Q 287.9 110.4 281.5 111 L 281.5 110 Q 287.1 109.6 289 105.5 L 289.5 104 Z " /><path fill="rgb(57,57,58)" stroke="rgb(57,57,58)" stroke-width="1" opacity="0.29411764705882354" d="M 82.5 105 L 83 106.5 L 78.5 118 L 78 115.5 L 82.5 105 Z " /><path fill="rgb(57,57,58)" stroke="rgb(57,57,58)" stroke-width="1" opacity="0.29411764705882354" d="M 195.5 107 L 201 121 L 208 121.5 L 201.5 122 L 195 108.5 L 195.5 107 Z " /><path fill="rgb(57,57,58)" stroke="rgb(57,57,58)" stroke-width="1" opacity="0.29411764705882354" d="M 88.5 108 L 89 109.5 Q 84 117 83.5 129 L 83 122.5 L 88.5 108 Z " /><path fill="rgb(57,57,58)" stroke="rgb(57,57,58)" stroke-width="1" opacity="0.29411764705882354" d="M 77.5 119 L 78 122.5 L 77 122.5 L 77.5 119 Z " /><path fill="rgb(57,57,58)" stroke="rgb(57,57,58)" stroke-width="1" opacity="0.29411764705882354" d="M 215.5 121 L 221 121.5 L 215.5 122 L 215.5 121 Z " /><path fill="rgb(57,57,58)" stroke="rgb(57,57,58)" stroke-width="1" opacity="0.29411764705882354" d="M 222.5 122 L 234 127.5 L 232.5 127 L 222.5 123 L 222.5 122 Z " /><path fill="rgb(57,57,58)" stroke="rgb(57,57,58)" stroke-width="1" opacity="0.29411764705882354" d="M 76.5 125 L 77 126.5 Q 76 129 71.5 128 L 71.5 127 Q 76.9 128.7 76.5 125 Z " /><path fill="rgb(57,57,58)" stroke="rgb(57,57,58)" stroke-width="1" opacity="0.29411764705882354" d="M 205.5 127 L 218 127.5 L 205.5 128 L 205.5 127 Z " /><path fill="rgb(57,57,58)" stroke="rgb(57,57,58)" stroke-width="1" opacity="0.29411764705882354" d="M 67.5 128 L 70 128.5 L 67.5 129 L 67.5 128 Z " /><path fill="rgb(57,57,58)" stroke="rgb(57,57,58)" stroke-width="1" opacity="0.29411764705882354" d="M 201.5 128 L 204 128.5 L 201.5 129 L 201.5 128 Z " /><path fill="rgb(57,57,58)" stroke="rgb(57,57,58)" stroke-width="1" opacity="0.29411764705882354" d="M 219.5 128 Q 233.1 130.9 240 140.5 L 247 154.5 L 246 154.5 Q 243.5 144 236.5 138 Q 230.3 131.2 219.5 129 L 219.5 128 Z " /><path fill="rgb(57,57,58)" stroke="rgb(57,57,58)" stroke-width="1" opacity="0.29411764705882354" d="M 235.5 128 L 247 138.5 L 252 148.5 L 251 148.5 Q 247.1 136.4 237.5 130 L 235.5 128 Z " /><path fill="rgb(57,57,58)" stroke="rgb(57,57,58)" stroke-width="1" opacity="0.29411764705882354" d="M 63.5 129 L 66 129.5 Q 52.3 133.8 45 144.5 L 43.5 147 L 44 145.5 L 54.5 134 L 63.5 129 Z " /><path fill="rgb(57,57,58)" stroke="rgb(57,57,58)" stroke-width="1" opacity="0.29411764705882354" d="M 82.5 132 L 83 134 L 75 133.5 L 82.5 132 Z " /><path fill="rgb(57,57,58)" stroke="rgb(57,57,58)" stroke-width="1" opacity="0.29411764705882354" d="M 70.5 134 L 74 134.5 L 70.5 135 L 70.5 134 Z " /><path fill="rgb(57,57,58)" stroke="rgb(57,57,58)" stroke-width="1" opacity="0.29411764705882354" d="M 64.5 136 L 66 136.5 Q 56.5 140 51 147.5 L 45.5 160 L 45 157.5 Q 48.8 146.3 57.5 140 L 64.5 136 Z " /><path fill="rgb(57,57,58)" stroke="rgb(57,57,58)" stroke-width="1" opacity="0.29411764705882354" d="M 40.5 152 L 41 153.5 L 38.5 162 L 38 157.5 L 40.5 152 Z " /><path fill="rgb(57,57,58)" stroke="rgb(57,57,58)" stroke-width="1" opacity="0.29411764705882354" d="M 253.5 153 Q 255.8 155.8 255 161.5 L 254 161.5 L 253.5 153 Z " /><path fill="rgb(57,57,58)" stroke="rgb(57,57,58)" stroke-width="1" opacity="0.29411764705882354" d="M 247.5 156 L 248 160.5 L 247 160.5 L 247.5 156 Z " /><path fill="rgb(57,57,58)" stroke="rgb(57,57,58)" stroke-width="1" opacity="0.29411764705882354" d="M 44.5 161 L 45 174.5 L 44 174.5 L 44.5 161 Z " /><path fill="rgb(57,57,58)" stroke="rgb(57,57,58)" stroke-width="1" opacity="0.29411764705882354" d="M 37.5 163 L 38 171.5 L 37 171.5 L 37.5 163 Z " /><path fill="rgb(57,57,58)" stroke="rgb(57,57,58)" stroke-width="1" opacity="0.29411764705882354" d="M 247.5 167 L 248 172.5 Q 245 185.5 236.5 193 L 224.5 200 L 224.5 199 Q 235.2 195.2 241 186.5 Q 246.8 179.3 247.5 167 Z " /><path fill="rgb(57,57,58)" stroke="rgb(57,57,58)" stroke-width="1" opacity="0.29411764705882354" d="M 254.5 167 L 255 171.5 L 254 171.5 L 254.5 167 Z " /><path fill="rgb(57,57,58)" stroke="rgb(57,57,58)" stroke-width="1" opacity="0.29411764705882354" d="M 253.5 173 L 254 175.5 L 253 175.5 L 253.5 173 Z " /><path fill="rgb(57,57,58)" stroke="rgb(57,57,58)" stroke-width="1" opacity="0.29411764705882354" d="M 38.5 174 L 39 177.5 L 38 177.5 L 38.5 174 Z " /><path fill="rgb(57,57,58)" stroke="rgb(57,57,58)" stroke-width="1" opacity="0.29411764705882354" d="M 152.5 174 L 158 178.5 L 173 203.5 L 181 219.5 L 183 228.5 L 182 228.5 L 180 219.5 L 173 205.5 L 157 178.5 L 153.5 175 L 149 178.5 L 127 217.5 L 123.5 230 L 123 225.5 L 130 209.5 L 150.5 175 L 152.5 174 Z " /><path fill="rgb(57,57,58)" stroke="rgb(57,57,58)" stroke-width="1" opacity="0.29411764705882354" d="M 45.5 176 Q 48.1 185.9 54.5 192 Q 60.5 198 70 200.5 L 67.5 201 Q 58 197.5 52 190.5 L 45 178.5 L 45.5 176 Z " /><path fill="rgb(57,57,58)" stroke="rgb(57,57,58)" stroke-width="1" opacity="0.29411764705882354" d="M 252.5 177 L 253 179.5 L 251.5 182 L 251 180.5 L 252.5 177 Z " /><path fill="rgb(57,57,58)" stroke="rgb(57,57,58)" stroke-width="1" opacity="0.29411764705882354" d="M 40.5 182 Q 44.3 192.7 52.5 199 L 64 205.5 L 62.5 206 Q 51.5 201.5 45 192.5 L 40 183.5 L 40.5 182 Z " /><path fill="rgb(57,57,58)" stroke="rgb(57,57,58)" stroke-width="1" opacity="0.29411764705882354" d="M 250.5 183 L 251 184.5 L 239.5 199 L 233.5 203 L 234.5 201 L 243 194.5 L 250.5 183 Z " /><path fill="rgb(57,57,58)" stroke="rgb(57,57,58)" stroke-width="1" opacity="0.29411764705882354" d="M 153.5 184 L 165 203.5 L 163 202.5 L 153.5 186 L 151 187.5 L 130.5 226 L 130 224.5 L 147 192.5 L 153.5 184 Z " /><path fill="rgb(57,57,58)" stroke="rgb(57,57,58)" stroke-width="1" opacity="0.29411764705882354" d="M 220.5 200 L 223 200.5 L 219.5 202 L 201.5 202 L 201.5 201 L 219.5 201 L 220.5 200 Z " /><path fill="rgb(57,57,58)" stroke="rgb(57,57,58)" stroke-width="1" opacity="0.29411764705882354" d="M 71.5 201 L 99 201.5 L 71.5 202 L 71.5 201 Z " /><path fill="rgb(57,57,58)" stroke="rgb(57,57,58)" stroke-width="1" opacity="0.29411764705882354" d="M 110.5 202 Q 112.8 201.3 112 203.5 L 113 206.5 L 112 209 L 109 208.5 L 112 206.5 L 110.5 202 Z " /><path fill="rgb(57,57,58)" stroke="rgb(57,57,58)" stroke-width="1" opacity="0.29411764705882354" d="M 193.5 202 L 195 202.5 L 193 203 L 192.5 205 L 192 203.5 L 193.5 202 Z " /><path fill="rgb(57,57,58)" stroke="rgb(57,57,58)" stroke-width="1" opacity="0.29411764705882354" d="M 165.5 205 L 174 220.5 L 173 220.5 L 165.5 205 Z " /><path fill="rgb(57,57,58)" stroke="rgb(57,57,58)" stroke-width="1" opacity="0.29411764705882354" d="M 226.5 205 L 228 205.5 L 219.5 208 L 219.5 207 L 226.5 205 Z " /><path fill="rgb(57,57,58)" stroke="rgb(57,57,58)" stroke-width="1" opacity="0.29411764705882354" d="M 192.5 206 L 193 208 L 218 208.5 L 193.5 209 L 192.5 206 Z " /><path fill="rgb(57,57,58)" stroke="rgb(57,57,58)" stroke-width="1" opacity="0.29411764705882354" d="M 68.5 207 L 71 207.5 L 68.5 208 L 68.5 207 Z " /><path fill="rgb(57,57,58)" stroke="rgb(57,57,58)" stroke-width="1" opacity="0.29411764705882354" d="M 72.5 208 L 108 208.5 L 72.5 209 L 72.5 208 Z " /><path fill="rgb(57,57,58)" stroke="rgb(57,57,58)" stroke-width="1" opacity="0.29411764705882354" d="M 174.5 222 Q 178.4 227.6 177 238.5 L 175.5 242 L 175 239.5 L 176 238.5 L 176 228.5 L 174.5 222 Z " /><path fill="rgb(57,57,58)" stroke="rgb(57,57,58)" stroke-width="1" opacity="0.29411764705882354" d="M 129.5 227 L 130 238.5 L 129 238.5 L 129.5 227 Z " /><path fill="rgb(57,57,58)" stroke="rgb(57,57,58)" stroke-width="1" opacity="0.29411764705882354" d="M 136.5 227 Q 141.9 225.1 141 228.5 L 142 233.5 L 141 233.5 Q 142 229 139.5 228 Q 135.1 226.5 136 229.5 L 135 229.5 L 136.5 227 Z " /><path fill="rgb(57,57,58)" stroke="rgb(57,57,58)" stroke-width="1" opacity="0.29411764705882354" d="M 122.5 231 L 123 235.5 L 122 235.5 L 122.5 231 Z " /><path fill="rgb(57,57,58)" stroke="rgb(57,57,58)" stroke-width="1" opacity="0.29411764705882354" d="M 135.5 233 L 136 237.5 L 135 237.5 L 135.5 233 Z " /><path fill="rgb(57,57,58)" stroke="rgb(57,57,58)" stroke-width="1" opacity="0.29411764705882354" d="M 141.5 235 L 145 243 L 150 245 L 149.5 247 L 143 241.5 Q 140 239 141.5 235 Z " /><path fill="rgb(57,57,58)" stroke="rgb(57,57,58)" stroke-width="1" opacity="0.29411764705882354" d="M 123.5 238 L 124 241.5 L 123 241.5 L 123.5 238 Z " /><path fill="rgb(57,57,58)" stroke="rgb(57,57,58)" stroke-width="1" opacity="0.29411764705882354" d="M 182.5 238 L 183 241.5 Q 179.9 251.9 172.5 258 L 169.5 260 L 171.5 257 L 175 254.5 Q 181 248.5 182.5 238 Z " /><path fill="rgb(57,57,58)" stroke="rgb(57,57,58)" stroke-width="1" opacity="0.29411764705882354" d="M 136.5 239 L 142.5 248 Q 144.5 250.8 149 250 L 149.5 248 L 150 249.5 Q 149.3 251.8 145.5 251 L 138 244.5 L 136.5 239 Z " /><path fill="rgb(57,57,58)" stroke="rgb(57,57,58)" stroke-width="1" opacity="0.29411764705882354" d="M 130.5 240 Q 132.8 249.7 140.5 254 L 147.5 257 L 159 257.5 L 147.5 258 Q 139.8 255.8 135 250.5 L 130 242.5 L 130.5 240 Z " /><path fill="rgb(57,57,58)" stroke="rgb(57,57,58)" stroke-width="1" opacity="0.29411764705882354" d="M 124.5 243 Q 127.4 251.6 133.5 257 L 141 261.5 L 139.5 262 L 129 253.5 L 124 244.5 L 124.5 243 Z " /><path fill="rgb(57,57,58)" stroke="rgb(57,57,58)" stroke-width="1" opacity="0.29411764705882354" d="M 173.5 245 L 173 246.5 L 165.5 255 L 160.5 257 L 160.5 256 Q 168.4 253.9 172 247.5 L 173.5 245 Z " /><path fill="rgb(57,57,58)" stroke="rgb(57,57,58)" stroke-width="1" opacity="0.29411764705882354" d="M 162.5 262 L 164 262.5 L 158.5 264 L 158.5 263 L 162.5 262 Z " /><path fill="rgb(57,57,58)" stroke="rgb(57,57,58)" stroke-width="1" opacity="0.29411764705882354" d="M 145.5 263 L 157 264.5 L 149.5 265 L 145.5 264 L 145.5 263 Z " /></svg>