<svg width="450" height="450" version="1.1" xmlns="http://www.w3.org/2000/svg" desc="Created with imagetracer.js version 1.2.6" ><path fill="rgb(70,70,70)" stroke="rgb(70,70,70)" stroke-width="1" opacity="0.8470588235294118" d="M 227.5 104 L 230.5 105 L 232.5 104 L 241.5 107 L 245.5 107 L 247.5 109 L 255.5 111 L 265.5 116 L 279 125.5 Q 278.3 127.8 280.5 127 L 285.5 133 Q 287.8 132.3 287 134.5 L 294 145.5 L 296 155.5 L 296 165.5 L 293 177.5 L 284.5 191 L 281.5 193 L 277.5 198 L 274 200.5 Q 274.8 203.1 271.5 202 L 258.5 212 L 245.5 218 L 240 219 L 240 226.5 L 241.5 228 L 243.5 228 L 254.5 230 L 256.5 229 L 257.5 230 L 276.5 230 L 282.5 228 L 284.5 229 L 293.5 226 L 310.5 224 L 312.5 225 L 314.5 225 Q 322.3 226.2 326 231.5 L 329 236.5 L 329 247.5 L 325 258.5 Q 327.5 260 324 261.5 L 324 264.5 L 317 278.5 L 305 295 L 300 297.5 Q 300.8 299.8 298.5 299 Q 288.7 307.7 269.5 307 L 260.5 304 L 259 304.5 Q 259.8 301.9 256.5 303 Q 244.8 297.2 237 287.5 L 227 273.5 L 225 268 L 223 267.5 L 223.5 266 L 222 265.5 L 222 263.5 L 219 258.5 L 220 257.5 L 218 253.5 L 217 249 L 209.5 248 L 207 251.5 L 204 277.5 L 205 278.5 L 205 291.5 L 207 296.5 L 207 298.5 L 208 301.5 L 208 303.5 L 211 320.5 L 210 323.5 Q 210 331 205.5 334 Q 200.4 338.9 189.5 338 L 179.5 335 Q 178 337.5 176.5 334 L 161.5 328 L 145 317 L 136 304.5 L 134 297.5 L 132 295.5 L 132 293.5 Q 129.5 286 131 274.5 L 139 257 Q 141.7 258.1 141 255.5 L 147.5 248 L 162.5 236 L 187 224.5 L 187 217.5 L 184.5 217 L 179.5 215 L 164.5 213 L 162.5 213 Q 157.8 211.8 156.5 214 L 152.5 213 Q 150.8 215.8 144.5 214 L 140.5 216 L 129.5 217 L 123.5 220 L 121.5 219 L 120.5 220 L 109.5 220 L 101 214.5 Q 96.8 209.7 98 199.5 L 99 197.5 L 99 195.5 Q 105.6 163.1 127.5 146 L 141.5 139 L 157.5 138 Q 178.5 143 190 157.5 L 192 160.5 L 206 182.5 L 210 196 L 217.5 196 L 219 194.5 L 222 179.5 L 222 158.5 L 222 156.5 L 221 147.5 L 219 143.5 Q 218.5 132.5 215 124.5 L 215 114.5 L 218 109 L 227.5 104 Z M 228 113 L 226 114 L 223 118 L 223 124 L 227 137 L 227 139 L 228 142 L 228 144 L 229 148 L 229 150 Q 232 153 230 161 L 231 162 L 230 182 L 226 200 L 230 202 L 235 208 Q 237 207 236 211 L 240 211 L 249 207 L 267 196 L 268 193 L 273 191 L 285 175 L 288 164 L 287 152 L 279 138 L 269 128 L 252 119 L 235 113 L 228 113 Z M 146 147 L 145 148 Q 140 147 141 150 L 138 150 Q 137 154 133 153 Q 124 159 119 169 Q 120 172 117 171 L 113 181 L 113 183 L 111 183 L 106 202 L 107 209 L 112 212 Q 116 213 118 211 L 120 212 Q 121 208 123 211 L 126 209 Q 132 210 135 207 L 146 206 L 148 206 L 152 205 L 157 204 Q 161 203 163 205 L 165 204 L 167 205 L 169 204 L 191 209 L 195 203 L 201 200 Q 204 201 202 197 Q 198 195 201 194 Q 194 177 184 164 Q 177 155 168 150 L 160 147 L 146 147 Z M 209 205 L 205 207 Q 198 211 196 219 Q 195 227 198 232 Q 201 237 208 239 L 211 240 Q 219 241 223 238 Q 228 234 231 227 L 231 218 L 225 209 Q 222 210 223 207 Q 219 204 209 205 Z M 190 233 L 170 243 Q 167 242 168 245 L 166 245 L 159 250 L 143 268 L 140 275 Q 142 281 139 283 Q 140 297 147 306 L 163 319 L 183 328 L 191 330 L 199 329 L 202 325 L 202 316 L 200 307 L 198 304 L 197 294 L 197 292 L 196 281 L 195 280 L 196 279 L 196 264 L 197 263 L 196 260 L 197 257 L 197 255 L 201 246 L 190 233 Z M 306 233 L 276 239 L 255 239 L 237 235 L 229 244 Q 226 243 227 246 L 225 246 L 228 257 L 235 271 L 246 284 Q 248 283 247 286 L 262 296 Q 268 300 280 298 L 282 298 L 289 295 Q 291 296 290 293 L 293 293 L 293 291 L 297 290 Q 296 287 299 288 Q 313 275 318 254 L 318 252 L 320 249 Q 322 240 319 237 L 315 234 L 313 234 L 308 233 L 306 233 Z " /><path fill="rgb(70,70,70)" stroke="rgb(70,70,70)" stroke-width="1" opacity="0.8470588235294118" d="M 412.5 152 L 414.5 152 L 421.5 152 L 430 159.5 L 432 168.5 L 431 171.5 Q 430.4 177.9 425.5 180 L 418.5 183 L 415.5 182 Q 408 181.5 405 176.5 Q 399.9 173.1 402 162.5 L 408.5 154 L 412.5 152 Z M 415 160 L 412 161 L 410 166 L 411 171 L 416 174 L 419 174 L 422 172 Q 424 170 423 164 Q 422 159 415 160 Z " /><path fill="rgb(70,70,70)" stroke="rgb(70,70,70)" stroke-width="1" opacity="0.8470588235294118" d="M 342.5 153 L 348.5 153 L 358 159.5 Q 361.3 164.2 360 173.5 L 353.5 182 Q 349.9 184.9 342.5 184 Q 335.5 182.5 332 177.5 Q 328.7 172.8 330 163.5 L 335 156 L 342.5 153 Z M 343 161 L 338 167 L 339 173 L 344 176 L 349 175 L 352 171 L 352 167 L 348 161 L 345 162 L 343 161 Z " /><path fill="rgb(70,70,70)" stroke="rgb(70,70,70)" stroke-width="1" opacity="0.8470588235294118" d="M 16.5 194 L 18.5 195 L 73.5 195 L 77 198.5 Q 77.5 202.5 74.5 203 L 71.5 204 L 55.5 204 L 54.5 203 L 35.5 203 Q 34.3 205.3 29.5 204 L 26.5 203 L 22.5 204 L 19.5 203 Q 13 204 11 200.5 Q 10.3 195.8 13.5 195 L 16.5 194 Z " /><path fill="rgb(70,70,70)" stroke="rgb(70,70,70)" stroke-width="1" opacity="0.8470588235294118" d="M 371.5 208 Q 383.5 207.5 388 214.5 Q 391.3 219.2 390 228.5 L 386 236 Q 381.3 239.6 372.5 240 Q 365 238.6 361 233.5 L 358 223.5 L 359 218.5 L 363.5 212 L 371.5 208 Z M 374 216 L 371 217 L 366 224 L 368 229 L 374 232 L 380 230 L 382 227 L 382 221 L 380 220 L 380 219 L 374 216 Z " /><path fill="rgb(70,70,70)" stroke="rgb(70,70,70)" stroke-width="1" opacity="0.8470588235294118" d="M 6.5 228 L 76.5 228 L 78 229.5 L 79 234.5 L 74.5 237 L 8.5 237 L 4 236 Q 2.5 229.7 6.5 228 Z " /><path fill="rgb(70,70,70)" stroke="rgb(70,70,70)" stroke-width="1" opacity="0.8470588235294118" d="M 421.5 230 L 423.5 231 L 425.5 230 L 430.5 231 L 439 236 L 444 244.5 L 446 254.5 Q 443.7 255.8 445 260.5 L 436 273 L 427.5 276 L 419.5 276 Q 409.5 274 405 266.5 Q 400.6 260.9 401 250.5 Q 402.9 238.9 411.5 234 L 421.5 230 Z M 422 239 L 417 241 L 410 250 L 411 261 Q 414 266 422 268 Q 431 268 434 262 Q 433 259 436 260 Q 434 258 437 257 Q 438 247 433 243 Q 430 244 431 241 L 425 240 L 422 239 Z " /><path fill="rgb(70,70,70)" stroke="rgb(70,70,70)" stroke-width="1" opacity="0.8470588235294118" d="M 45.5 258 L 94.5 258 L 104 260 L 105 264.5 L 104 267 L 92.5 268 L 88.5 267 L 87.5 268 L 72.5 268 L 70.5 268 L 66.5 267 L 64.5 267 Q 59.4 269.4 50.5 268 L 49.5 267 L 43 267 L 42 260.5 L 45.5 258 Z " /><path fill="rgb(70,70,70)" stroke="rgb(70,70,70)" stroke-width="1" opacity="0.8470588235294118" d="M 362.5 275 Q 373.6 273.4 377 279.5 Q 379.6 282.4 379 288.5 Q 377.8 294.3 373.5 297 Q 370.6 299.6 364.5 299 L 356 295 Q 354.1 290.9 355 282.5 L 355.5 280 L 358.5 278 L 362.5 275 Z M 365 283 L 362 286 L 362 288 L 363 290 L 369 291 Q 372 290 371 286 Q 370 282 365 283 Z " /><path fill="rgb(0,0,0)" stroke="rgb(0,0,0)" stroke-width="1" opacity="0" d="M 0 0 L 450 0 L 450 450 L 0 450 L 0 0 Z M 228 104 L 218 109 L 215 115 L 215 125 Q 219 132 219 144 L 221 148 L 222 157 L 222 159 L 222 180 L 219 195 L 218 196 L 210 196 L 206 183 L 192 161 L 190 158 Q 179 143 158 138 L 142 139 L 128 146 Q 106 163 99 196 L 99 198 L 98 200 Q 97 210 101 215 L 110 220 L 121 220 L 122 219 L 124 220 L 130 217 L 141 216 L 145 214 Q 151 216 153 213 L 157 214 Q 158 212 163 213 L 165 213 L 180 215 L 185 217 L 187 218 L 187 225 L 163 236 L 148 248 L 141 256 Q 142 258 139 257 L 131 275 Q 130 286 132 294 L 132 296 L 134 298 L 136 305 L 145 317 L 162 328 L 177 334 Q 178 337 180 335 L 190 338 Q 200 339 206 334 Q 210 331 210 324 L 211 321 L 208 304 L 208 302 L 207 299 L 207 297 L 205 292 L 205 279 L 204 278 L 207 252 L 210 248 L 217 249 L 218 254 L 220 258 L 219 259 L 222 264 L 222 266 L 224 266 L 223 268 L 225 268 L 227 274 L 237 288 Q 245 297 257 303 Q 260 302 259 305 L 261 304 L 270 307 Q 289 308 299 299 Q 301 300 300 298 L 305 295 L 317 279 L 324 265 L 324 262 Q 327 260 325 259 L 329 248 L 329 237 L 326 232 Q 322 226 315 225 L 313 225 L 311 224 L 294 226 L 285 229 L 283 228 L 277 230 L 258 230 L 257 229 L 255 230 L 244 228 L 242 228 L 240 227 L 240 219 L 246 218 L 259 212 L 272 202 Q 275 203 274 201 L 278 198 L 282 193 L 285 191 L 293 178 L 296 166 L 296 156 L 294 146 L 287 135 Q 288 132 286 133 L 281 127 Q 278 128 279 126 L 266 116 L 256 111 L 248 109 L 246 107 L 242 107 L 233 104 L 231 105 L 228 104 Z M 413 152 L 409 154 L 402 163 Q 400 173 405 177 Q 408 182 416 182 L 419 183 L 426 180 Q 430 178 431 172 L 432 169 L 430 160 L 422 152 L 415 152 L 413 152 Z M 343 153 L 335 156 L 330 164 Q 329 173 332 178 Q 336 182 343 184 Q 350 185 354 182 L 360 174 Q 361 164 358 160 L 349 153 L 343 153 Z M 17 194 L 14 195 Q 10 196 11 201 Q 13 204 20 203 L 23 204 L 27 203 L 30 204 Q 34 205 36 203 L 55 203 L 56 204 L 72 204 L 75 203 Q 78 202 77 199 L 74 195 L 19 195 L 17 194 Z M 372 208 L 364 212 L 359 219 L 358 224 L 361 234 Q 365 239 373 240 Q 381 240 386 236 L 390 229 Q 391 219 388 215 Q 383 208 372 208 Z M 7 228 Q 2 230 4 236 L 9 237 L 75 237 L 79 235 L 78 230 L 77 228 L 7 228 Z M 422 230 L 412 234 Q 403 239 401 251 Q 401 261 405 267 Q 410 274 420 276 L 428 276 L 436 273 L 445 261 Q 444 256 446 255 L 444 245 L 439 236 L 431 231 L 426 230 L 424 231 L 422 230 Z M 46 258 L 42 261 L 43 267 L 50 267 L 51 268 Q 59 269 65 267 L 67 267 L 71 268 L 73 268 L 88 268 L 89 267 L 93 268 L 104 267 L 105 265 L 104 260 L 95 258 L 46 258 Z M 363 275 L 359 278 L 356 280 L 355 283 Q 354 291 356 295 L 365 299 Q 371 300 374 297 Q 378 294 379 289 Q 380 282 377 280 Q 374 273 363 275 Z " /><path fill="rgb(0,0,0)" stroke="rgb(0,0,0)" stroke-width="1" opacity="0" d="M 227.5 113 L 234.5 113 L 251.5 119 L 268.5 128 L 279 137.5 L 287 151.5 L 288 163.5 L 285 174.5 L 273 191 L 268 193 L 266.5 196 L 248.5 207 L 239.5 211 L 236 211 Q 237.5 207.3 234.5 208 L 229.5 202 L 226 199.5 L 230 181.5 L 231 161.5 L 230 160.5 Q 231.5 153 229 149.5 L 229 147.5 L 228 143.5 L 228 141.5 L 227 138.5 L 227 136.5 L 223 123.5 L 223 117.5 L 225.5 114 L 227.5 113 Z " /><path fill="rgb(0,0,0)" stroke="rgb(0,0,0)" stroke-width="1" opacity="0" d="M 145.5 147 L 159.5 147 L 167.5 150 Q 177.3 155.3 184 163.5 Q 194.4 176.6 201 193.5 Q 198.5 195 202 196.5 Q 203.5 200.9 200.5 200 L 195 203 L 190.5 209 L 168.5 204 L 166.5 205 L 164.5 204 L 162.5 205 Q 161.3 202.8 156.5 204 L 151.5 205 L 147.5 206 L 145.5 206 L 134.5 207 Q 131.6 209.6 125.5 209 L 122.5 211 Q 121 208.5 119.5 212 L 117.5 211 Q 116.2 213.2 111.5 212 L 107 208.5 L 106 201.5 L 111 183 L 113 182.5 L 113 180.5 L 117 171 Q 120 172.3 119 168.5 Q 123.9 158.9 132.5 153 Q 137 153.5 137.5 150 L 141 150 Q 139.7 146.7 144.5 148 L 145.5 147 Z " /><path fill="rgb(0,0,0)" stroke="rgb(0,0,0)" stroke-width="1" opacity="0" d="M 414.5 160 Q 421.8 158.8 423 163.5 Q 423.8 169.6 422 172 L 418.5 174 L 415.5 174 L 411 170.5 L 410 165.5 L 412 161 L 414.5 160 Z " /><path fill="rgb(0,0,0)" stroke="rgb(0,0,0)" stroke-width="1" opacity="0" d="M 342.5 161 L 344.5 162 L 347.5 161 L 352 166.5 L 352 170.5 L 348.5 175 L 343.5 176 L 339 172.5 L 338 166.5 L 342.5 161 Z " /><path fill="rgb(0,0,0)" stroke="rgb(0,0,0)" stroke-width="1" opacity="0" d="M 208.5 205 Q 218.8 203.6 223 207 Q 221.9 209.7 224.5 209 L 231 217.5 L 231 226.5 Q 228.4 233.9 222.5 238 Q 218.8 241.3 210.5 240 L 207.5 239 Q 200.6 237.4 198 231.5 Q 194.9 227.1 196 218.5 Q 198.1 210.6 204.5 207 L 208.5 205 Z " /><path fill="rgb(0,0,0)" stroke="rgb(0,0,0)" stroke-width="1" opacity="0" d="M 373.5 216 L 380 218.5 L 380 220 L 382 220.5 L 382 226.5 L 379.5 230 L 373.5 232 L 368 228.5 L 366 223.5 L 370.5 217 L 373.5 216 Z " /><path fill="rgb(0,0,0)" stroke="rgb(0,0,0)" stroke-width="1" opacity="0" d="M 189.5 233 L 201 245.5 L 197 254.5 L 197 256.5 L 196 259.5 L 197 262.5 L 196 263.5 L 196 278.5 L 195 279.5 L 196 280.5 L 197 291.5 L 197 293.5 L 198 303.5 L 200 306.5 L 202 315.5 L 202 324.5 L 198.5 329 L 190.5 330 L 182.5 328 L 162.5 319 L 147 305.5 Q 139.7 297.3 139 282.5 Q 141.8 280.8 140 274.5 L 143 267.5 L 158.5 250 L 165.5 245 L 168 245 Q 166.9 242.3 169.5 243 L 189.5 233 Z " /><path fill="rgb(0,0,0)" stroke="rgb(0,0,0)" stroke-width="1" opacity="0" d="M 305.5 233 L 307.5 233 L 312.5 234 L 314.5 234 L 319 236.5 Q 321.7 240.3 320 248.5 L 318 251.5 L 318 253.5 Q 312.7 275.2 298.5 288 Q 296.3 287.3 297 289.5 L 293 291 L 293 293 L 290 293 Q 291.1 295.7 288.5 295 L 281.5 298 L 279.5 298 Q 268 299.5 261.5 296 L 247 285.5 Q 247.8 283.3 245.5 284 L 235 270.5 L 228 256.5 L 225 246 L 227 246 Q 225.9 243.3 228.5 244 L 236.5 235 L 254.5 239 L 275.5 239 L 305.5 233 Z " /><path fill="rgb(0,0,0)" stroke="rgb(0,0,0)" stroke-width="1" opacity="0" d="M 421.5 239 L 424.5 240 L 431 241 Q 429.9 243.7 432.5 243 Q 437.8 246.7 437 256.5 Q 433.9 258.3 435.5 260 Q 433.3 259.3 434 261.5 Q 430.6 267.6 421.5 268 Q 414.3 266.2 411 260.5 L 410 249.5 L 416.5 241 L 421.5 239 Z " /><path fill="rgb(0,0,0)" stroke="rgb(0,0,0)" stroke-width="1" opacity="0" d="M 364.5 283 Q 369.6 282.4 371 285.5 Q 371.8 290.3 368.5 291 L 363 290 L 362 287.5 L 362 285.5 L 364.5 283 Z " /></svg>