<svg width="310" height="310" version="1.1" xmlns="http://www.w3.org/2000/svg" desc="Created with imagetracer.js version 1.2.6" ><path fill="rgb(0,0,0)" stroke="rgb(0,0,0)" stroke-width="1" opacity="0" d="M 0 0 L 310 0 L 310 310 L 0 310 L 0 0 Z M 155 26 Q 145 28 140 33 Q 131 40 128 53 L 128 206 Q 117 215 114 232 L 115 251 L 123 267 Q 133 280 153 284 L 168 284 L 173 283 L 189 274 Q 197 267 202 258 L 206 243 L 206 235 L 203 222 Q 199 212 191 206 L 191 51 L 186 40 L 173 28 L 164 26 L 155 26 Z M 56 191 L 53 194 L 57 204 L 57 213 L 52 223 Q 49 222 50 218 Q 50 214 45 214 L 41 218 L 36 228 L 33 238 L 33 252 L 38 264 Q 44 272 55 275 L 61 274 Q 62 268 57 266 Q 58 261 56 260 L 57 254 L 66 243 Q 68 250 74 254 L 76 260 Q 76 268 71 272 L 73 275 L 79 275 L 87 271 Q 97 264 100 250 Q 101 230 94 220 L 90 217 L 87 222 Q 83 210 76 203 L 63 192 L 56 191 Z M 248 206 L 247 216 L 242 212 L 238 212 Q 235 213 236 217 L 244 223 Q 249 225 247 233 Q 246 235 241 234 L 236 229 L 229 222 L 225 225 L 225 228 L 230 234 L 223 234 Q 219 235 220 240 L 222 241 L 229 241 L 225 250 Q 226 253 231 252 L 240 242 L 247 242 L 247 250 L 236 260 Q 235 263 238 264 L 241 264 L 247 260 L 247 268 L 248 269 Q 247 272 253 270 L 254 269 L 254 260 L 261 264 L 264 264 Q 267 264 266 260 L 255 251 L 255 242 L 263 242 L 264 245 L 272 252 L 275 252 L 277 249 L 272 243 L 281 241 Q 283 240 282 237 L 280 234 L 272 234 L 276 229 Q 277 223 274 222 L 271 223 L 262 234 L 255 234 L 255 227 L 262 221 L 266 216 L 265 212 L 263 211 L 256 216 Q 252 214 254 208 Q 253 205 248 206 Z " /><path fill="rgb(0,0,0)" stroke="rgb(0,0,0)" stroke-width="1" opacity="0" d="M 154.5 34 L 165.5 34 L 170.5 36 L 181 45.5 L 183 50.5 L 183 207.5 Q 191.3 214.7 196 225.5 Q 199.5 232 198 243.5 Q 194.2 261.2 181.5 270 L 174.5 274 L 162.5 277 L 161.5 276 L 151.5 276 L 145.5 274 Q 135.4 269.6 129 261.5 L 123 250.5 L 122 231.5 L 125 222.5 L 136 206.5 L 136 52.5 Q 138.5 44 144.5 39 L 154.5 34 Z M 149 68 L 148 69 L 140 69 Q 138 74 142 76 L 152 76 L 153 75 Q 156 76 154 71 L 149 68 Z M 171 69 Q 167 71 169 76 Q 173 78 181 77 L 182 72 L 180 69 L 171 69 Z M 142 91 L 140 93 Q 139 97 142 98 L 152 98 L 153 97 Q 156 98 154 93 L 153 91 L 142 91 Z M 172 91 L 169 92 L 168 95 L 172 99 Q 178 101 180 98 L 181 98 L 181 92 L 172 91 Z M 143 112 L 141 113 Q 138 114 139 118 Q 140 120 146 119 L 148 119 L 153 119 L 153 113 Q 150 111 143 112 Z M 172 113 L 168 116 L 169 119 Q 168 121 172 120 L 174 120 L 181 120 L 181 114 Q 178 112 172 113 Z M 145 134 L 140 135 L 139 138 Q 138 142 142 142 L 151 142 L 152 141 Q 156 142 154 137 Q 152 133 145 134 Z M 171 135 Q 167 136 168 140 L 171 142 L 181 142 L 182 140 L 181 137 L 180 135 L 171 135 Z M 159 150 Q 152 151 150 156 L 140 157 L 139 160 Q 138 164 142 164 L 150 164 L 150 165 L 150 218 L 146 220 Q 140 224 137 232 Q 135 246 141 253 Q 145 259 155 261 Q 166 262 173 258 L 180 250 L 183 239 L 180 227 L 173 219 L 169 218 L 169 166 L 170 165 L 180 165 Q 183 163 181 158 L 174 158 L 173 157 Q 168 158 169 156 Q 166 151 159 150 Z " /><path fill="rgb(0,0,0)" stroke="rgb(0,0,0)" stroke-width="1" opacity="0" d="M 64.5 202 L 70 206.5 L 77 217.5 Q 79.9 222.1 79 230.5 L 82.5 234 L 85.5 234 L 90.5 229 Q 94.4 235.6 93 247.5 Q 91.3 258.8 83.5 264 L 82 253.5 L 71 238.5 Q 72.3 232.3 68.5 231 L 65.5 231 L 59 237.5 L 51 249.5 L 49.5 265 L 42 256.5 L 40 241.5 L 44 228 L 48.5 231 L 53.5 231 L 58 226.5 L 63 217.5 L 64.5 202 Z " /><path fill="rgb(79,79,79)" stroke="rgb(79,79,79)" stroke-width="1" opacity="0.9921568627450981" d="M 155.5 28 L 158.5 29 Q 175.8 27.7 182 37.5 L 186 45.5 L 186 47.5 L 186.5 49 L 188 48.5 L 190 60.5 L 189 63.5 L 188 82.5 L 189 83.5 L 189 106.5 L 188 109 Q 185.3 110.1 186 107.5 L 185 106.5 L 185 84.5 L 187 79.5 L 186 78.5 L 186 68.5 L 184 60.5 L 184 49.5 L 175.5 38 L 167.5 33 L 165.5 34 L 164 31 L 155 31.5 Q 157.2 32.8 154.5 34 Q 144.8 35.3 140.5 42 L 139 41.5 L 135 52.5 L 134 81.5 L 135 83.5 L 134 84.5 L 134 92.5 Q 136.7 94.3 135 100.5 L 134 101.5 L 134 110.5 Q 136.7 112.3 135 118.5 L 134 119.5 L 134 129.5 L 135 132.5 L 135 134.5 L 135 144.5 L 133 151.5 L 133 164.5 L 134 165.5 Q 132.3 173.7 135 177.5 L 134 178.5 L 134 197.5 L 135 199.5 Q 132 201.5 133 207.5 L 134 208.5 L 130 212.5 L 126 220 Q 122.7 218.7 124 223.5 L 121 230.5 L 121 246.5 Q 124.6 262.4 136.5 270 L 141 272 L 141.5 274 L 143.5 274 L 146.5 276 L 148.5 276 L 159.5 278 L 180.5 274 L 184 270.5 Q 181.8 269.3 184.5 268 L 189 264.5 L 193 258 L 196.5 257 L 197.5 259 L 198 255.5 L 198 253.5 L 197 248.5 L 198 248.5 L 198.5 250 L 199 246.5 L 198 244.5 L 199 243.5 L 199 230.5 Q 194.8 215.7 184 207.5 L 184 175.5 L 187 162.5 L 185 162 L 185 130.5 L 186.5 129 Q 189.5 128.1 188 132.5 L 189 133.5 L 189 146.5 L 187 153.5 L 187 161.5 L 189 166.5 L 189 168.5 L 189 192.5 L 188 193.5 L 188 195.5 L 188 204.5 L 189.5 206 L 194 209.5 L 199 216.5 L 198.5 218 Q 201.5 217.1 200 221.5 L 202 231.5 L 204 233.5 L 204 243.5 L 203 246.5 L 203 249.5 L 200 255.5 L 200.5 257 L 199 257.5 L 199.5 259 L 198 259.5 L 198.5 261 L 197 261.5 Q 199.2 262.8 196.5 264 L 194 265.5 L 194 267.5 L 189.5 272 L 187.5 272 L 184.5 274 L 176 279 Q 177.3 282.7 171.5 281 L 168.5 283 L 166.5 282 L 165.5 283 L 152.5 283 L 147.5 282 L 145.5 280 L 144 280.5 Q 144.8 277.9 141.5 279 Q 129.5 274.5 123 264.5 L 117 253.5 L 115 240.5 L 116 239.5 L 116 227.5 L 118 225.5 L 118 223.5 Q 120.7 212.2 129 206.5 L 130 149.5 L 129 148.5 L 129 123.5 L 130 121.5 L 129 120.5 L 129 112.5 L 130 108.5 L 129 107.5 L 129 80.5 L 130 79.5 L 130 71.5 L 129 68.5 Q 127.1 52.8 132 45 L 134 44.5 Q 131.5 43 135 41.5 L 141.5 34 L 150.5 29 L 155.5 28 Z M 186 189 L 186 204 L 187 202 L 186 201 L 186 189 Z " /><path fill="rgb(79,79,79)" stroke="rgb(79,79,79)" stroke-width="1" opacity="0.9921568627450981" d="M 147.5 70 L 151.5 71 L 153 70.5 L 152.5 73 Q 150.5 76 144.5 75 L 142 73.5 L 141.5 75 L 141 73.5 L 142 71 L 147.5 70 Z " /><path fill="rgb(79,79,79)" stroke="rgb(79,79,79)" stroke-width="1" opacity="0.9921568627450981" d="M 175.5 71 L 179 72 L 177.5 75 L 172.5 76 L 170 75 L 170.5 72 L 172.5 72 L 175.5 71 Z " /><path fill="rgb(79,79,79)" stroke="rgb(79,79,79)" stroke-width="1" opacity="0.9921568627450981" d="M 141 92 Q 148.7 91.1 153 93 L 151.5 97 L 142.5 97 L 141 95.5 L 141 92 Z " /><path fill="rgb(79,79,79)" stroke="rgb(79,79,79)" stroke-width="1" opacity="0.9921568627450981" d="M 173.5 93 L 175.5 94 L 177.5 93 L 179 95.5 Q 178.3 97.8 174.5 97 L 171 96 Q 169.9 93.3 172.5 94 L 173.5 93 Z " /><path fill="rgb(79,79,79)" stroke="rgb(79,79,79)" stroke-width="1" opacity="0.9921568627450981" d="M 187.5 110 L 188 112.5 L 187.5 114 L 186 111.5 L 187.5 110 Z " /><path fill="rgb(79,79,79)" stroke="rgb(79,79,79)" stroke-width="1" opacity="0.9921568627450981" d="M 141.5 113 L 143.5 114 L 147.5 114 Q 151.3 113.3 152 115.5 L 151 119 Q 143.4 120.1 140 118 Q 139 114.2 141.5 113 Z " /><path fill="rgb(79,79,79)" stroke="rgb(79,79,79)" stroke-width="1" opacity="0.9921568627450981" d="M 171.5 115 Q 178.3 113.2 180 116.5 L 178.5 120 Q 170.8 121.7 169 117.5 Q 168.3 115.3 170.5 116 L 171.5 115 Z " /><path fill="rgb(79,79,79)" stroke="rgb(79,79,79)" stroke-width="1" opacity="0.9921568627450981" d="M 143.5 136 L 146.5 137 L 147.5 136 Q 149.3 139.1 151 137.5 L 150 141 L 142 140.5 L 143 139.5 L 141.5 137 L 143.5 136 Z M 147 138 L 145 140 L 148 140 L 147 138 Z " /><path fill="rgb(79,79,79)" stroke="rgb(79,79,79)" stroke-width="1" opacity="0.9921568627450981" d="M 172.5 137 Q 178.5 135.5 180 138.5 Q 178.5 141.5 172.5 140 L 172.5 137 Z " /><path fill="rgb(79,79,79)" stroke="rgb(79,79,79)" stroke-width="1" opacity="0.9921568627450981" d="M 170.5 138 L 171 140.5 L 169 139.5 L 170.5 138 Z " /><path fill="rgb(79,79,79)" stroke="rgb(79,79,79)" stroke-width="1" opacity="0.9921568627450981" d="M 159.5 151 L 162.5 153 L 164 152.5 Q 163.3 154.8 165.5 154 L 169.5 159 L 171.5 160 Q 172.8 157.8 177.5 159 L 179 161.5 L 177.5 163 L 169.5 164 L 168 163.5 L 168 217.5 L 170.5 220 L 177 224.5 L 180 229.5 L 182 239.5 L 180 247 Q 177.3 245.9 178 248.5 L 177.5 251 Q 174.9 250.2 176 253.5 L 171 256 L 170.5 258 L 169 257.5 Q 169.8 260.1 166.5 259 L 161.5 260 L 159.5 260 L 156.5 259 L 154.5 260 Q 145.4 257.5 141 250.5 Q 136.5 245 138 233.5 Q 140.4 224.4 147.5 220 L 151 217.5 L 151.5 174 L 152.5 177 L 153 173.5 L 151 171.5 Q 152.8 164.8 149.5 163 L 141.5 163 L 140 161.5 Q 138.8 157.8 142.5 159 Q 144.2 156.3 150.5 158 L 153 155.5 Q 151.7 151.3 156.5 153 L 159.5 151 Z M 153 180 L 152 187 L 153 187 L 153 180 Z M 153 211 L 152 214 L 153 214 L 153 211 Z " /><path fill="rgb(79,79,79)" stroke="rgb(79,79,79)" stroke-width="1" opacity="0.9921568627450981" d="M 55 192 Q 66.2 193 72 200.5 Q 71.3 202.8 73.5 202 Q 79.9 207.1 83 215.5 L 82 217.5 L 84 217.5 L 85 226 L 87 225.5 L 86.5 224 Q 89.1 224.8 88 221.5 L 91.5 220 L 94 221 L 95 223.5 L 95 225.5 L 97 228.5 L 96 231 Q 100 229.6 98 236.5 L 99 237.5 L 99 248.5 L 97 251.5 L 98 253.5 Q 94.9 255.3 96.5 257 L 95 257.5 L 95.5 259 L 94 259 L 94 261 L 92 261 L 92 263 Q 89.3 261.9 90 264.5 L 88.5 268 Q 86.8 265.3 85 269.5 Q 85.8 271.8 83.5 271 L 78.5 274 L 73.5 274 L 72 272.5 L 77 267.5 L 76 264.5 Q 78.3 263.2 77 258.5 L 75 254.5 L 76 252.5 L 74 249.5 L 75 249.5 L 75.5 251 L 79 250 L 82 257.5 L 82 264.5 L 81 267 L 83.5 268 L 84 266.5 L 83 265.5 L 88.5 260 L 89.5 263 L 95 250.5 L 95 240.5 L 92 230.5 L 92 228.5 L 91.5 227 L 88 229.5 L 85.5 233 L 81 232 L 80 229.5 L 81 226.5 L 79 221.5 L 80 219 L 78 218.5 Q 80.5 217 77 215.5 L 75 210 L 73 210 L 73 207 Q 70.3 208.1 71 205.5 Q 68.4 200.3 62 200 L 63 203.5 Q 60.7 204.8 62 209.5 L 63 212.5 L 61 219 L 58 220.5 L 59 222.5 L 57 223.5 L 57.5 225 L 56 224.5 Q 56.8 229.3 53.5 230 Q 48.3 231.3 47 228.5 L 45.5 225 L 42.5 227 L 42 229.5 L 39 240.5 L 39 249.5 L 41 256.5 L 45 261.5 L 44.5 263 L 52 266 L 51 255.5 Q 53.8 252.5 53 247 L 56 245.5 L 55.5 244 L 58 242.5 L 57.5 241 L 59 241.5 L 63 236.5 L 63 234 L 67.5 232 L 73 245 L 77 247.5 L 73 247.5 L 72.5 249 L 70 244 L 64.5 242 L 62 243 Q 63.1 245.7 60.5 245 L 58 249.5 Q 58.7 252.1 56 251 L 56 255.5 Q 53.8 256.7 55 261.5 L 57 267.5 L 60 270.5 L 60 273 L 54.5 274 L 46 269.5 L 44.5 267 L 43 267.5 L 44 264.5 L 41 265.5 L 40 261 L 37 259.5 L 35 252.5 L 35 239.5 L 38 232.5 L 37 230.5 L 42 220.5 L 41.5 219 L 43 218.5 Q 40.8 217.3 43.5 216 L 45.5 217 L 48 216 L 49 221.5 L 51.5 225 L 55 223.5 L 59 203 Q 55.7 204.3 57 199.5 L 54 194.5 L 55 192 Z M 38 235 L 37 238 L 38 238 L 38 235 Z M 88 262 L 86 264 L 88 265 L 88 262 Z M 86 264 L 84 266 L 86 266 L 86 264 Z " /><path fill="rgb(79,79,79)" stroke="rgb(79,79,79)" stroke-width="1" opacity="0.9921568627450981" d="M 249 207 L 251.5 208 L 253 207.5 L 252 208.5 L 252 217.5 L 255.5 219 L 255.5 217 L 258 218 Q 256.9 215.3 259.5 216 L 260.5 213 Q 264.9 211.5 264 214.5 L 263 217 L 259 218.5 L 260 220.5 L 258 220.5 L 257.5 223 Q 256.3 220.8 255 223.5 L 253 226.5 L 252 228.5 L 253 233.5 Q 252.3 235.8 254.5 235 L 255.5 236 L 263 236 L 264.5 233 L 266 232.5 L 265 231.5 L 268 228.5 L 272.5 223 L 275 224 L 274 227.5 L 275 228.5 L 271.5 232 L 270 232 L 270 236 L 278.5 236 L 279.5 235 Q 282.3 236.3 280 237.5 L 281 239.5 Q 277.9 241.9 271.5 241 L 270 240.5 L 272 246 L 275 246.5 L 274 249.5 Q 276.3 250.8 273.5 252 L 272.5 250 L 271.5 251 L 267 246.5 L 262.5 241 L 258.5 240 L 256.5 240 Q 252.1 238.5 253 241.5 Q 250.5 243 252 248.5 L 258.5 256 L 260 255.5 Q 257.5 257 261 258.5 Q 260.1 261.5 264.5 260 L 263.5 262 L 260.5 263 Q 257.8 261.8 260 260.5 Q 260.8 258.3 258.5 259 L 256.5 258 L 255 258.5 L 255.5 257 Q 252.2 255.9 253 258.5 L 251 264.5 L 251 266.5 L 249.5 269 Q 246.3 267.3 248 260.5 L 250 260.5 L 247.5 257 L 246 257.5 L 246.5 259 L 244.5 258 L 240.5 263 L 237 261.5 Q 236.5 256.5 240.5 256 Q 243.8 257.1 243 254.5 L 248 250.5 L 249 247.5 L 249 245.5 L 248 240 L 239.5 241 Q 238.2 238.8 237 241.5 L 237.5 243 L 236 242.5 L 234 245.5 L 230.5 251 Q 226.8 251.8 226 249.5 Q 225.5 244.5 229.5 244 L 232 242.5 L 231.5 241 L 233 240.5 L 229.5 239 L 226.5 240 Q 222 241 221 238.5 L 222.5 235 L 223.5 236 L 233 236 L 233 234 Q 230.3 235.1 231 232.5 L 226 225.5 L 229.5 224 L 235.5 232 L 237 231.5 L 237 233.5 Q 236.2 236.1 239.5 235 L 240.5 236 L 247 236 L 249 232.5 L 249 227.5 L 246.5 223 Q 243.2 224.1 244 221.5 L 242 218 Q 239.3 219.1 240 216.5 L 241.5 217 L 248.5 218 L 248 216.5 Q 247.1 209.7 249 207 Z M 249 265 L 250 268 L 251 266 L 249 265 Z " /><path fill="rgb(94,93,94)" stroke="rgb(94,93,94)" stroke-width="1" opacity="0.9450980392156862" d="M 153.5 27 Q 175.7 25.8 184 38.5 L 190 49.5 L 190 57.5 L 189 57.5 L 187.5 48 L 186 48.5 L 185 46.5 Q 187.5 45 184 43.5 L 184 40.5 L 178.5 34 L 171.5 30 L 158.5 29 L 157.5 28 L 154.5 29 Q 141 31 135 40.5 L 133 43.5 L 133.5 45 Q 131.3 45.8 132 43.5 L 138.5 35 Q 144.3 29.3 153.5 27 Z " /><path fill="rgb(94,93,94)" stroke="rgb(94,93,94)" stroke-width="1" opacity="0.9450980392156862" d="M 155.5 31 L 163.5 31 L 164 33 L 156.5 33 L 155.5 31 Z " /><path fill="rgb(94,93,94)" stroke="rgb(94,93,94)" stroke-width="1" opacity="0.9450980392156862" d="M 139.5 41 L 140 42.5 L 138 43.5 L 139.5 41 Z " /><path fill="rgb(94,93,94)" stroke="rgb(94,93,94)" stroke-width="1" opacity="0.9450980392156862" d="M 184.5 61 L 186 68.5 L 186 78.5 L 187 79.5 L 185 84.5 L 185 106.5 L 186 109 Q 188.7 110.1 188 107.5 L 189 106.5 L 189 83.5 L 188 82.5 L 188 69.5 L 189.5 63 L 190 205.5 L 188 204.5 L 188 195.5 L 189 194.5 L 189 192.5 L 189 168.5 L 188 167.5 L 188 165.5 L 187.5 162 L 186 163.5 L 184.5 175 L 184.5 61 Z M 187 129 L 185 131 L 185 162 L 187 162 L 187 154 L 189 147 L 189 134 L 188 133 Q 189 128 187 129 Z " /><path fill="rgb(94,93,94)" stroke="rgb(94,93,94)" stroke-width="1" opacity="0.9450980392156862" d="M 141 70 L 147 70.5 L 142 71 L 144 74.5 L 142 75 L 141 70 Z " /><path fill="rgb(94,93,94)" stroke="rgb(94,93,94)" stroke-width="1" opacity="0.9450980392156862" d="M 149.5 70 L 153 71.5 L 151.5 71 Q 148.5 71.5 149.5 70 Z " /><path fill="rgb(94,93,94)" stroke="rgb(94,93,94)" stroke-width="1" opacity="0.9450980392156862" d="M 171.5 70 L 179.5 70 L 181 71.5 L 180 76 L 173 75.5 Q 177.6 76.1 179 73.5 Q 179.8 70.9 176.5 72 L 174.5 72 L 171.5 73 Q 168.5 71.5 171.5 70 Z " /><path fill="rgb(94,93,94)" stroke="rgb(94,93,94)" stroke-width="1" opacity="0.9450980392156862" d="M 129.5 71 L 130 79.5 L 129 79.5 L 129.5 71 Z " /><path fill="rgb(94,93,94)" stroke="rgb(94,93,94)" stroke-width="1" opacity="0.9450980392156862" d="M 151.5 73 L 153 73.5 L 150.5 75 L 151.5 73 Z " /><path fill="rgb(94,93,94)" stroke="rgb(94,93,94)" stroke-width="1" opacity="0.9450980392156862" d="M 134.5 74 L 135 81.5 L 134 81.5 L 134.5 74 Z " /><path fill="rgb(94,93,94)" stroke="rgb(94,93,94)" stroke-width="1" opacity="0.9450980392156862" d="M 134.5 84 L 135 92.5 L 134 92.5 L 134.5 84 Z " /><path fill="rgb(94,93,94)" stroke="rgb(94,93,94)" stroke-width="1" opacity="0.9450980392156862" d="M 171.5 92 Q 177.6 91.3 180 93 Q 181 96.8 178.5 98 Q 172.4 98.7 170 97 L 169 94.5 L 171.5 92 Z M 174 93 L 173 94 Q 170 93 171 96 L 175 97 Q 178 98 179 96 L 178 93 L 176 94 L 174 93 Z " /><path fill="rgb(94,93,94)" stroke="rgb(94,93,94)" stroke-width="1" opacity="0.9450980392156862" d="M 134.5 101 L 135 110.5 L 134 110.5 L 134.5 101 Z " /><path fill="rgb(94,93,94)" stroke="rgb(94,93,94)" stroke-width="1" opacity="0.9450980392156862" d="M 129.5 108 L 130 111.5 L 129 111.5 L 129.5 108 Z " /><path fill="rgb(94,93,94)" stroke="rgb(94,93,94)" stroke-width="1" opacity="0.9450980392156862" d="M 147.5 113 Q 151.3 112.3 152 114.5 L 150.5 114 Q 146.5 114.8 147.5 113 Z " /><path fill="rgb(94,93,94)" stroke="rgb(94,93,94)" stroke-width="1" opacity="0.9450980392156862" d="M 171.5 114 L 178 114.5 L 170.5 116 L 171.5 114 Z " /><path fill="rgb(94,93,94)" stroke="rgb(94,93,94)" stroke-width="1" opacity="0.9450980392156862" d="M 134.5 119 L 135 129.5 L 134 129.5 L 134.5 119 Z " /><path fill="rgb(94,93,94)" stroke="rgb(94,93,94)" stroke-width="1" opacity="0.9450980392156862" d="M 143.5 135 Q 151.3 133.2 153 137.5 Q 154.1 140.8 151.5 140 L 150 140.5 L 151 137.5 Q 149.3 139.1 147.5 136 L 146.5 137 L 143.5 136 L 141 137.5 L 142.5 140 L 140 138.5 L 141.5 136 L 143.5 135 Z " /><path fill="rgb(94,93,94)" stroke="rgb(94,93,94)" stroke-width="1" opacity="0.9450980392156862" d="M 170.5 136 L 179.5 136 L 180 137.5 L 178.5 137 L 172 137.5 L 172.5 140 Q 178 141.5 179.5 139 L 180 141 L 171.5 141 L 171 138.5 L 169 138.5 L 170.5 136 Z " /><path fill="rgb(94,93,94)" stroke="rgb(94,93,94)" stroke-width="1" opacity="0.9450980392156862" d="M 146.5 138 L 147.5 140 L 145 139.5 L 146.5 138 Z " /><path fill="rgb(94,93,94)" stroke="rgb(94,93,94)" stroke-width="1" opacity="0.9450980392156862" d="M 134.5 145 L 135 175.5 L 134 175.5 L 133 151.5 L 134.5 145 Z " /><path fill="rgb(94,93,94)" stroke="rgb(94,93,94)" stroke-width="1" opacity="0.9450980392156862" d="M 129.5 149 L 130 166.5 L 129 166.5 L 129.5 149 Z " /><path fill="rgb(94,93,94)" stroke="rgb(94,93,94)" stroke-width="1" opacity="0.9450980392156862" d="M 152.5 154 L 153 155.5 L 150.5 158 L 141.5 159 L 141.5 158 L 151 157 L 152.5 154 Z " /><path fill="rgb(94,93,94)" stroke="rgb(94,93,94)" stroke-width="1" opacity="0.9450980392156862" d="M 168.5 157 L 176 158.5 L 171.5 160 L 168.5 157 Z " /><path fill="rgb(94,93,94)" stroke="rgb(94,93,94)" stroke-width="1" opacity="0.9450980392156862" d="M 178.5 159 Q 181.5 158.1 180 162.5 Q 178.3 165.8 171.5 164 L 171.5 163 Q 177.5 164.5 179 161.5 L 178.5 159 Z " /><path fill="rgb(94,93,94)" stroke="rgb(94,93,94)" stroke-width="1" opacity="0.9450980392156862" d="M 151.5 172 Q 153.8 172.8 153 176.5 L 152 176.5 L 151.5 172 Z " /><path fill="rgb(94,93,94)" stroke="rgb(94,93,94)" stroke-width="1" opacity="0.9450980392156862" d="M 134.5 178 L 135 197.5 L 134 197.5 L 134.5 178 Z " /><path fill="rgb(94,93,94)" stroke="rgb(94,93,94)" stroke-width="1" opacity="0.9450980392156862" d="M 152.5 180 L 153 186.5 L 152 186.5 L 152.5 180 Z " /><path fill="rgb(94,93,94)" stroke="rgb(94,93,94)" stroke-width="1" opacity="0.9450980392156862" d="M 185.5 189 L 186 200.5 L 187 201.5 L 185.5 204 L 185.5 189 Z " /><path fill="rgb(94,93,94)" stroke="rgb(94,93,94)" stroke-width="1" opacity="0.9450980392156862" d="M 134.5 200 L 135 206.5 L 133 207.5 Q 132.1 202.1 134.5 200 Z " /><path fill="rgb(94,93,94)" stroke="rgb(94,93,94)" stroke-width="1" opacity="0.9450980392156862" d="M 66.5 201 L 70.5 206 L 66.5 201 Z " /><path fill="rgb(94,93,94)" stroke="rgb(94,93,94)" stroke-width="1" opacity="0.9450980392156862" d="M 58.5 203 L 59 205.5 L 58 205.5 L 58.5 203 Z " /><path fill="rgb(94,93,94)" stroke="rgb(94,93,94)" stroke-width="1" opacity="0.9450980392156862" d="M 62.5 204 L 63 209.5 L 62 209.5 L 62.5 204 Z " /><path fill="rgb(94,93,94)" stroke="rgb(94,93,94)" stroke-width="1" opacity="0.9450980392156862" d="M 251.5 207 L 253 208.5 L 253 216.5 L 254.5 218 L 259.5 215 L 259.5 216 L 256.5 218 L 253.5 219 L 252 217.5 L 251.5 208 L 250 208.5 L 251.5 207 Z " /><path fill="rgb(94,93,94)" stroke="rgb(94,93,94)" stroke-width="1" opacity="0.9450980392156862" d="M 152.5 211 L 153 213.5 L 152 213.5 L 152.5 211 Z " /><path fill="rgb(94,93,94)" stroke="rgb(94,93,94)" stroke-width="1" opacity="0.9450980392156862" d="M 238.5 213 L 241.5 213 L 246 217.5 L 243.5 218 L 240.5 216 L 240 218 Q 242.7 216.9 242 219.5 L 243.5 222 L 237 214.5 L 238.5 213 Z " /><path fill="rgb(94,93,94)" stroke="rgb(94,93,94)" stroke-width="1" opacity="0.9450980392156862" d="M 263.5 215 L 264 216.5 L 261 218 L 260.5 220 Q 257.5 218.5 260.5 217 Q 264 218 263.5 215 Z " /><path fill="rgb(94,93,94)" stroke="rgb(94,93,94)" stroke-width="1" opacity="0.9450980392156862" d="M 56.5 216 L 57 217.5 L 53.5 225 L 51 224.5 L 56.5 216 Z " /><path fill="rgb(94,93,94)" stroke="rgb(94,93,94)" stroke-width="1" opacity="0.9450980392156862" d="M 59.5 219 L 59 220.5 L 58.5 222 L 58 220.5 L 59.5 219 Z " /><path fill="rgb(94,93,94)" stroke="rgb(94,93,94)" stroke-width="1" opacity="0.9450980392156862" d="M 89.5 219 L 93 220.5 L 91.5 220 L 88.5 221 L 89.5 219 Z " /><path fill="rgb(94,93,94)" stroke="rgb(94,93,94)" stroke-width="1" opacity="0.9450980392156862" d="M 200.5 220 L 204 228.5 L 204 232.5 L 202 231.5 L 200.5 220 Z " /><path fill="rgb(94,93,94)" stroke="rgb(94,93,94)" stroke-width="1" opacity="0.9450980392156862" d="M 40.5 222 L 40 223.5 L 39.5 225 L 39 223.5 L 40.5 222 Z " /><path fill="rgb(94,93,94)" stroke="rgb(94,93,94)" stroke-width="1" opacity="0.9450980392156862" d="M 256.5 222 L 255.5 224 L 256.5 222 Z " /><path fill="rgb(94,93,94)" stroke="rgb(94,93,94)" stroke-width="1" opacity="0.9450980392156862" d="M 57.5 223 L 57 224.5 L 56.5 226 L 56 224.5 L 57.5 223 Z " /><path fill="rgb(94,93,94)" stroke="rgb(94,93,94)" stroke-width="1" opacity="0.9450980392156862" d="M 246.5 223 L 247.5 225 L 246.5 223 Z " /><path fill="rgb(94,93,94)" stroke="rgb(94,93,94)" stroke-width="1" opacity="0.9450980392156862" d="M 44.5 225 L 47 226.5 L 45.5 226 L 44.5 225 Z " /><path fill="rgb(94,93,94)" stroke="rgb(94,93,94)" stroke-width="1" opacity="0.9450980392156862" d="M 38.5 226 L 39 227.5 L 37 231.5 L 38 233.5 L 38 235.5 L 37.5 238 L 36.5 235 L 36 238.5 L 37 240.5 L 36 240.5 L 35.5 239 L 34.5 252 L 34 237.5 L 38.5 226 Z " /><path fill="rgb(94,93,94)" stroke="rgb(94,93,94)" stroke-width="1" opacity="0.9450980392156862" d="M 80.5 226 L 81 228.5 L 80 228.5 L 80.5 226 Z " /><path fill="rgb(94,93,94)" stroke="rgb(94,93,94)" stroke-width="1" opacity="0.9450980392156862" d="M 248.5 227 L 249 232.5 L 248 232.5 L 248.5 227 Z " /><path fill="rgb(94,93,94)" stroke="rgb(94,93,94)" stroke-width="1" opacity="0.9450980392156862" d="M 252.5 227 Q 255.5 228.5 254 234.5 L 253 234.5 L 252 232.5 L 252 228.5 L 252.5 227 Z " /><path fill="rgb(94,93,94)" stroke="rgb(94,93,94)" stroke-width="1" opacity="0.9450980392156862" d="M 234.5 229 L 239 234.5 L 237 235 L 234.5 229 Z " /><path fill="rgb(94,93,94)" stroke="rgb(94,93,94)" stroke-width="1" opacity="0.9450980392156862" d="M 115.5 234 L 116 239.5 L 115 239.5 L 115.5 234 Z " /><path fill="rgb(94,93,94)" stroke="rgb(94,93,94)" stroke-width="1" opacity="0.9450980392156862" d="M 204.5 234 L 205 242.5 L 204 242.5 L 204.5 234 Z " /><path fill="rgb(94,93,94)" stroke="rgb(94,93,94)" stroke-width="1" opacity="0.9450980392156862" d="M 232.5 234 L 233 236 L 223 235.5 L 231.5 235 L 232.5 234 Z " /><path fill="rgb(94,93,94)" stroke="rgb(94,93,94)" stroke-width="1" opacity="0.9450980392156862" d="M 240.5 235 L 247 235.5 L 240.5 236 L 240.5 235 Z " /><path fill="rgb(94,93,94)" stroke="rgb(94,93,94)" stroke-width="1" opacity="0.9450980392156862" d="M 255.5 235 L 263 235.5 L 255.5 236 L 255.5 235 Z " /><path fill="rgb(94,93,94)" stroke="rgb(94,93,94)" stroke-width="1" opacity="0.9450980392156862" d="M 270.5 235 Q 279 233 281 237.5 L 280.5 239 L 278.5 236 L 270.5 236 L 270.5 235 Z " /><path fill="rgb(94,93,94)" stroke="rgb(94,93,94)" stroke-width="1" opacity="0.9450980392156862" d="M 62.5 236 L 59 240.5 L 56.5 244 L 58 241.5 L 62.5 236 Z " /><path fill="rgb(94,93,94)" stroke="rgb(94,93,94)" stroke-width="1" opacity="0.9450980392156862" d="M 229.5 239 L 233 240.5 L 231.5 241 L 229.5 239 Z " /><path fill="rgb(94,93,94)" stroke="rgb(94,93,94)" stroke-width="1" opacity="0.9450980392156862" d="M 94.5 240 L 95 250.5 L 90 262.5 L 92 263 Q 90.9 260.3 93.5 261 L 85.5 270 L 90 264.5 L 88.5 262 L 87.5 265 L 86 264.5 L 84 267.5 L 82.5 267 Q 80.3 267.8 81 265.5 L 82.5 266 L 89 260.5 Q 94.7 253.2 94.5 240 Z " /><path fill="rgb(94,93,94)" stroke="rgb(94,93,94)" stroke-width="1" opacity="0.9450980392156862" d="M 238.5 240 L 237 242.5 L 232.5 248 L 234 245.5 L 236 242.5 L 238.5 240 Z " /><path fill="rgb(94,93,94)" stroke="rgb(94,93,94)" stroke-width="1" opacity="0.9450980392156862" d="M 242.5 240 L 248 240.5 L 242.5 241 L 242.5 240 Z " /><path fill="rgb(94,93,94)" stroke="rgb(94,93,94)" stroke-width="1" opacity="0.9450980392156862" d="M 253 240 L 257 240.5 L 254 241 L 253.5 250 Q 250.5 248.5 252 242.5 L 253 240 Z " /><path fill="rgb(94,93,94)" stroke="rgb(94,93,94)" stroke-width="1" opacity="0.9450980392156862" d="M 66.5 242 L 70 244 L 72.5 249 L 73.5 247 L 75.5 247 L 78 249.5 L 75 251.5 L 76 253.5 L 73 251.5 L 67 244.5 L 66.5 242 Z " /><path fill="rgb(94,93,94)" stroke="rgb(94,93,94)" stroke-width="1" opacity="0.9450980392156862" d="M 231.5 242 L 230.5 244 L 231.5 242 Z " /><path fill="rgb(94,93,94)" stroke="rgb(94,93,94)" stroke-width="1" opacity="0.9450980392156862" d="M 248.5 242 L 249 245.5 L 248 245.5 L 248.5 242 Z " /><path fill="rgb(94,93,94)" stroke="rgb(94,93,94)" stroke-width="1" opacity="0.9450980392156862" d="M 270.5 242 L 273.5 246 Q 271.3 246.8 272 244.5 L 270.5 242 Z " /><path fill="rgb(94,93,94)" stroke="rgb(94,93,94)" stroke-width="1" opacity="0.9450980392156862" d="M 55.5 245 L 54.5 247 L 55.5 245 Z " /><path fill="rgb(94,93,94)" stroke="rgb(94,93,94)" stroke-width="1" opacity="0.9450980392156862" d="M 60.5 245 L 58.5 248 L 60.5 245 Z " /><path fill="rgb(94,93,94)" stroke="rgb(94,93,94)" stroke-width="1" opacity="0.9450980392156862" d="M 198.5 246 L 199 249.5 L 197 254.5 L 199 259.5 L 197 258.5 L 196.5 257 L 194.5 258 L 195 256.5 L 198.5 246 Z " /><path fill="rgb(94,93,94)" stroke="rgb(94,93,94)" stroke-width="1" opacity="0.9450980392156862" d="M 178.5 247 L 179 248.5 L 177 249.5 L 178.5 247 Z " /><path fill="rgb(94,93,94)" stroke="rgb(94,93,94)" stroke-width="1" opacity="0.9450980392156862" d="M 274.5 247 Q 277.5 248.5 274.5 250 L 274.5 247 Z " /><path fill="rgb(94,93,94)" stroke="rgb(94,93,94)" stroke-width="1" opacity="0.9450980392156862" d="M 52.5 250 L 53 251.5 L 51.5 255 L 51 252.5 L 52.5 250 Z " /><path fill="rgb(94,93,94)" stroke="rgb(94,93,94)" stroke-width="1" opacity="0.9450980392156862" d="M 201.5 253 L 202 254.5 L 200 255.5 L 201.5 253 Z " /><path fill="rgb(94,93,94)" stroke="rgb(94,93,94)" stroke-width="1" opacity="0.9450980392156862" d="M 257.5 254 L 262 257.5 Q 261.3 259.8 263.5 259 L 263.5 260 Q 260.2 261.1 261 258.5 L 257.5 254 Z " /><path fill="rgb(94,93,94)" stroke="rgb(94,93,94)" stroke-width="1" opacity="0.9450980392156862" d="M 246.5 257 L 250 259.5 L 249.5 261 L 248 258 L 241.5 262 L 244.5 258 L 246.5 257 Z " /><path fill="rgb(94,93,94)" stroke="rgb(94,93,94)" stroke-width="1" opacity="0.9450980392156862" d="M 253 257 L 260 259 Q 258.9 261.7 261.5 261 L 262.5 263 L 254.5 258 L 253 259.5 L 253 267.5 L 251.5 269 L 249 267.5 Q 247.9 264.2 250.5 265 L 252 263.5 L 253 257 Z " /><path fill="rgb(94,93,94)" stroke="rgb(94,93,94)" stroke-width="1" opacity="0.9450980392156862" d="M 50.5 258 L 51 260.5 L 50 260.5 L 50.5 258 Z " /><path fill="rgb(94,93,94)" stroke="rgb(94,93,94)" stroke-width="1" opacity="0.9450980392156862" d="M 38.5 261 Q 40.8 260.3 40 262.5 L 40.5 264 L 38.5 261 Z " /><path fill="rgb(94,93,94)" stroke="rgb(94,93,94)" stroke-width="1" opacity="0.9450980392156862" d="M 51.5 262 L 52 265.5 L 51 265.5 L 51.5 262 Z " /><path fill="rgb(94,93,94)" stroke="rgb(94,93,94)" stroke-width="1" opacity="0.9450980392156862" d="M 43.5 264 L 46 268.5 L 43.5 267 Q 41.3 267.8 42 265.5 L 43.5 264 Z " /><path fill="rgb(94,93,94)" stroke="rgb(94,93,94)" stroke-width="1" opacity="0.9450980392156862" d="M 195.5 264 L 194.5 266 L 195.5 264 Z " /><path fill="rgb(94,93,94)" stroke="rgb(94,93,94)" stroke-width="1" opacity="0.9450980392156862" d="M 76.5 265 L 77 267.5 L 73 270.5 L 76.5 265 Z " /><path fill="rgb(94,93,94)" stroke="rgb(94,93,94)" stroke-width="1" opacity="0.9450980392156862" d="M 184.5 269 L 180.5 274 L 177 273.5 L 184.5 269 Z " /><path fill="rgb(94,93,94)" stroke="rgb(94,93,94)" stroke-width="1" opacity="0.9450980392156862" d="M 188.5 271 L 185.5 275 L 176.5 280 L 176.5 279 L 186 274 Q 184.9 271.3 187.5 272 L 188.5 271 Z " /><path fill="rgb(69,69,69)" stroke="rgb(69,69,69)" stroke-width="1" opacity="0.3764705882352941" d="M 155.5 33 L 165 33.5 L 155.5 34 L 155.5 33 Z " /><path fill="rgb(69,69,69)" stroke="rgb(69,69,69)" stroke-width="1" opacity="0.3764705882352941" d="M 151.5 34 L 154 34.5 Q 145.3 36.3 141 42.5 Q 141.7 45.1 139 44 L 139 46.5 L 136 52.5 L 135.5 64 L 135 52.5 Q 137.3 41.8 145.5 37 L 151.5 34 Z " /><path fill="rgb(69,69,69)" stroke="rgb(69,69,69)" stroke-width="1" opacity="0.3764705882352941" d="M 166.5 34 Q 175.6 35.9 180 42.5 L 184 49.5 L 184 55.5 L 183 55.5 Q 184 48.5 181 45.5 L 172.5 37 L 166.5 35 L 166.5 34 Z " /><path fill="rgb(69,69,69)" stroke="rgb(69,69,69)" stroke-width="1" opacity="0.3764705882352941" d="M 129.5 48 L 130 52.5 L 129 53.5 L 128.5 68 L 128 53.5 L 129.5 48 Z " /><path fill="rgb(69,69,69)" stroke="rgb(69,69,69)" stroke-width="1" opacity="0.3764705882352941" d="M 183.5 57 L 184 59.5 L 183 59.5 L 183.5 57 Z " /><path fill="rgb(69,69,69)" stroke="rgb(69,69,69)" stroke-width="1" opacity="0.3764705882352941" d="M 128.5 69 L 129 71.5 L 128 71.5 L 128.5 69 Z " /><path fill="rgb(69,69,69)" stroke="rgb(69,69,69)" stroke-width="1" opacity="0.3764705882352941" d="M 153.5 70 L 154 75 Q 150.4 77.2 141.5 76 L 141.5 75 L 151.5 75 L 153 73.5 L 153.5 70 Z " /><path fill="rgb(69,69,69)" stroke="rgb(69,69,69)" stroke-width="1" opacity="0.3764705882352941" d="M 140.5 71 L 141 73.5 L 140 73.5 L 140.5 71 Z " /><path fill="rgb(69,69,69)" stroke="rgb(69,69,69)" stroke-width="1" opacity="0.3764705882352941" d="M 169.5 73 L 170 75 L 173 76.5 L 171.5 77 Q 167.9 75.9 169.5 73 Z " /><path fill="rgb(69,69,69)" stroke="rgb(69,69,69)" stroke-width="1" opacity="0.3764705882352941" d="M 180.5 75 L 179.5 77 L 180.5 75 Z " /><path fill="rgb(69,69,69)" stroke="rgb(69,69,69)" stroke-width="1" opacity="0.3764705882352941" d="M 175.5 76 L 178 76.5 L 175.5 77 L 175.5 76 Z " /><path fill="rgb(69,69,69)" stroke="rgb(69,69,69)" stroke-width="1" opacity="0.3764705882352941" d="M 128.5 81 L 129 150.5 L 128 150.5 L 128.5 81 Z " /><path fill="rgb(69,69,69)" stroke="rgb(69,69,69)" stroke-width="1" opacity="0.3764705882352941" d="M 135.5 89 L 136 99.5 L 135 99.5 L 135.5 89 Z " /><path fill="rgb(69,69,69)" stroke="rgb(69,69,69)" stroke-width="1" opacity="0.3764705882352941" d="M 183.5 89 L 184 94.5 L 183 94.5 L 183.5 89 Z " /><path fill="rgb(69,69,69)" stroke="rgb(69,69,69)" stroke-width="1" opacity="0.3764705882352941" d="M 141.5 91 L 144 91.5 L 141 92 Q 140 95.8 142.5 97 L 151.5 97 L 153 95.5 L 152 91.5 L 154 92.5 Q 155.9 97.9 152.5 97 L 151.5 98 L 141.5 98 Q 139 97 140 92.5 L 141.5 91 Z " /><path fill="rgb(69,69,69)" stroke="rgb(69,69,69)" stroke-width="1" opacity="0.3764705882352941" d="M 169.5 96 L 170.5 98 L 169.5 96 Z " /><path fill="rgb(69,69,69)" stroke="rgb(69,69,69)" stroke-width="1" opacity="0.3764705882352941" d="M 183.5 96 L 184 107.5 L 183 107.5 L 183.5 96 Z " /><path fill="rgb(69,69,69)" stroke="rgb(69,69,69)" stroke-width="1" opacity="0.3764705882352941" d="M 142.5 112 L 151 112.5 L 142.5 113 L 142.5 112 Z " /><path fill="rgb(69,69,69)" stroke="rgb(69,69,69)" stroke-width="1" opacity="0.3764705882352941" d="M 140.5 113 L 140 114.5 Q 138.5 118.9 141.5 118 L 141.5 119 L 139 117.5 Q 138.3 113.8 140.5 113 Z " /><path fill="rgb(69,69,69)" stroke="rgb(69,69,69)" stroke-width="1" opacity="0.3764705882352941" d="M 169.5 114 L 169 115.5 L 168.5 117 L 168 115.5 L 169.5 114 Z " /><path fill="rgb(69,69,69)" stroke="rgb(69,69,69)" stroke-width="1" opacity="0.3764705882352941" d="M 179.5 114 L 180.5 116 L 179.5 114 Z " /><path fill="rgb(69,69,69)" stroke="rgb(69,69,69)" stroke-width="1" opacity="0.3764705882352941" d="M 152.5 116 L 153 119 L 151 118.5 L 152.5 116 Z " /><path fill="rgb(69,69,69)" stroke="rgb(69,69,69)" stroke-width="1" opacity="0.3764705882352941" d="M 169.5 118 L 170.5 120 Q 167.7 120.7 169.5 118 Z " /><path fill="rgb(69,69,69)" stroke="rgb(69,69,69)" stroke-width="1" opacity="0.3764705882352941" d="M 180.5 118 L 181 120 L 179 119.5 L 180.5 118 Z " /><path fill="rgb(69,69,69)" stroke="rgb(69,69,69)" stroke-width="1" opacity="0.3764705882352941" d="M 135.5 130 L 136 147.5 L 135 147.5 L 135.5 130 Z " /><path fill="rgb(69,69,69)" stroke="rgb(69,69,69)" stroke-width="1" opacity="0.3764705882352941" d="M 183.5 131 L 184 134.5 L 183 134.5 L 183.5 131 Z " /><path fill="rgb(69,69,69)" stroke="rgb(69,69,69)" stroke-width="1" opacity="0.3764705882352941" d="M 140 135 L 142 135.5 L 140 136.5 L 140 135 Z " /><path fill="rgb(69,69,69)" stroke="rgb(69,69,69)" stroke-width="1" opacity="0.3764705882352941" d="M 168.5 137 L 170.5 141 L 179.5 141 L 180.5 140 L 179.5 142 L 170.5 142 L 168 139.5 L 168.5 137 Z " /><path fill="rgb(69,69,69)" stroke="rgb(69,69,69)" stroke-width="1" opacity="0.3764705882352941" d="M 140.5 140 L 144 141.5 L 142.5 142 L 140.5 140 Z " /><path fill="rgb(69,69,69)" stroke="rgb(69,69,69)" stroke-width="1" opacity="0.3764705882352941" d="M 160.5 150 L 163 151.5 L 161.5 152 L 160.5 150 Z " /><path fill="rgb(69,69,69)" stroke="rgb(69,69,69)" stroke-width="1" opacity="0.3764705882352941" d="M 155.5 151 L 157 151.5 L 151.5 155 L 153.5 152 L 155.5 151 Z " /><path fill="rgb(69,69,69)" stroke="rgb(69,69,69)" stroke-width="1" opacity="0.3764705882352941" d="M 164.5 152 L 168 154.5 L 169 156.5 L 164.5 152 Z " /><path fill="rgb(69,69,69)" stroke="rgb(69,69,69)" stroke-width="1" opacity="0.3764705882352941" d="M 140 157 L 142 157.5 L 140 158.5 L 140 157 Z " /><path fill="rgb(69,69,69)" stroke="rgb(69,69,69)" stroke-width="1" opacity="0.3764705882352941" d="M 128.5 161 L 129 206.5 Q 119.6 213.6 116.5 227 L 116 224.5 Q 119.6 212.6 128 205.5 L 128.5 161 Z " /><path fill="rgb(69,69,69)" stroke="rgb(69,69,69)" stroke-width="1" opacity="0.3764705882352941" d="M 140.5 162 L 144 163.5 L 141.5 164 L 140.5 162 Z " /><path fill="rgb(69,69,69)" stroke="rgb(69,69,69)" stroke-width="1" opacity="0.3764705882352941" d="M 145.5 163 Q 150 162 151 164.5 L 150.5 180 L 150 164 L 145.5 164 L 145.5 163 Z " /><path fill="rgb(69,69,69)" stroke="rgb(69,69,69)" stroke-width="1" opacity="0.3764705882352941" d="M 180.5 163 L 179.5 165 L 177 164.5 L 180.5 163 Z " /><path fill="rgb(69,69,69)" stroke="rgb(69,69,69)" stroke-width="1" opacity="0.3764705882352941" d="M 168 164 L 173 164.5 L 169 165 L 169 217.5 L 170.5 219 Q 176.6 220.4 179 225.5 Q 183 229 182 237.5 L 181 237.5 L 180 229.5 L 173.5 221 L 168 217.5 L 168 164 Z " /><path fill="rgb(69,69,69)" stroke="rgb(69,69,69)" stroke-width="1" opacity="0.3764705882352941" d="M 135.5 169 L 136 180.5 L 135 180.5 L 135.5 169 Z " /><path fill="rgb(69,69,69)" stroke="rgb(69,69,69)" stroke-width="1" opacity="0.3764705882352941" d="M 183.5 173 L 184 175.5 L 183 175.5 L 183.5 173 Z " /><path fill="rgb(69,69,69)" stroke="rgb(69,69,69)" stroke-width="1" opacity="0.3764705882352941" d="M 183.5 180 L 184 188.5 L 183 188.5 L 183.5 180 Z " /><path fill="rgb(69,69,69)" stroke="rgb(69,69,69)" stroke-width="1" opacity="0.3764705882352941" d="M 150.5 182 L 151 184.5 L 150 184.5 L 150.5 182 Z " /><path fill="rgb(69,69,69)" stroke="rgb(69,69,69)" stroke-width="1" opacity="0.3764705882352941" d="M 150.5 186 L 151 212.5 L 150 212.5 L 150.5 186 Z " /><path fill="rgb(69,69,69)" stroke="rgb(69,69,69)" stroke-width="1" opacity="0.3764705882352941" d="M 55.5 191 L 59.5 191 L 65.5 194 L 76 202.5 Q 82 207.5 84 216.5 L 83 216.5 Q 78.9 204.6 69.5 198 L 59.5 192 L 55 192 L 53.5 195 L 54 193.5 L 55.5 191 Z " /><path fill="rgb(69,69,69)" stroke="rgb(69,69,69)" stroke-width="1" opacity="0.3764705882352941" d="M 54.5 196 Q 58 199 58 205.5 L 57 205.5 L 54.5 196 Z " /><path fill="rgb(69,69,69)" stroke="rgb(69,69,69)" stroke-width="1" opacity="0.3764705882352941" d="M 62 200 L 66 201 Q 64.9 203.7 67.5 203 L 71.5 208 Q 69.3 208.8 70 206.5 L 64.5 202 L 64 213.5 L 60.5 221 L 60 219.5 Q 64.5 214 63 202.5 L 62 200 Z " /><path fill="rgb(69,69,69)" stroke="rgb(69,69,69)" stroke-width="1" opacity="0.3764705882352941" d="M 191.5 206 Q 198.2 210.8 201 219.5 L 200 219.5 L 191.5 206 Z " /><path fill="rgb(69,69,69)" stroke="rgb(69,69,69)" stroke-width="1" opacity="0.3764705882352941" d="M 249.5 206 Q 253.3 205.3 254 207.5 L 253.5 209 L 253 207 L 249 207 Q 250.1 209.7 247.5 209 L 249.5 206 Z " /><path fill="rgb(69,69,69)" stroke="rgb(69,69,69)" stroke-width="1" opacity="0.3764705882352941" d="M 183.5 207 Q 192 214 197 224.5 Q 200.6 231.4 199 243.5 L 197.5 248 L 197 244.5 L 198 243.5 L 198 231.5 L 191 216.5 L 184 209.5 L 183.5 207 Z " /><path fill="rgb(69,69,69)" stroke="rgb(69,69,69)" stroke-width="1" opacity="0.3764705882352941" d="M 134.5 208 L 135 209.5 Q 127.7 215.2 124 224.5 Q 120.4 232.4 122 245.5 Q 125.5 261 136.5 269 L 151.5 276 L 162 276.5 L 159.5 278 Q 157.8 275.3 151.5 277 L 139.5 272 L 127 260.5 Q 118.6 250.9 121 230.5 Q 124.4 215.9 134.5 208 Z " /><path fill="rgb(69,69,69)" stroke="rgb(69,69,69)" stroke-width="1" opacity="0.3764705882352941" d="M 72.5 209 Q 76.8 211.8 78 217.5 L 76 216.5 L 72.5 209 Z " /><path fill="rgb(69,69,69)" stroke="rgb(69,69,69)" stroke-width="1" opacity="0.3764705882352941" d="M 57.5 210 L 58 212.5 L 57 212.5 L 57.5 210 Z " /><path fill="rgb(69,69,69)" stroke="rgb(69,69,69)" stroke-width="1" opacity="0.3764705882352941" d="M 261.5 211 L 265 212 L 266 214.5 L 264 215 Q 265.3 211.7 260.5 213 L 256 216.5 Q 255.3 214.3 257.5 215 L 261.5 211 Z " /><path fill="rgb(69,69,69)" stroke="rgb(69,69,69)" stroke-width="1" opacity="0.3764705882352941" d="M 238.5 212 L 237 214.5 L 238 218 L 248 225.5 L 248 233.5 L 246.5 235 L 247 233.5 L 247 225.5 L 245.5 225 L 236 216.5 Q 234.5 212.1 237.5 213 L 238.5 212 Z " /><path fill="rgb(69,69,69)" stroke="rgb(69,69,69)" stroke-width="1" opacity="0.3764705882352941" d="M 44.5 214 Q 49.5 213.5 50 217.5 L 49.5 222 L 48 216 L 42.5 217 L 44.5 214 Z " /><path fill="rgb(69,69,69)" stroke="rgb(69,69,69)" stroke-width="1" opacity="0.3764705882352941" d="M 247.5 214 L 248 217.5 L 247 217.5 L 247.5 214 Z " /><path fill="rgb(69,69,69)" stroke="rgb(69,69,69)" stroke-width="1" opacity="0.3764705882352941" d="M 150.5 215 L 151 217.5 L 141 226.5 Q 136.5 232 138 243.5 Q 140.4 252.5 147.5 257 Q 153.6 261.4 165 260.5 L 154.5 261 Q 145.3 259.3 141 252.5 L 137 244.5 L 137 232.5 Q 139.5 224.5 145.5 220 L 150 218 L 150.5 215 Z " /><path fill="rgb(69,69,69)" stroke="rgb(69,69,69)" stroke-width="1" opacity="0.3764705882352941" d="M 84.5 218 L 87 223.5 L 85 224.5 L 84.5 218 Z " /><path fill="rgb(69,69,69)" stroke="rgb(69,69,69)" stroke-width="1" opacity="0.3764705882352941" d="M 88 218 Q 92.6 216.8 94 219.5 L 98 230.5 L 97 230.5 Q 96.1 222.9 91.5 219 L 87.5 221 L 88 219.5 L 88 218 Z " /><path fill="rgb(69,69,69)" stroke="rgb(69,69,69)" stroke-width="1" opacity="0.3764705882352941" d="M 59.5 222 L 59 223.5 L 53.5 231 Q 48.3 232.3 47 229.5 L 48.5 230 Q 54.8 231.3 56 227.5 L 59.5 222 Z " /><path fill="rgb(69,69,69)" stroke="rgb(69,69,69)" stroke-width="1" opacity="0.3764705882352941" d="M 79.5 222 L 81 232 L 85.5 233 L 89.5 228 Q 93.3 226.8 92 230.5 L 93 233.5 L 92 233.5 L 90.5 229 L 85.5 234 L 82.5 234 Q 76.6 231.6 79.5 222 Z " /><path fill="rgb(69,69,69)" stroke="rgb(69,69,69)" stroke-width="1" opacity="0.3764705882352941" d="M 272.5 222 L 276 224.5 L 275.5 228 L 275 224 L 272.5 223 L 263.5 234 L 263 232.5 L 270.5 223 L 272.5 222 Z " /><path fill="rgb(69,69,69)" stroke="rgb(69,69,69)" stroke-width="1" opacity="0.3764705882352941" d="M 226.5 223 Q 233 222 234 226.5 L 236 229.5 L 229.5 224 L 226 225.5 L 232 234.5 L 228.5 235 L 228.5 234 L 230 233.5 L 225 227.5 L 225 224.5 L 226.5 223 Z " /><path fill="rgb(69,69,69)" stroke="rgb(69,69,69)" stroke-width="1" opacity="0.3764705882352941" d="M 256.5 223 L 255.5 225 L 256.5 223 Z " /><path fill="rgb(69,69,69)" stroke="rgb(69,69,69)" stroke-width="1" opacity="0.3764705882352941" d="M 44.5 226 L 45.5 228 L 44 227.5 L 41 235.5 L 40 247.5 L 43 258.5 L 49.5 265 L 51 265.5 L 49.5 266 L 45 262.5 Q 38 255.5 39 240.5 L 41 231.5 L 44.5 226 Z " /><path fill="rgb(69,69,69)" stroke="rgb(69,69,69)" stroke-width="1" opacity="0.3764705882352941" d="M 115.5 228 L 116 232 L 114 231.5 L 115.5 228 Z " /><path fill="rgb(69,69,69)" stroke="rgb(69,69,69)" stroke-width="1" opacity="0.3764705882352941" d="M 65.5 231 Q 69.3 230.3 70 232.5 L 71 238.5 L 77 246.5 L 73 243.5 L 70 239.5 Q 70.8 233.7 67.5 232 L 62.5 235 L 65.5 231 Z " /><path fill="rgb(69,69,69)" stroke="rgb(69,69,69)" stroke-width="1" opacity="0.3764705882352941" d="M 98.5 232 Q 101.6 238.4 100 249.5 L 94 264 Q 91.3 262.9 92 265.5 L 90 266.5 L 98 253.5 L 99 237.5 Q 96.7 236.1 98.5 232 Z " /><path fill="rgb(69,69,69)" stroke="rgb(69,69,69)" stroke-width="1" opacity="0.3764705882352941" d="M 222.5 234 L 225 234.5 L 221 236.5 L 222.5 240 L 227 240.5 L 221.5 241 Q 219.3 240.3 220 236.5 L 222.5 234 Z " /><path fill="rgb(69,69,69)" stroke="rgb(69,69,69)" stroke-width="1" opacity="0.3764705882352941" d="M 241.5 234 L 244 234.5 L 241.5 235 L 241.5 234 Z " /><path fill="rgb(69,69,69)" stroke="rgb(69,69,69)" stroke-width="1" opacity="0.3764705882352941" d="M 279.5 234 L 280.5 236 L 279.5 234 Z " /><path fill="rgb(69,69,69)" stroke="rgb(69,69,69)" stroke-width="1" opacity="0.3764705882352941" d="M 92.5 235 L 94 235.5 L 94 247.5 L 93 247.5 L 93 236.5 L 92.5 235 Z " /><path fill="rgb(69,69,69)" stroke="rgb(69,69,69)" stroke-width="1" opacity="0.3764705882352941" d="M 281.5 239 L 280.5 241 L 279 240.5 L 281.5 239 Z " /><path fill="rgb(69,69,69)" stroke="rgb(69,69,69)" stroke-width="1" opacity="0.3764705882352941" d="M 181.5 240 L 182 244.5 L 180 250 L 178 249.5 L 181.5 240 Z " /><path fill="rgb(69,69,69)" stroke="rgb(69,69,69)" stroke-width="1" opacity="0.3764705882352941" d="M 229 241 Q 231.7 239.9 231 242.5 L 226 247.5 L 226 249.5 Q 226.8 251.8 230.5 251 L 232 250.5 Q 231.3 252.8 227.5 252 Q 224.5 251.5 225 247.5 L 229 241 Z " /><path fill="rgb(69,69,69)" stroke="rgb(69,69,69)" stroke-width="1" opacity="0.3764705882352941" d="M 246.5 241 L 248 241.5 L 248 250.5 L 237 259.5 L 238.5 263 L 241.5 262 L 240.5 264 Q 236.8 264.8 236 262.5 L 236 259.5 L 241.5 254 L 247 249.5 Q 247.6 242.8 246.5 241 Z " /><path fill="rgb(69,69,69)" stroke="rgb(69,69,69)" stroke-width="1" opacity="0.3764705882352941" d="M 261.5 241 L 267 245.5 L 271.5 251 L 273 251.5 L 271.5 252 L 262.5 242 L 261.5 241 Z " /><path fill="rgb(69,69,69)" stroke="rgb(69,69,69)" stroke-width="1" opacity="0.3764705882352941" d="M 273.5 241 L 277 241.5 L 273.5 242 L 273.5 241 Z " /><path fill="rgb(69,69,69)" stroke="rgb(69,69,69)" stroke-width="1" opacity="0.3764705882352941" d="M 64.5 242 L 66 242.5 L 64 243 L 64 245 Q 61.3 243.9 62 246.5 L 57 253.5 L 56 260.5 L 57 265.5 L 61 270.5 L 61 274 L 59 273.5 L 60 270.5 Q 54.2 266.8 55 256.5 Q 57.8 247.3 64.5 242 Z " /><path fill="rgb(69,69,69)" stroke="rgb(69,69,69)" stroke-width="1" opacity="0.3764705882352941" d="M 114.5 244 L 119 256.5 L 117 255.5 L 114.5 244 Z " /><path fill="rgb(69,69,69)" stroke="rgb(69,69,69)" stroke-width="1" opacity="0.3764705882352941" d="M 77.5 248 L 81 251.5 L 83 256.5 L 83 263.5 L 82 263.5 L 82 257.5 L 77.5 248 Z " /><path fill="rgb(69,69,69)" stroke="rgb(69,69,69)" stroke-width="1" opacity="0.3764705882352941" d="M 196.5 249 L 197 251.5 L 196 251.5 L 196.5 249 Z " /><path fill="rgb(69,69,69)" stroke="rgb(69,69,69)" stroke-width="1" opacity="0.3764705882352941" d="M 177.5 251 L 177 252.5 L 172.5 258 L 166.5 260 L 166.5 259 Q 173.1 258.1 176 253.5 L 177.5 251 Z " /><path fill="rgb(69,69,69)" stroke="rgb(69,69,69)" stroke-width="1" opacity="0.3764705882352941" d="M 255.5 251 L 258 252 L 257.5 254 L 255.5 251 Z " /><path fill="rgb(69,69,69)" stroke="rgb(69,69,69)" stroke-width="1" opacity="0.3764705882352941" d="M 74.5 254 Q 77.9 256.6 77 263.5 L 75 264.5 L 76 258.5 L 74.5 254 Z " /><path fill="rgb(69,69,69)" stroke="rgb(69,69,69)" stroke-width="1" opacity="0.3764705882352941" d="M 261.5 256 L 266 259.5 L 264.5 260 L 261.5 256 Z " /><path fill="rgb(69,69,69)" stroke="rgb(69,69,69)" stroke-width="1" opacity="0.3764705882352941" d="M 192 257 L 194 257.5 L 185.5 268 L 179.5 272 L 180.5 270 L 187 265.5 L 192 259.5 L 192 257 Z " /><path fill="rgb(69,69,69)" stroke="rgb(69,69,69)" stroke-width="1" opacity="0.3764705882352941" d="M 119.5 258 Q 124.2 268.8 133.5 275 L 147 281.5 L 144.5 282 Q 131.6 277.4 124 267.5 L 119 259.5 L 119.5 258 Z " /><path fill="rgb(69,69,69)" stroke="rgb(69,69,69)" stroke-width="1" opacity="0.3764705882352941" d="M 256.5 259 L 260.5 263 L 262.5 263 L 265 261.5 L 263.5 264 L 260.5 264 L 256.5 259 Z " /><path fill="rgb(69,69,69)" stroke="rgb(69,69,69)" stroke-width="1" opacity="0.3764705882352941" d="M 247.5 262 L 248 265.5 L 247 265.5 L 247.5 262 Z " /><path fill="rgb(69,69,69)" stroke="rgb(69,69,69)" stroke-width="1" opacity="0.3764705882352941" d="M 87.5 268 L 88 270 L 81.5 273 L 81.5 272 L 87.5 268 Z " /><path fill="rgb(69,69,69)" stroke="rgb(69,69,69)" stroke-width="1" opacity="0.3764705882352941" d="M 248.5 268 L 251 269.5 L 248 270 L 248.5 268 Z " /><path fill="rgb(69,69,69)" stroke="rgb(69,69,69)" stroke-width="1" opacity="0.3764705882352941" d="M 45.5 269 L 46.5 271 L 45.5 269 Z " /><path fill="rgb(69,69,69)" stroke="rgb(69,69,69)" stroke-width="1" opacity="0.3764705882352941" d="M 48.5 271 L 54 273.5 L 51.5 274 L 48.5 271 Z " /><path fill="rgb(69,69,69)" stroke="rgb(69,69,69)" stroke-width="1" opacity="0.3764705882352941" d="M 72.5 273 L 78 274.5 L 73.5 275 L 72.5 273 Z " /><path fill="rgb(69,69,69)" stroke="rgb(69,69,69)" stroke-width="1" opacity="0.3764705882352941" d="M 175.5 273 L 177 273.5 L 169.5 276 L 169.5 275 L 175.5 273 Z " /><path fill="rgb(69,69,69)" stroke="rgb(69,69,69)" stroke-width="1" opacity="0.3764705882352941" d="M 55.5 274 L 58 274.5 L 55.5 275 L 55.5 274 Z " /><path fill="rgb(69,69,69)" stroke="rgb(69,69,69)" stroke-width="1" opacity="0.3764705882352941" d="M 163.5 276 L 168 276.5 L 163.5 277 L 163.5 276 Z " /><path fill="rgb(69,69,69)" stroke="rgb(69,69,69)" stroke-width="1" opacity="0.3764705882352941" d="M 148.5 282 L 152 282.5 L 148.5 283 L 148.5 282 Z " /><path fill="rgb(69,69,69)" stroke="rgb(69,69,69)" stroke-width="1" opacity="0.3764705882352941" d="M 154.5 283 L 167 283.5 L 154.5 284 L 154.5 283 Z " /><path fill="rgb(85,85,85)" stroke="rgb(85,85,85)" stroke-width="1" opacity="0.35294117647058826" d="M 154.5 26 L 164 26.5 L 154.5 27 L 154.5 26 Z " /><path fill="rgb(85,85,85)" stroke="rgb(85,85,85)" stroke-width="1" opacity="0.35294117647058826" d="M 150.5 27 L 153 27.5 Q 142.7 29.7 137 36.5 L 132 43.5 L 131 48 L 129 47.5 L 134 38 Q 136.7 39.1 136 36.5 Q 141.3 29.8 150.5 27 Z " /><path fill="rgb(85,85,85)" stroke="rgb(85,85,85)" stroke-width="1" opacity="0.35294117647058826" d="M 166.5 27 Q 179.9 28.6 185 38.5 L 190 48.5 L 189 48.5 Q 185.9 38.6 178.5 33 Q 174.2 28.8 166.5 28 L 166.5 27 Z " /><path fill="rgb(85,85,85)" stroke="rgb(85,85,85)" stroke-width="1" opacity="0.35294117647058826" d="M 190.5 50 L 191 205.5 L 190 205.5 L 190.5 50 Z " /><path fill="rgb(85,85,85)" stroke="rgb(85,85,85)" stroke-width="1" opacity="0.35294117647058826" d="M 183.5 60 L 184 65.5 L 183 65.5 L 183.5 60 Z " /><path fill="rgb(85,85,85)" stroke="rgb(85,85,85)" stroke-width="1" opacity="0.35294117647058826" d="M 183.5 68 L 184 86.5 L 183 86.5 L 183.5 68 Z " /><path fill="rgb(85,85,85)" stroke="rgb(85,85,85)" stroke-width="1" opacity="0.35294117647058826" d="M 142.5 69 L 153 69.5 L 142.5 70 L 142.5 69 Z " /><path fill="rgb(85,85,85)" stroke="rgb(85,85,85)" stroke-width="1" opacity="0.35294117647058826" d="M 170.5 69 L 179.5 69 L 182 71.5 L 180.5 75 L 181 73.5 L 179.5 70 L 171.5 70 L 170 71.5 L 169.5 73 L 169 70.5 L 170.5 69 Z " /><path fill="rgb(85,85,85)" stroke="rgb(85,85,85)" stroke-width="1" opacity="0.35294117647058826" d="M 128.5 72 L 129 80.5 L 128 80.5 L 128.5 72 Z " /><path fill="rgb(85,85,85)" stroke="rgb(85,85,85)" stroke-width="1" opacity="0.35294117647058826" d="M 135.5 73 L 136 81.5 L 135 81.5 L 135.5 73 Z " /><path fill="rgb(85,85,85)" stroke="rgb(85,85,85)" stroke-width="1" opacity="0.35294117647058826" d="M 135.5 84 L 136 88.5 L 135 88.5 L 135.5 84 Z " /><path fill="rgb(85,85,85)" stroke="rgb(85,85,85)" stroke-width="1" opacity="0.35294117647058826" d="M 144.5 91 L 152 91.5 L 144.5 92 L 144.5 91 Z " /><path fill="rgb(85,85,85)" stroke="rgb(85,85,85)" stroke-width="1" opacity="0.35294117647058826" d="M 171.5 91 L 169 94.5 L 168.5 96 L 168 94.5 L 169 92 L 171.5 91 Z " /><path fill="rgb(85,85,85)" stroke="rgb(85,85,85)" stroke-width="1" opacity="0.35294117647058826" d="M 173.5 91 L 181 92 L 180.5 97 L 180 93 L 173.5 92 L 173.5 91 Z " /><path fill="rgb(85,85,85)" stroke="rgb(85,85,85)" stroke-width="1" opacity="0.35294117647058826" d="M 175.5 98 L 178 98.5 L 175.5 99 L 175.5 98 Z " /><path fill="rgb(85,85,85)" stroke="rgb(85,85,85)" stroke-width="1" opacity="0.35294117647058826" d="M 135.5 103 L 136 112.5 L 135 112.5 L 135.5 103 Z " /><path fill="rgb(85,85,85)" stroke="rgb(85,85,85)" stroke-width="1" opacity="0.35294117647058826" d="M 183.5 108 L 184 130.5 L 183 130.5 L 183.5 108 Z " /><path fill="rgb(85,85,85)" stroke="rgb(85,85,85)" stroke-width="1" opacity="0.35294117647058826" d="M 177.5 113 Q 179.8 112.3 179 114.5 L 177.5 113 Z " /><path fill="rgb(85,85,85)" stroke="rgb(85,85,85)" stroke-width="1" opacity="0.35294117647058826" d="M 135.5 114 L 136 116.5 L 135 116.5 L 135.5 114 Z " /><path fill="rgb(85,85,85)" stroke="rgb(85,85,85)" stroke-width="1" opacity="0.35294117647058826" d="M 170.5 114 L 169.5 116 L 170.5 114 Z " /><path fill="rgb(85,85,85)" stroke="rgb(85,85,85)" stroke-width="1" opacity="0.35294117647058826" d="M 135.5 118 L 136 129.5 L 135 129.5 L 135.5 118 Z " /><path fill="rgb(85,85,85)" stroke="rgb(85,85,85)" stroke-width="1" opacity="0.35294117647058826" d="M 144.5 134 Q 151.8 132.8 154 136.5 Q 156.1 142.3 151.5 141 L 150 141.5 L 153 140 L 153 136 L 151.5 136 Q 150 133.5 144.5 135 L 144.5 134 Z " /><path fill="rgb(85,85,85)" stroke="rgb(85,85,85)" stroke-width="1" opacity="0.35294117647058826" d="M 170.5 135 L 179.5 135 L 181 136.5 L 182 140 Q 178.3 141.2 180 136 L 170.5 136 L 169 136.5 L 170.5 135 Z " /><path fill="rgb(85,85,85)" stroke="rgb(85,85,85)" stroke-width="1" opacity="0.35294117647058826" d="M 139.5 137 L 140 139.5 L 139 139.5 L 139.5 137 Z " /><path fill="rgb(85,85,85)" stroke="rgb(85,85,85)" stroke-width="1" opacity="0.35294117647058826" d="M 144.5 141 L 149 141.5 L 144.5 142 L 144.5 141 Z " /><path fill="rgb(85,85,85)" stroke="rgb(85,85,85)" stroke-width="1" opacity="0.35294117647058826" d="M 183.5 142 L 184 169.5 L 183 169.5 L 183.5 142 Z " /><path fill="rgb(85,85,85)" stroke="rgb(85,85,85)" stroke-width="1" opacity="0.35294117647058826" d="M 135.5 150 L 136 168.5 L 135 168.5 L 135.5 150 Z " /><path fill="rgb(85,85,85)" stroke="rgb(85,85,85)" stroke-width="1" opacity="0.35294117647058826" d="M 159.5 150 L 158.5 152 L 157 151.5 L 159.5 150 Z " /><path fill="rgb(85,85,85)" stroke="rgb(85,85,85)" stroke-width="1" opacity="0.35294117647058826" d="M 128.5 154 L 129 156.5 L 128 156.5 L 128.5 154 Z " /><path fill="rgb(85,85,85)" stroke="rgb(85,85,85)" stroke-width="1" opacity="0.35294117647058826" d="M 150.5 155 L 151 157 L 144 156.5 L 150.5 155 Z " /><path fill="rgb(85,85,85)" stroke="rgb(85,85,85)" stroke-width="1" opacity="0.35294117647058826" d="M 169.5 157 L 173 157.5 L 169.5 158 L 169.5 157 Z " /><path fill="rgb(85,85,85)" stroke="rgb(85,85,85)" stroke-width="1" opacity="0.35294117647058826" d="M 176.5 158 L 181 158.5 L 176.5 159 L 176.5 158 Z " /><path fill="rgb(85,85,85)" stroke="rgb(85,85,85)" stroke-width="1" opacity="0.35294117647058826" d="M 139.5 159 L 140 161.5 L 139 161.5 L 139.5 159 Z " /><path fill="rgb(85,85,85)" stroke="rgb(85,85,85)" stroke-width="1" opacity="0.35294117647058826" d="M 180.5 160 L 181 162.5 L 180 162.5 L 180.5 160 Z " /><path fill="rgb(85,85,85)" stroke="rgb(85,85,85)" stroke-width="1" opacity="0.35294117647058826" d="M 173.5 164 L 177 164.5 L 173.5 165 L 173.5 164 Z " /><path fill="rgb(85,85,85)" stroke="rgb(85,85,85)" stroke-width="1" opacity="0.35294117647058826" d="M 135.5 181 L 136 193.5 L 135 193.5 L 135.5 181 Z " /><path fill="rgb(85,85,85)" stroke="rgb(85,85,85)" stroke-width="1" opacity="0.35294117647058826" d="M 183.5 189 L 184 197.5 L 183 197.5 L 183.5 189 Z " /><path fill="rgb(85,85,85)" stroke="rgb(85,85,85)" stroke-width="1" opacity="0.35294117647058826" d="M 135.5 195 L 136 198.5 L 135 198.5 L 135.5 195 Z " /><path fill="rgb(85,85,85)" stroke="rgb(85,85,85)" stroke-width="1" opacity="0.35294117647058826" d="M 72.5 199 L 73.5 201 L 72.5 199 Z " /><path fill="rgb(85,85,85)" stroke="rgb(85,85,85)" stroke-width="1" opacity="0.35294117647058826" d="M 183.5 199 L 184 206.5 L 183 206.5 L 183.5 199 Z " /><path fill="rgb(85,85,85)" stroke="rgb(85,85,85)" stroke-width="1" opacity="0.35294117647058826" d="M 135.5 203 L 136 206.5 L 134 207.5 L 135.5 203 Z " /><path fill="rgb(85,85,85)" stroke="rgb(85,85,85)" stroke-width="1" opacity="0.35294117647058826" d="M 253.5 209 Q 252.7 214.8 256 216.5 Q 254.5 219.5 253 216.5 L 253.5 209 Z " /><path fill="rgb(85,85,85)" stroke="rgb(85,85,85)" stroke-width="1" opacity="0.35294117647058826" d="M 241.5 212 L 247 216.5 L 246.5 218 L 241.5 212 Z " /><path fill="rgb(85,85,85)" stroke="rgb(85,85,85)" stroke-width="1" opacity="0.35294117647058826" d="M 55.5 216 L 56 217.5 L 52.5 223 L 52 221.5 L 55.5 216 Z " /><path fill="rgb(85,85,85)" stroke="rgb(85,85,85)" stroke-width="1" opacity="0.35294117647058826" d="M 41.5 217 L 42 218.5 L 36.5 230 L 36 228.5 L 41.5 217 Z " /><path fill="rgb(85,85,85)" stroke="rgb(85,85,85)" stroke-width="1" opacity="0.35294117647058826" d="M 263.5 217 L 265 217.5 L 262 219 Q 263.1 221.7 260.5 221 L 255 226.5 L 255 234 L 261.5 234 L 262.5 233 L 263 235 L 254 235 L 254 228.5 L 253 226.5 L 263.5 217 Z " /><path fill="rgb(85,85,85)" stroke="rgb(85,85,85)" stroke-width="1" opacity="0.35294117647058826" d="M 201.5 219 L 204 227.5 L 203 227.5 L 201.5 219 Z " /><path fill="rgb(85,85,85)" stroke="rgb(85,85,85)" stroke-width="1" opacity="0.35294117647058826" d="M 87.5 221 L 86.5 223 L 87.5 221 Z " /><path fill="rgb(85,85,85)" stroke="rgb(85,85,85)" stroke-width="1" opacity="0.35294117647058826" d="M 45.5 226 L 47 228.5 L 46 228.5 L 45.5 227 L 44 227.5 L 45.5 226 Z " /><path fill="rgb(85,85,85)" stroke="rgb(85,85,85)" stroke-width="1" opacity="0.35294117647058826" d="M 234.5 227 L 235.5 229 L 234.5 227 Z " /><path fill="rgb(85,85,85)" stroke="rgb(85,85,85)" stroke-width="1" opacity="0.35294117647058826" d="M 275.5 228 L 273 231.5 L 272 233.5 L 274 234.5 L 270.5 235 L 271 233.5 L 275.5 228 Z " /><path fill="rgb(85,85,85)" stroke="rgb(85,85,85)" stroke-width="1" opacity="0.35294117647058826" d="M 204.5 229 L 206 234.5 L 206 242.5 L 203.5 251 L 203 248.5 Q 206 243.5 205 234.5 Q 202.6 233.2 204.5 229 Z " /><path fill="rgb(85,85,85)" stroke="rgb(85,85,85)" stroke-width="1" opacity="0.35294117647058826" d="M 236.5 230 L 240.5 235 L 237 232.5 L 236.5 230 Z " /><path fill="rgb(85,85,85)" stroke="rgb(85,85,85)" stroke-width="1" opacity="0.35294117647058826" d="M 114.5 232 Q 116.8 231.3 116 233.5 L 114.5 236 L 114 234.5 L 114.5 232 Z " /><path fill="rgb(85,85,85)" stroke="rgb(85,85,85)" stroke-width="1" opacity="0.35294117647058826" d="M 246.5 233 L 245.5 235 L 244 234.5 L 246.5 233 Z " /><path fill="rgb(85,85,85)" stroke="rgb(85,85,85)" stroke-width="1" opacity="0.35294117647058826" d="M 34.5 234 L 35 236.5 L 34 237.5 L 34 251.5 L 35 253.5 L 34 253.5 L 33 251.5 L 33 237.5 L 34.5 234 Z " /><path fill="rgb(85,85,85)" stroke="rgb(85,85,85)" stroke-width="1" opacity="0.35294117647058826" d="M 225.5 234 L 228 234.5 L 225.5 235 L 225.5 234 Z " /><path fill="rgb(85,85,85)" stroke="rgb(85,85,85)" stroke-width="1" opacity="0.35294117647058826" d="M 276.5 234 L 279 234.5 L 276.5 235 L 276.5 234 Z " /><path fill="rgb(85,85,85)" stroke="rgb(85,85,85)" stroke-width="1" opacity="0.35294117647058826" d="M 61 235 L 63 235.5 L 56 241.5 L 59 237 Q 62 238 61 235 Z " /><path fill="rgb(85,85,85)" stroke="rgb(85,85,85)" stroke-width="1" opacity="0.35294117647058826" d="M 114.5 237 L 115 239.5 L 114 239.5 L 114.5 237 Z " /><path fill="rgb(85,85,85)" stroke="rgb(85,85,85)" stroke-width="1" opacity="0.35294117647058826" d="M 227.5 240 L 231 240.5 L 227.5 241 L 227.5 240 Z " /><path fill="rgb(85,85,85)" stroke="rgb(85,85,85)" stroke-width="1" opacity="0.35294117647058826" d="M 278.5 240 L 277.5 242 L 278.5 240 Z " /><path fill="rgb(85,85,85)" stroke="rgb(85,85,85)" stroke-width="1" opacity="0.35294117647058826" d="M 238 241 L 244 241.5 Q 237.6 241.1 236 245.5 L 232.5 250 L 232 248.5 L 238 241 Z " /><path fill="rgb(85,85,85)" stroke="rgb(85,85,85)" stroke-width="1" opacity="0.35294117647058826" d="M 254 241 L 256 241.5 L 255 242.5 L 254.5 251 L 254 241 Z " /><path fill="rgb(85,85,85)" stroke="rgb(85,85,85)" stroke-width="1" opacity="0.35294117647058826" d="M 258.5 241 L 261 241.5 L 258.5 242 L 258.5 241 Z " /><path fill="rgb(85,85,85)" stroke="rgb(85,85,85)" stroke-width="1" opacity="0.35294117647058826" d="M 270.5 241 L 273 241.5 L 272 242.5 L 276 246.5 L 277 248.5 L 275.5 251 L 275 249.5 L 275 247.5 L 270.5 241 Z " /><path fill="rgb(85,85,85)" stroke="rgb(85,85,85)" stroke-width="1" opacity="0.35294117647058826" d="M 55.5 243 L 55 244.5 L 54.5 246 L 54 244.5 L 55.5 243 Z " /><path fill="rgb(85,85,85)" stroke="rgb(85,85,85)" stroke-width="1" opacity="0.35294117647058826" d="M 66.5 243 L 75 253.5 L 69 248.5 L 67 245.5 L 66.5 243 Z " /><path fill="rgb(85,85,85)" stroke="rgb(85,85,85)" stroke-width="1" opacity="0.35294117647058826" d="M 77.5 247 L 79.5 250 L 77.5 247 Z " /><path fill="rgb(85,85,85)" stroke="rgb(85,85,85)" stroke-width="1" opacity="0.35294117647058826" d="M 92 248 L 94 248.5 Q 92.2 258.2 85.5 263 L 89 258.5 L 92 248 Z " /><path fill="rgb(85,85,85)" stroke="rgb(85,85,85)" stroke-width="1" opacity="0.35294117647058826" d="M 51 249 L 53 249.5 Q 50 252 50.5 258 L 50 252.5 L 51 249 Z " /><path fill="rgb(85,85,85)" stroke="rgb(85,85,85)" stroke-width="1" opacity="0.35294117647058826" d="M 195.5 251 L 196 253.5 L 193.5 257 L 194 255.5 L 195.5 251 Z " /><path fill="rgb(85,85,85)" stroke="rgb(85,85,85)" stroke-width="1" opacity="0.35294117647058826" d="M 202 252 L 204 252.5 L 200.5 259 L 200 257.5 L 202 252 Z " /><path fill="rgb(85,85,85)" stroke="rgb(85,85,85)" stroke-width="1" opacity="0.35294117647058826" d="M 258.5 253 L 260.5 256 L 258 255 L 258.5 253 Z " /><path fill="rgb(85,85,85)" stroke="rgb(85,85,85)" stroke-width="1" opacity="0.35294117647058826" d="M 34.5 255 Q 37.1 254.2 36 257.5 L 36.5 259 L 34.5 255 Z " /><path fill="rgb(85,85,85)" stroke="rgb(85,85,85)" stroke-width="1" opacity="0.35294117647058826" d="M 117.5 256 L 118.5 258 L 117.5 256 Z " /><path fill="rgb(85,85,85)" stroke="rgb(85,85,85)" stroke-width="1" opacity="0.35294117647058826" d="M 262.5 256 L 263.5 258 L 262.5 256 Z " /><path fill="rgb(85,85,85)" stroke="rgb(85,85,85)" stroke-width="1" opacity="0.35294117647058826" d="M 254.5 258 L 256.5 261 L 254 260 L 254 268.5 L 252.5 269 L 251 269.5 L 253 267.5 L 253 259.5 L 254.5 258 Z " /><path fill="rgb(85,85,85)" stroke="rgb(85,85,85)" stroke-width="1" opacity="0.35294117647058826" d="M 245.5 259 L 248 260.5 L 247.5 262 L 247 260 L 242.5 263 L 242 261 L 245.5 259 Z " /><path fill="rgb(85,85,85)" stroke="rgb(85,85,85)" stroke-width="1" opacity="0.35294117647058826" d="M 36.5 260 Q 38.8 259.3 38 261.5 L 43.5 268 Q 45.8 267.3 45 269.5 L 38 263.5 L 36.5 260 Z " /><path fill="rgb(85,85,85)" stroke="rgb(85,85,85)" stroke-width="1" opacity="0.35294117647058826" d="M 50.5 261 L 51 264.5 L 50 264.5 L 50.5 261 Z " /><path fill="rgb(85,85,85)" stroke="rgb(85,85,85)" stroke-width="1" opacity="0.35294117647058826" d="M 196.5 264 L 196 265.5 L 193.5 269 L 194 267.5 L 196.5 264 Z " /><path fill="rgb(85,85,85)" stroke="rgb(85,85,85)" stroke-width="1" opacity="0.35294117647058826" d="M 75.5 265 L 76 266.5 L 72 273.5 L 72.5 275 L 71 271.5 L 75.5 265 Z " /><path fill="rgb(85,85,85)" stroke="rgb(85,85,85)" stroke-width="1" opacity="0.35294117647058826" d="M 186.5 265 L 185.5 267 L 186.5 265 Z " /><path fill="rgb(85,85,85)" stroke="rgb(85,85,85)" stroke-width="1" opacity="0.35294117647058826" d="M 89.5 267 L 88.5 269 L 89.5 267 Z " /><path fill="rgb(85,85,85)" stroke="rgb(85,85,85)" stroke-width="1" opacity="0.35294117647058826" d="M 191.5 270 L 188.5 274 L 180.5 279 L 181.5 277 L 191.5 270 Z " /><path fill="rgb(85,85,85)" stroke="rgb(85,85,85)" stroke-width="1" opacity="0.35294117647058826" d="M 178.5 271 L 179 273 L 177 272.5 L 178.5 271 Z " /><path fill="rgb(85,85,85)" stroke="rgb(85,85,85)" stroke-width="1" opacity="0.35294117647058826" d="M 178.5 279 L 177.5 281 L 176 280.5 L 178.5 279 Z " /><path fill="rgb(85,85,85)" stroke="rgb(85,85,85)" stroke-width="1" opacity="0.35294117647058826" d="M 173.5 281 L 172.5 283 L 173.5 281 Z " /></svg>