<?xml version="1.0" standalone="no"?>
<!DOCTYPE svg PUBLIC "-//W3C//DTD SVG 20010904//EN"
 "http://www.w3.org/TR/2001/REC-SVG-20010904/DTD/svg10.dtd">
<svg version="1.0" xmlns="http://www.w3.org/2000/svg"
 width="1024.000000pt" height="1024.000000pt" viewBox="0 0 1024.000000 1024.000000"
 preserveAspectRatio="xMidYMid meet">

<g transform="translate(0.000000,1024.000000) scale(0.100000,-0.100000)"
fill="#000000" stroke="none">
<path d="M4029 7663 c-15 -2 -51 -19 -80 -36 -65 -39 -113 -106 -128 -180 -8
-36 -11 -594 -9 -1877 l3 -1825 21 -45 c43 -91 128 -148 237 -159 l59 -6 3
-53 c4 -61 25 -99 61 -112 42 -16 320 -13 353 4 35 19 51 55 51 116 l0 50 520
0 520 0 0 -61 c0 -54 3 -64 29 -90 l29 -29 171 0 c165 0 171 1 198 24 24 21
29 34 33 88 l5 63 65 6 c36 3 83 15 105 26 52 27 109 87 132 138 17 38 18 133
21 1874 3 2027 7 1894 -61 1982 -17 23 -57 56 -87 73 l-55 31 -1085 1 c-597 1
-1097 -1 -1111 -3z m2201 -125 c31 -16 51 -36 67 -67 l23 -44 0 -1819 c0
-1619 -2 -1823 -15 -1856 -21 -49 -51 -79 -91 -92 -23 -8 -364 -12 -1101 -13
-964 -1 -1071 0 -1098 15 -39 21 -71 56 -84 91 -8 20 -11 584 -11 1851 l0
1823 23 43 c16 30 37 51 67 67 l43 23 1066 0 1067 0 44 -22z m-1740 -4033 l0
-35 -125 0 -125 0 0 35 0 35 125 0 125 0 0 -35z m1510 0 l0 -35 -125 0 -125 0
0 35 0 35 125 0 125 0 0 -35z"/>
<path d="M4986 7194 c-180 -44 -335 -183 -398 -360 -29 -82 -35 -218 -14 -308
70 -296 362 -484 656 -422 197 42 355 178 422 367 32 92 32 266 -1 359 -80
227 -297 382 -531 379 -41 0 -102 -7 -134 -15z m273 -113 c120 -37 215 -119
271 -235 106 -219 20 -480 -195 -593 -279 -146 -614 20 -666 329 -28 170 63
370 209 455 107 63 262 81 381 44z"/>
<path d="M5017 7025 c-50 -17 -84 -49 -97 -92 -14 -41 -6 -84 28 -145 20 -36
24 -50 15 -59 -8 -8 -26 -2 -70 25 -70 43 -110 46 -144 10 -32 -34 -40 -153
-14 -219 39 -104 121 -131 231 -75 32 16 62 30 67 30 13 0 7 -20 -19 -61 -31
-50 -40 -98 -24 -128 37 -70 220 -67 296 4 29 28 34 39 34 80 0 30 -10 69 -27
107 -35 78 -23 88 47 43 32 -20 68 -35 86 -35 104 -1 128 208 34 303 -34 34
-43 37 -91 37 -36 0 -71 -8 -106 -25 -31 -14 -55 -20 -59 -14 -3 5 8 31 25 58
47 73 50 104 13 141 -29 28 -35 30 -109 30 -43 -1 -95 -7 -116 -15z m133 -90
c0 -3 -14 -30 -31 -60 -36 -63 -60 -71 -84 -25 -21 41 -19 65 8 78 22 11 107
16 107 7z m266 -251 c12 -62 2 -67 -65 -27 -74 44 -79 65 -18 86 39 14 43 14
59 -5 10 -11 20 -35 24 -54z m-252 25 c33 -26 36 -79 6 -109 -30 -30 -83 -27
-109 6 -24 30 -26 43 -10 78 21 46 72 57 113 25z m-214 -106 c13 -12 12 -16
-10 -33 -70 -53 -120 -28 -120 61 l0 49 58 -31 c31 -18 64 -38 72 -46z m256
-147 c34 -53 -2 -96 -79 -96 l-38 0 33 60 c36 66 58 75 84 36z"/>
<path d="M4196 4888 c-14 -19 -16 -76 -16 -413 0 -337 2 -394 16 -413 l15 -22
909 0 909 0 15 22 c14 19 16 76 16 413 0 337 -2 394 -16 413 l-15 22 -909 0
-909 0 -15 -22z m1754 -418 l0 -330 -830 0 -830 0 0 330 0 330 830 0 830 0 0
-330z"/>
<path d="M4380 4655 l0 -55 245 0 245 0 0 55 0 55 -245 0 -245 0 0 -55z"/>
<path d="M5220 4655 l0 -55 320 0 320 0 0 55 0 55 -320 0 -320 0 0 -55z"/>
<path d="M4456 3299 c-60 -47 -89 -157 -63 -240 8 -26 36 -77 63 -115 43 -61
49 -75 49 -120 0 -43 -5 -56 -32 -88 -37 -41 -40 -61 -17 -94 39 -56 129 9
160 116 25 83 10 145 -58 242 -47 66 -53 81 -53 125 0 37 6 58 23 79 29 37 29
80 0 100 -29 21 -40 20 -72 -5z"/>
<path d="M5058 3300 c-29 -22 -62 -88 -72 -142 -9 -48 8 -120 39 -166 82 -121
85 -126 85 -168 0 -32 -8 -51 -35 -85 -19 -24 -35 -52 -35 -61 0 -25 36 -58
63 -58 52 0 126 117 127 201 0 64 -15 102 -77 192 -63 92 -66 117 -23 192 24
43 28 58 21 78 -16 41 -54 48 -93 17z"/>
<path d="M5640 3307 c-13 -7 -37 -36 -52 -66 -52 -100 -36 -197 57 -325 26
-36 35 -58 35 -88 0 -37 -26 -98 -41 -98 -4 0 -12 -13 -19 -30 -28 -66 52
-109 105 -56 58 58 87 164 66 243 -6 23 -34 75 -61 115 -43 63 -50 80 -50 122
0 37 6 57 25 82 30 39 32 67 5 94 -23 23 -36 24 -70 7z"/>
</g>
</svg>
