<svg width="500" height="500" version="1.1" xmlns="http://www.w3.org/2000/svg" desc="Created with imagetracer.js version 1.2.6" ><path fill="rgb(97,105,106)" stroke="rgb(97,105,106)" stroke-width="1" opacity="0.7490196078431373" d="M 93.5 112 Q 104.7 112.3 108.5 120 L 120 120 L 121 114 Q 126.5 112.8 128 116.5 L 128 121 L 137 121 Q 135.8 115.5 139.5 114 L 144 115 L 144 121 L 155.5 121 L 157.5 121 L 160.5 120 L 161.5 121 L 185.5 121 L 187.5 120 L 188.5 121 L 197 121 Q 195.8 116.4 198.5 115 L 201.5 114 L 205 116.5 Q 204.5 121 205.5 121 L 248.5 121 L 250.5 121 L 280.5 121 L 281.5 120 L 282.5 121 L 294 121 L 296 114 Q 301.4 112.5 303 115.5 L 304.5 121 L 307.5 120 L 308.5 121 L 356 121 L 356 115.5 L 357.5 115 L 360.5 114 Q 364.3 115.5 363 121 L 372 120.5 L 372 118.5 L 373 114 L 375.5 113 L 380 115.5 Q 379.3 119.3 381.5 120 L 389.5 120 L 390.5 121 L 394 119 L 395 115 L 399.5 113 L 406.5 112 Q 413.1 112.9 416 117.5 L 419 125.5 L 418 130.5 L 412.5 137 Q 409.2 140.2 401.5 139 L 395 134.5 L 392.5 131 L 379 131 Q 377.3 135.5 382.5 134 L 385 136.5 L 385 388.5 Q 382.2 392.7 373.5 391 L 365.5 388 L 360.5 388 L 352.5 392 L 342.5 392 L 336.5 389 L 331.5 392 L 319.5 392 Q 316 387.5 306.5 389 L 299.5 392 L 287.5 392 L 277.5 389 Q 274.2 391.7 267.5 391 L 262.5 390 L 259 386.5 L 259 134.5 L 259.5 134 L 271.5 134 Q 276 137.5 283.5 138 L 295 135 L 294.5 131 L 206.5 131 L 205 134 L 219.5 138 Q 227.7 133.5 240 134 L 241 136.5 L 241 387.5 Q 236.9 392.4 226.5 391 L 225.5 390 L 215.5 390 L 212.5 392 L 200.5 392 L 197.5 390 L 187.5 388 L 177.5 393 L 172.5 392 L 170.5 392 L 163.5 389 L 156.5 393 L 155.5 392 L 147.5 392 L 139.5 388 L 135.5 388 L 127.5 391 L 120.5 391 L 115 390 L 115 136.5 L 117.5 134 Q 122.8 135.5 121 131 L 107.5 131 L 105 134.5 Q 101.9 140.4 91.5 139 L 83 132.5 L 81 125.5 L 84 117.5 L 86.5 115 L 93.5 112 Z M 94 120 L 90 124 L 91 130 L 95 131 Q 99 132 100 129 L 99 123 Q 98 119 94 120 Z M 404 120 Q 399 121 400 129 Q 401 132 407 131 Q 411 129 410 122 L 407 120 L 404 120 Z M 132 131 L 131 132 Q 128 131 129 134 Q 134 135 137 133 L 132 131 Z M 146 131 L 144 133 L 144 140 L 148 141 L 150 140 L 154 134 L 166 136 L 176 136 L 177 135 Q 188 133 191 139 Q 190 141 195 140 Q 196 142 197 140 L 196 135 L 196 131 L 146 131 Z M 303 131 L 303 141 L 308 141 Q 312 139 312 134 L 326 135 L 328 135 L 336 135 L 337 134 Q 344 133 347 136 L 349 140 L 356 141 L 356 132 L 356 131 L 303 131 Z M 363 131 L 363 134 L 367 135 L 372 134 L 372 131 L 363 131 Z M 123 142 L 123 382 L 125 383 L 131 382 L 130 380 L 130 269 L 131 267 L 134 265 L 136 265 L 138 266 L 138 380 L 152 385 L 163 381 Q 168 381 170 384 L 178 384 L 179 383 L 179 231 L 185 230 L 187 233 Q 186 238 188 240 L 187 242 L 187 282 L 188 283 L 188 311 L 187 312 L 187 375 L 188 376 L 187 379 L 188 381 L 195 381 L 207 385 L 217 382 Q 219 383 218 380 L 227 383 Q 233 384 233 383 L 233 142 L 222 145 L 215 145 L 208 143 L 206 143 L 201 148 L 197 149 L 192 148 L 188 148 L 186 144 L 184 144 L 184 142 L 175 144 L 165 143 L 163 143 L 159 142 L 157 145 L 151 149 Q 142 150 140 146 Q 137 147 138 144 L 135 143 Q 128 141 127 144 Q 124 145 125 142 L 123 142 Z M 294 142 L 286 145 L 279 145 L 269 143 L 267 145 L 267 383 Q 276 384 282 380 L 289 384 L 300 384 L 309 380 L 312 380 L 313 379 L 313 234 L 316 230 L 321 231 L 321 384 L 323 385 L 329 385 L 335 382 L 340 382 L 347 385 L 361 380 L 362 380 L 362 267 Q 363 264 368 265 L 370 269 L 370 382 L 376 384 L 377 382 L 377 142 L 375 143 L 363 142 L 362 146 L 356 149 Q 348 150 346 146 Q 343 147 344 144 L 342 143 Q 337 142 336 144 L 319 143 L 317 143 L 314 147 L 308 149 L 300 148 L 297 146 Q 298 143 295 144 L 295 142 L 294 142 Z " /><path fill="rgb(97,105,106)" stroke="rgb(97,105,106)" stroke-width="1" opacity="0.7490196078431373" d="M 210.5 151 L 215 155.5 L 215 358.5 L 214 362 Q 208.6 363.5 207 360.5 L 207 157.5 L 206 155.5 L 208.5 152 L 210.5 151 Z " /><path fill="rgb(97,105,106)" stroke="rgb(97,105,106)" stroke-width="1" opacity="0.7490196078431373" d="M 289.5 152 L 293 153 L 293 360.5 L 291.5 361 L 288.5 362 L 286 361 L 285 358.5 L 285 290.5 Q 287.7 288.8 286 282.5 L 286 280.5 L 285 271.5 L 286 270.5 L 286 250.5 L 286 248.5 L 285 231.5 L 286 230.5 L 286 221.5 L 285 219.5 Q 287.7 217.7 286 211.5 Q 283.8 210.3 285 205.5 L 286 204.5 L 286 188.5 L 285 183.5 L 286 180.5 Q 283.5 179 285 173.5 L 286 172.5 L 286 158.5 L 285 156.5 L 287.5 153 L 289.5 152 Z " /><path fill="rgb(97,105,106)" stroke="rgb(97,105,106)" stroke-width="1" opacity="0.7490196078431373" d="M 155.5 161 Q 159.9 159.5 159 162.5 L 160 163.5 L 160 358.5 Q 159.5 361.5 155.5 361 L 153 360 L 152 357.5 L 153 356.5 L 153 313.5 L 153 311.5 L 153 282.5 L 152 280.5 L 153 279.5 L 153 251.5 L 153 249.5 L 153 219.5 L 152 217.5 L 153 216.5 L 153 188.5 L 153 186.5 L 153 163.5 L 155.5 161 Z " /><path fill="rgb(97,105,106)" stroke="rgb(97,105,106)" stroke-width="1" opacity="0.7490196078431373" d="M 343.5 161 L 347 162 Q 348.7 166.5 348 174.5 L 347 175.5 L 347 185.5 L 348 187.5 L 347 188.5 L 347 217.5 L 348 219.5 L 347 220.5 L 347 359.5 L 345.5 361 Q 340.8 361.8 340 358.5 L 340 164.5 L 341 162 L 343.5 161 Z " /><path fill="rgb(0,0,0)" stroke="rgb(0,0,0)" stroke-width="1" opacity="0" d="M 0 0 L 500 0 L 500 500 L 0 500 L 0 0 Z M 94 112 L 87 115 L 84 118 L 81 126 L 83 133 L 92 139 Q 102 140 105 135 L 108 131 L 121 131 Q 123 136 118 134 L 115 137 L 115 390 L 121 391 L 128 391 L 136 388 L 140 388 L 148 392 L 156 392 L 157 393 L 164 389 L 171 392 L 173 392 L 178 393 L 188 388 L 198 390 L 201 392 L 213 392 L 216 390 L 226 390 L 227 391 Q 237 392 241 388 L 241 137 L 240 134 Q 228 133 220 138 L 205 134 L 207 131 L 295 131 L 295 135 L 284 138 Q 276 138 272 134 L 260 134 L 259 135 L 259 387 L 263 390 L 268 391 Q 274 392 278 389 L 288 392 L 300 392 L 307 389 Q 316 388 320 392 L 332 392 L 337 389 L 343 392 L 353 392 L 361 388 L 366 388 L 374 391 Q 382 393 385 389 L 385 137 L 383 134 Q 377 136 379 131 L 393 131 L 395 135 L 402 139 Q 409 140 413 137 L 418 131 L 419 126 L 416 118 Q 413 113 407 112 L 400 113 L 395 115 L 394 119 L 391 121 L 390 120 L 382 120 Q 379 119 380 116 L 376 113 L 373 114 L 372 119 L 372 121 L 363 121 Q 364 116 361 114 L 358 115 L 356 116 L 356 121 L 309 121 L 308 120 L 305 121 L 303 116 Q 301 112 296 114 L 294 121 L 283 121 L 282 120 L 281 121 L 251 121 L 249 121 L 206 121 Q 204 121 205 117 L 202 114 L 199 115 Q 196 116 197 121 L 189 121 L 188 120 L 186 121 L 162 121 L 161 120 L 158 121 L 156 121 L 144 121 L 144 115 L 140 114 Q 136 116 137 121 L 128 121 L 128 117 Q 127 113 121 114 L 120 120 L 109 120 Q 105 112 94 112 Z " /><path fill="rgb(0,0,0)" stroke="rgb(0,0,0)" stroke-width="1" opacity="0" d="M 93.5 120 Q 98.3 119.3 99 122.5 L 100 128.5 Q 99.3 131.8 94.5 131 L 91 130 L 90 123.5 L 93.5 120 Z " /><path fill="rgb(0,0,0)" stroke="rgb(0,0,0)" stroke-width="1" opacity="0" d="M 403.5 120 L 406.5 120 L 410 122 Q 411.1 128.7 406.5 131 Q 401 132 400 128.5 Q 398.8 121.3 403.5 120 Z " /><path fill="rgb(0,0,0)" stroke="rgb(0,0,0)" stroke-width="1" opacity="0" d="M 131.5 131 L 137 132.5 Q 134.5 135.1 129 134 Q 127.9 131.3 130.5 132 L 131.5 131 Z " /><path fill="rgb(0,0,0)" stroke="rgb(0,0,0)" stroke-width="1" opacity="0" d="M 145.5 131 L 195.5 131 L 196 134.5 L 197 139.5 Q 195.8 142.3 194.5 140 Q 190.1 141.5 191 138.5 Q 187.7 132.8 176.5 135 L 175.5 136 L 165.5 136 L 154 134 L 149.5 140 L 147.5 141 L 144 140 L 144 132.5 L 145.5 131 Z " /><path fill="rgb(0,0,0)" stroke="rgb(0,0,0)" stroke-width="1" opacity="0" d="M 303 131 L 355.5 131 L 356 131.5 L 356 141 L 349 140 L 346.5 136 Q 343.9 132.6 336.5 134 L 335.5 135 L 327.5 135 L 325.5 135 L 312 134 Q 311.6 138.7 307.5 141 L 303 141 L 303 131 Z " /><path fill="rgb(0,0,0)" stroke="rgb(0,0,0)" stroke-width="1" opacity="0" d="M 363 131 L 372 131 L 372 134 L 366.5 135 L 363 134 L 363 131 Z " /><path fill="rgb(0,0,0)" stroke="rgb(0,0,0)" stroke-width="1" opacity="0" d="M 123 142 L 125 142 Q 123.9 144.7 126.5 144 Q 128.3 141.3 134.5 143 L 138 144 Q 136.9 146.7 139.5 146 Q 142.4 150.1 150.5 149 L 157 144.5 L 158.5 142 L 162.5 143 L 164.5 143 L 174.5 144 L 184 142 L 184 144 L 186 144 L 188 148 L 191.5 148 L 196.5 149 L 200.5 148 L 205.5 143 L 207.5 143 L 214.5 145 L 221.5 145 L 233 142 L 233 382.5 Q 232.8 383.8 226.5 383 L 218 380 Q 219.1 382.7 216.5 382 L 206.5 385 L 194.5 381 L 188 381 L 187 378.5 L 188 375.5 L 187 374.5 L 187 311.5 L 188 310.5 L 188 282.5 L 187 281.5 L 187 241.5 L 188 239.5 Q 185.5 238 187 232.5 L 184.5 230 L 179 231 L 179 382.5 L 177.5 384 L 169.5 384 Q 167.7 380.8 162.5 381 L 151.5 385 L 138 380 L 138 265.5 L 135.5 265 L 133.5 265 L 131 266.5 L 130 268.5 L 130 379.5 L 131 382 L 124.5 383 L 123 381.5 L 123 142 Z M 211 151 L 209 152 L 206 156 L 207 158 L 207 361 Q 209 364 214 362 L 215 359 L 215 156 L 211 151 Z M 156 161 L 153 164 L 153 187 L 153 189 L 153 217 L 152 218 L 153 220 L 153 250 L 153 252 L 153 280 L 152 281 L 153 283 L 153 312 L 153 314 L 153 357 L 152 358 L 153 360 L 156 361 Q 159 361 160 359 L 160 164 L 159 163 Q 160 159 156 161 Z " /><path fill="rgb(0,0,0)" stroke="rgb(0,0,0)" stroke-width="1" opacity="0" d="M 293.5 142 L 295 142 L 295 144 Q 297.7 142.9 297 145.5 L 299.5 148 L 307.5 149 L 314 147 L 316.5 143 L 318.5 143 L 335.5 144 Q 336.7 141.7 341.5 143 L 344 144 Q 342.9 146.7 345.5 146 Q 348.1 149.9 355.5 149 L 362 146 L 363 142 L 374.5 143 L 377 142 L 377 381.5 L 375.5 384 L 370 381.5 L 370 268.5 L 367.5 265 Q 363 264 362 266.5 L 362 379.5 L 360.5 380 L 346.5 385 L 339.5 382 L 334.5 382 L 328.5 385 L 322.5 385 L 321 383.5 L 321 231 L 315.5 230 L 313 233.5 L 313 378.5 L 311.5 380 L 308.5 380 L 299.5 384 L 288.5 384 L 281.5 380 Q 276.1 384 267 383 L 267 144.5 L 268.5 143 L 278.5 145 L 285.5 145 L 293.5 142 Z M 290 152 L 288 153 L 285 157 L 286 159 L 286 173 L 285 174 Q 284 179 286 181 L 285 184 L 286 189 L 286 205 L 285 206 Q 284 210 286 212 Q 288 218 285 220 L 286 222 L 286 231 L 285 232 L 286 249 L 286 251 L 286 271 L 285 272 L 286 281 L 286 283 Q 288 289 285 291 L 285 359 L 286 361 L 289 362 L 292 361 L 293 361 L 293 153 L 290 152 Z M 344 161 L 341 162 L 340 165 L 340 359 Q 341 362 346 361 L 347 360 L 347 221 L 348 220 L 347 218 L 347 189 L 348 188 L 347 186 L 347 176 L 348 175 Q 349 167 347 162 L 344 161 Z " /></svg>