<?xml version="1.0" standalone="no"?>
<!DOCTYPE svg PUBLIC "-//W3C//DTD SVG 20010904//EN"
 "http://www.w3.org/TR/2001/REC-SVG-20010904/DTD/svg10.dtd">
<svg version="1.0" xmlns="http://www.w3.org/2000/svg"
 width="1024.000000pt" height="1024.000000pt" viewBox="0 0 1024.000000 1024.000000"
 preserveAspectRatio="xMidYMid meet">

<g transform="translate(0.000000,1024.000000) scale(0.100000,-0.100000)"
fill="#000000" stroke="none">
<path d="M3172 6344 c-29 -14 -68 -44 -87 -67 -66 -76 -65 -69 -65 -794 0
-620 1 -655 19 -703 30 -79 66 -119 140 -154 l66 -31 1870 1 c1373 1 1881 4
1911 13 65 18 128 73 161 138 l28 58 3 659 c3 770 6 736 -86 826 -36 35 -72
60 -98 68 -32 9 -469 12 -1926 12 l-1884 0 -52 -26z m3834 -120 c18 -9 43 -31
54 -49 19 -31 20 -48 20 -554 l0 -522 -152 3 -153 3 -3 47 c-6 85 154 78
-1657 78 -885 0 -1615 -4 -1622 -8 -16 -10 -33 -57 -33 -93 l0 -29 -150 0
-150 0 0 523 c0 492 1 524 19 553 10 16 34 38 52 47 31 15 179 17 1887 17
1682 0 1857 -1 1888 -16z m-366 -1214 l0 -80 -1520 0 -1520 0 0 80 0 80 1520
0 1520 0 0 -80z m-3180 -160 l0 -120 -95 0 c-162 0 -205 35 -205 168 l0 72
150 0 150 0 0 -120z m3620 48 c0 -55 -5 -81 -20 -105 -32 -52 -66 -64 -180
-61 l-100 3 -4 112 c-2 61 -2 114 2 117 3 3 72 6 154 6 l148 0 0 -72z m-440
-133 l0 -35 -1520 0 -1520 0 0 35 0 35 1520 0 1520 0 0 -35z"/>
<path d="M3448 6073 l-68 -4 0 -64 0 -65 230 0 230 0 0 65 0 65 -67 0 c-38 0
-111 2 -163 4 -52 2 -125 2 -162 -1z"/>
<path d="M6390 5470 l0 -71 68 3 67 3 3 68 3 67 -71 0 -70 0 0 -70z"/>
<path d="M6720 5470 l0 -70 65 0 65 0 0 70 0 70 -65 0 -65 0 0 -70z"/>
<path d="M4427 4360 c-40 -31 -78 -114 -84 -180 -7 -76 15 -141 78 -227 79
-108 84 -166 20 -239 -53 -60 -34 -134 35 -134 53 0 130 109 141 199 9 75 -12
140 -73 228 -82 117 -89 166 -34 242 22 32 27 93 7 109 -27 23 -62 24 -90 2z"/>
<path d="M5057 4360 c-45 -36 -81 -124 -81 -199 0 -78 21 -130 89 -225 68 -95
72 -154 16 -218 -36 -42 -45 -71 -30 -100 28 -54 74 -52 124 3 102 114 101
264 -4 398 -71 90 -81 161 -31 227 36 48 38 77 5 109 -29 30 -54 31 -88 5z"/>
<path d="M5698 4365 c-16 -9 -39 -40 -58 -79 -27 -53 -32 -77 -32 -130 1 -77
21 -127 87 -220 69 -97 72 -154 13 -222 -36 -41 -41 -83 -13 -114 30 -33 68
-26 110 21 54 60 75 112 75 189 0 76 -25 138 -91 225 -59 78 -64 135 -20 206
35 57 39 89 14 111 -28 24 -56 28 -85 13z"/>
</g>
</svg>
