<?xml version="1.0" standalone="no"?>
<!DOCTYPE svg PUBLIC "-//W3C//DTD SVG 20010904//EN"
 "http://www.w3.org/TR/2001/REC-SVG-20010904/DTD/svg10.dtd">
<svg version="1.0" xmlns="http://www.w3.org/2000/svg"
 width="1024.000000pt" height="1024.000000pt" viewBox="0 0 1024.000000 1024.000000"
 preserveAspectRatio="xMidYMid meet">

<g transform="translate(0.000000,1024.000000) scale(0.100000,-0.100000)"
fill="#000000" stroke="none">
<path d="M2596 7098 c-13 -18 -16 -57 -16 -214 0 -179 1 -192 20 -209 26 -23
74 -24 99 -1 15 14 21 34 23 80 l3 61 246 3 247 2 -1 -442 c-2 -555 18 -915
74 -1316 16 -117 18 -156 9 -167 -6 -7 -20 -67 -30 -132 -19 -117 -19 -118 0
-145 25 -35 25 -35 -10 -213 -55 -283 -81 -686 -62 -979 9 -121 15 -162 27
-176 9 -10 53 -28 98 -40 69 -19 100 -22 202 -18 84 3 133 10 163 23 38 15 49
16 85 5 115 -34 299 -17 341 33 17 20 18 33 12 131 -19 317 -87 638 -192 902
-38 94 -43 115 -34 138 21 55 42 169 37 200 -4 30 -1 33 111 106 366 238 637
637 788 1163 73 253 134 648 134 865 l0 63 148 -3 147 -3 7 -130 c20 -353 102
-742 221 -1052 158 -408 425 -740 758 -944 54 -33 56 -35 52 -70 -3 -20 5 -75
20 -131 l26 -96 -40 -99 c-105 -255 -174 -581 -194 -909 -7 -104 -6 -113 13
-132 46 -46 198 -64 314 -38 74 17 77 16 139 -5 141 -47 416 -13 448 57 17 39
25 446 12 644 -13 193 -40 398 -75 561 -21 103 -21 108 -4 129 11 13 18 39 18
64 0 47 -25 189 -40 226 -8 19 -5 62 9 160 54 366 76 752 75 1303 l-1 467 249
0 248 0 0 -59 c0 -65 17 -96 60 -106 18 -4 34 0 53 15 l27 21 0 199 c0 194 -1
199 -22 214 -31 22 -75 20 -96 -4 -10 -12 -19 -44 -22 -78 l-5 -57 -2395 0
-2395 0 -5 63 c-6 72 -22 92 -76 92 -23 0 -38 -7 -48 -22z m2230 -395 c-15
-254 -69 -567 -137 -799 -152 -520 -439 -908 -840 -1133 -51 -28 -89 -33 -89
-11 0 4 33 34 73 66 344 278 581 678 681 1152 14 67 26 138 26 157 0 67 -65
97 -113 53 -20 -19 -29 -49 -51 -162 -90 -464 -316 -841 -669 -1120 -54 -43
-100 -76 -102 -74 -1 1 32 56 75 121 218 328 365 737 435 1207 22 149 45 365
45 432 0 50 -3 59 -27 78 -19 15 -35 19 -53 15 -51 -13 -58 -30 -70 -185 -44
-563 -192 -1066 -421 -1432 -64 -102 -120 -180 -126 -175 -18 18 -67 462 -89
802 -16 258 -22 936 -9 1059 l7 66 731 0 730 0 -7 -117z m2048 65 c9 -83 7
-804 -4 -998 -20 -345 -63 -783 -87 -863 -4 -15 -19 1 -69 68 -265 360 -444
939 -489 1580 -8 105 -19 125 -76 125 -62 0 -73 -27 -65 -158 38 -594 223
-1203 480 -1581 42 -61 74 -111 71 -111 -8 0 -130 95 -199 154 -86 74 -209
217 -281 326 -151 227 -249 481 -299 775 -18 101 -35 125 -92 125 -25 0 -38
-7 -50 -25 -20 -30 -17 -60 22 -234 104 -469 345 -871 682 -1135 34 -27 62
-52 62 -56 0 -63 -264 104 -435 275 -201 201 -337 424 -457 749 -86 234 -178
743 -178 989 l0 47 729 0 728 0 7 -52z m-3264 -2106 c173 -78 175 -79 172
-108 -2 -16 -7 -33 -11 -37 -4 -4 -86 27 -182 70 l-174 78 -3 38 c-2 25 1 37
10 37 7 0 92 -35 188 -78z m3216 53 c3 -14 4 -31 1 -38 -4 -11 -306 -149 -346
-159 -18 -4 -34 59 -17 70 22 14 331 150 343 151 7 1 15 -10 19 -24z m9 -316
c47 -223 80 -652 69 -896 l-6 -152 -56 -12 c-58 -12 -189 -8 -211 6 -38 23 76
822 160 1119 14 50 23 37 44 -65z m-3356 -76 c22 -93 50 -220 61 -284 39 -234
89 -683 77 -696 -19 -19 -223 -14 -256 6 -35 22 -34 472 3 786 17 144 57 355
67 355 4 0 25 -75 48 -167z m211 64 l65 -32 38 -95 c95 -235 186 -651 187
-851 l0 -57 -43 -6 c-43 -7 -123 6 -157 24 -13 7 -18 29 -24 104 -18 261 -100
761 -152 929 -8 24 10 21 86 -16z m2937 11 c-62 -277 -117 -625 -138 -880
l-13 -147 -42 -10 c-24 -6 -72 -11 -108 -11 l-66 0 0 43 c0 65 27 280 50 401
28 144 78 316 132 451 l44 110 65 32 c78 38 83 39 76 11z"/>
<path d="M3648 6413 c-33 -9 -45 -46 -52 -163 -10 -165 -44 -494 -70 -683 -20
-141 -22 -165 -9 -189 24 -50 101 -47 123 4 20 47 110 840 110 967 0 41 -56
77 -102 64z"/>
<path d="M6514 6395 c-24 -24 -25 -29 -19 -108 23 -311 35 -421 86 -812 13
-96 36 -135 79 -135 60 0 84 42 70 127 -37 220 -90 712 -90 824 0 69 -13 103
-47 118 -36 16 -51 14 -79 -14z"/>
<path d="M2881 6574 l-21 -27 0 -1648 c0 -1204 3 -1655 11 -1673 23 -51 103
-55 128 -7 8 14 11 527 11 1674 l0 1654 -21 27 c-15 19 -30 26 -54 26 -24 0
-39 -7 -54 -26z"/>
<path d="M7255 6575 l-25 -24 0 -1661 0 -1661 26 -26 c20 -20 31 -24 57 -19
67 14 62 -131 65 1684 1 906 0 1657 -3 1670 -15 60 -78 80 -120 37z"/>
<path d="M4030 3030 c-30 -30 -27 -83 6 -109 25 -19 40 -21 189 -21 149 0 164
2 189 21 32 25 34 66 5 103 l-20 26 -175 0 c-161 0 -176 -2 -194 -20z"/>
<path d="M5821 3024 c-34 -43 -24 -86 26 -112 14 -8 78 -12 176 -12 141 0 157
2 181 21 33 26 36 79 6 109 -18 18 -33 20 -194 20 l-175 0 -20 -26z"/>
</g>
</svg>
