<svg width="500" height="500" version="1.1" xmlns="http://www.w3.org/2000/svg" desc="Created with imagetracer.js version 1.2.6" ><path fill="rgb(96,104,105)" stroke="rgb(96,104,105)" stroke-width="1" opacity="0.7490196078431373" d="M 93.5 112 Q 102.7 111.8 106 117.5 L 107.5 120 L 110.5 121 L 112.5 121 Q 117.9 121.6 120 120 L 121 114 L 124.5 113 Q 129.3 114.6 128 121 L 137 121 L 137 116.5 L 141.5 114 L 144 115 L 144 120.5 L 144.5 121 L 197 121 Q 195.8 115.5 199.5 114 L 205 116.5 Q 204.5 121 205.5 121 L 294 121 Q 293.9 116.1 297.5 114 Q 302.9 112.1 302 115.5 L 304 121 L 355.5 121 L 356 120.5 L 356 115 L 357.5 115 L 360.5 114 Q 364.3 115.5 363 121 L 372 121 L 372 116.5 L 373 114 L 376.5 113 L 379 114 L 380 120 Q 383.3 122.1 391.5 121 L 396.5 115 Q 399.5 112 405.5 112 L 410.5 113 L 416 117.5 L 419 125.5 Q 417.8 133.3 412.5 137 Q 409.2 140.2 401.5 139 L 395 134.5 L 392.5 131 L 379 131 Q 377.9 133.7 380.5 133 L 384 134 L 385 136.5 L 385 272.5 Q 387.5 274 386 279.5 L 385 280.5 L 385 374.5 L 385 376.5 Q 383.5 384 386 387.5 L 383.5 390 L 375.5 392 L 375 390 L 366.5 389 L 357.5 392 L 350 389 L 348 385.5 L 348 381 Q 332.4 383 326 374.5 L 325 366.5 L 326 363.5 L 325 361.5 L 328 352.5 L 330 337.5 L 332 334.5 L 332 329.5 L 334 326.5 L 335 319.5 L 341 304.5 L 343 295.5 L 342 294.5 L 342 285.5 L 340.5 284 Q 327 277 317 266.5 Q 317.8 264.3 315.5 265 L 299 244.5 L 294 236.5 L 289 221.5 L 287 219.5 L 287 215.5 L 283 205.5 L 283 200.5 L 279 187.5 L 278 171.5 L 276 165.5 Q 277.5 158 275 154.5 L 275 152.5 L 274 134.5 Q 274.8 132.3 278.5 133 L 282.5 135 L 285.5 134 Q 287 136.5 292.5 135 L 295 134 L 294.5 131 L 281.5 131 L 280.5 132 L 250.5 132 L 249.5 131 L 209.5 131 L 205 132.5 Q 206.8 136.8 208.5 134 L 223.5 134 L 226 136.5 L 226 145.5 L 224 155.5 L 224 157.5 Q 225.1 167.1 222 172.5 L 222 174.5 Q 223.8 180.8 221 182.5 L 221 184.5 L 217 205.5 L 215 208.5 L 215 212.5 L 209 226.5 L 209 229.5 L 195 253.5 L 184.5 265 L 183 265 L 183 267 Q 180.3 265.9 181 268.5 Q 171.3 278.1 159 284 Q 160.2 292.3 156 296.5 L 159 300.5 L 159 303.5 L 166 322.5 L 168 334.5 L 170 337.5 L 170 342.5 L 174 356.5 L 175 371.5 L 171.5 377 Q 166.1 381.6 156.5 382 L 152 381 L 152 385.5 L 150 389 L 143.5 392 L 139.5 392 L 131.5 389 L 122.5 392 L 115 388.5 L 115 136.5 L 116 134 L 121 134 L 121 131 L 107.5 131 L 105 134.5 Q 101.9 140.4 91.5 139 L 84 133.5 L 81 125.5 L 84 117.5 L 86.5 115 L 93.5 112 Z M 94 120 Q 89 121 90 129 L 94 131 Q 99 132 100 129 L 99 121 L 94 120 Z M 404 120 L 401 121 Q 399 123 400 129 Q 401 132 408 131 Q 412 129 410 122 L 407 120 L 404 120 Z M 133 131 L 130 133 Q 132 136 137 134 Q 139 129 133 131 Z M 146 131 Q 143 132 144 139 L 148 141 L 156 134 L 167 136 L 176 136 L 176 134 L 182 135 L 186 134 L 189 136 L 191 140 L 195 141 L 197 140 L 196 133 L 197 131 Q 191 130 190 132 L 187 131 L 146 131 Z M 303 131 L 303 140 L 305 141 Q 308 142 309 140 Q 308 137 311 138 L 314 133 Q 317 135 324 134 L 329 136 L 335 134 Q 343 132 347 136 L 351 141 L 356 141 L 356 131 L 345 131 L 344 132 L 341 131 L 316 131 L 315 132 L 303 131 Z M 363 131 L 363 134 L 367 135 L 372 134 L 372 131 L 363 131 Z M 123 142 L 123 271 Q 124 273 126 271 L 129 272 L 139 250 L 147 222 L 146 219 L 149 212 L 149 200 L 153 180 L 153 165 L 154 163 Q 155 160 159 161 L 160 164 L 160 182 L 158 193 L 159 198 L 157 202 Q 159 207 156 209 L 157 212 L 154 220 L 152 234 L 148 244 L 148 248 Q 144 249 147 251 L 140 265 L 140 270 L 135 277 L 141 276 Q 143 277 142 274 L 148 270 Q 150 271 149 268 L 151 268 L 151 266 L 153 266 L 155 262 Q 154 259 157 260 L 164 251 Q 163 247 166 248 L 166 246 L 175 229 L 182 205 L 181 203 L 184 194 L 184 184 L 185 183 L 184 179 L 186 167 Q 191 165 193 169 L 193 183 L 190 199 L 191 201 L 187 212 L 187 217 L 185 224 L 183 227 Q 185 232 181 231 Q 179 241 174 249 Q 175 251 172 250 Q 170 259 162 266 Q 163 268 160 267 L 156 273 L 158 276 Q 161 277 160 274 L 167 270 Q 169 271 168 268 Q 174 266 177 262 Q 176 259 179 260 L 188 250 Q 187 247 190 248 L 201 229 L 204 218 L 207 213 L 208 204 L 210 200 L 214 182 L 216 162 L 217 161 L 216 156 Q 218 154 217 150 L 217 148 L 218 145 L 216 143 Q 211 142 210 144 L 208 143 L 201 148 L 197 149 L 193 148 L 188 148 L 186 144 L 184 144 L 184 142 Q 178 141 175 144 L 167 144 L 159 142 L 157 146 L 150 149 Q 142 150 140 146 Q 137 147 138 144 L 135 143 Q 129 142 128 144 L 125 144 Q 126 141 123 142 Z M 293 142 L 292 143 L 284 143 L 282 145 L 285 175 L 291 205 L 297 223 L 306 240 Q 305 243 308 242 L 310 247 Q 309 249 312 248 L 323 261 Q 325 260 324 263 L 326 263 L 326 265 L 331 268 Q 333 267 332 270 L 340 274 L 343 274 L 344 278 L 350 281 L 351 281 L 347 275 Q 344 276 345 274 Q 344 271 343 273 L 322 242 L 315 223 L 315 220 L 313 218 L 313 214 L 313 212 L 311 208 Q 312 200 309 197 L 309 189 L 306 176 L 306 168 Q 309 169 308 166 L 313 166 L 316 184 L 316 193 L 322 218 L 322 220 L 334 248 L 347 265 Q 346 267 349 266 L 349 268 L 351 268 L 351 270 L 353 270 L 353 272 L 355 272 L 355 274 L 357 274 L 357 276 L 361 278 L 365 277 L 357 261 L 356 255 L 354 253 L 352 244 L 349 238 Q 349 227 345 220 L 345 214 L 341 193 L 340 164 L 346 161 L 347 163 Q 346 168 348 170 L 347 174 L 348 185 L 349 186 L 349 199 Q 352 203 351 212 L 354 219 L 355 230 L 359 240 L 359 244 L 362 250 L 362 253 L 373 273 L 376 271 L 377 271 L 377 142 L 375 143 L 363 142 L 362 146 L 356 149 Q 348 150 346 146 Q 343 147 344 144 Q 341 145 340 142 L 334 144 L 326 144 L 325 143 L 322 144 L 317 142 L 314 147 L 308 149 L 300 148 L 295 144 Q 296 141 293 142 Z M 125 280 L 123 283 L 136 289 L 150 292 L 151 288 Q 137 287 128 282 L 126 282 L 125 280 Z M 376 280 L 375 283 L 377 283 L 376 280 Z M 369 283 L 363 286 L 365 289 L 372 285 Q 374 286 373 284 L 372 284 L 369 283 Z M 357 287 L 353 290 L 358 290 L 360 290 L 362 289 L 357 287 Z M 125 292 L 123 294 L 125 298 L 125 312 L 123 314 L 123 381 L 126 383 L 131 380 L 135 380 L 140 384 L 145 383 L 145 370 L 144 369 L 142 351 L 143 348 L 141 341 L 141 328 L 139 322 L 139 310 L 137 297 L 135 296 L 134 334 L 133 335 Q 127 336 125 334 L 126 330 L 126 294 L 125 292 Z M 375 292 L 374 333 L 373 335 L 368 334 L 366 334 L 366 301 L 364 299 L 362 301 L 361 321 L 359 327 L 359 341 L 357 351 L 358 353 L 357 365 L 355 372 L 355 382 L 358 384 Q 364 384 366 380 Q 372 379 374 383 L 377 381 L 377 326 L 376 324 L 377 321 L 375 315 L 377 312 L 377 293 L 375 292 Z M 145 299 L 146 305 L 147 317 L 147 319 L 153 373 L 156 373 Q 164 375 167 371 L 166 355 Q 163 352 164 345 L 162 342 L 162 337 L 160 334 L 160 330 L 158 327 L 156 317 L 154 314 L 153 307 L 150 301 Q 151 298 145 299 Z M 351 299 Q 352 302 349 301 L 349 305 L 347 307 L 344 321 L 340 331 L 338 343 L 336 346 L 335 355 L 335 357 L 333 366 L 334 371 L 337 373 L 347 373 L 348 372 L 348 364 L 350 356 L 350 342 L 352 336 L 352 323 L 354 317 L 353 313 L 355 303 L 354 301 Q 355 298 351 299 Z " /><path fill="rgb(0,0,0)" stroke="rgb(0,0,0)" stroke-width="1" opacity="0" d="M 0 0 L 500 0 L 500 500 L 0 500 L 0 0 Z M 94 112 L 87 115 L 84 118 L 81 126 L 84 134 L 92 139 Q 102 140 105 135 L 108 131 L 121 131 L 121 134 L 116 134 L 115 137 L 115 389 L 123 392 L 132 389 L 140 392 L 144 392 L 150 389 L 152 386 L 152 381 L 157 382 Q 166 382 172 377 L 175 372 L 174 357 L 170 343 L 170 338 L 168 335 L 166 323 L 159 304 L 159 301 L 156 297 Q 160 292 159 284 Q 171 278 181 269 Q 180 266 183 267 L 183 265 L 185 265 L 195 254 L 209 230 L 209 227 L 215 213 L 215 209 L 217 206 L 221 185 L 221 183 Q 224 181 222 175 L 222 173 Q 225 167 224 158 L 224 156 L 226 146 L 226 137 L 224 134 L 209 134 Q 207 137 205 133 L 210 131 L 250 131 L 251 132 L 281 132 L 282 131 L 295 131 L 295 134 L 293 135 Q 287 137 286 134 L 283 135 L 279 133 Q 275 132 274 135 L 275 153 L 275 155 Q 278 158 276 166 L 278 172 L 279 188 L 283 201 L 283 206 L 287 216 L 287 220 L 289 222 L 294 237 L 299 245 L 316 265 Q 318 264 317 267 Q 327 277 341 284 L 342 286 L 342 295 L 343 296 L 341 305 L 335 320 L 334 327 L 332 330 L 332 335 L 330 338 L 328 353 L 325 362 L 326 364 L 325 367 L 326 375 Q 332 383 348 381 L 348 386 L 350 389 L 358 392 L 367 389 L 375 390 L 376 392 L 384 390 L 386 388 Q 384 384 385 377 L 385 375 L 385 281 L 386 280 Q 388 274 385 273 L 385 137 L 384 134 L 381 133 Q 378 134 379 131 L 393 131 L 395 135 L 402 139 Q 409 140 413 137 Q 418 133 419 126 L 416 118 L 411 113 L 406 112 Q 399 112 397 115 L 392 121 Q 383 122 380 120 L 379 114 L 377 113 L 373 114 L 372 117 L 372 121 L 363 121 Q 364 116 361 114 L 358 115 L 356 115 L 356 121 L 356 121 L 304 121 L 302 116 Q 303 112 298 114 Q 294 116 294 121 L 206 121 Q 204 121 205 117 L 200 114 Q 196 116 197 121 L 145 121 L 144 121 L 144 115 L 142 114 L 137 117 L 137 121 L 128 121 Q 129 115 125 113 L 121 114 L 120 120 Q 118 122 113 121 L 111 121 L 108 120 L 106 118 Q 103 112 94 112 Z " /><path fill="rgb(0,0,0)" stroke="rgb(0,0,0)" stroke-width="1" opacity="0" d="M 93.5 120 L 99 121 L 100 128.5 Q 99 132 93.5 131 L 90 128.5 Q 88.8 121.3 93.5 120 Z " /><path fill="rgb(0,0,0)" stroke="rgb(0,0,0)" stroke-width="1" opacity="0" d="M 403.5 120 L 406.5 120 L 410 122 Q 411.7 129.1 407.5 131 Q 401.3 132.3 400 128.5 Q 399.4 123.1 401 121 L 403.5 120 Z " /><path fill="rgb(0,0,0)" stroke="rgb(0,0,0)" stroke-width="1" opacity="0" d="M 132.5 131 Q 138.8 129.1 137 134 Q 131.6 135.5 130 132.5 L 132.5 131 Z " /><path fill="rgb(0,0,0)" stroke="rgb(0,0,0)" stroke-width="1" opacity="0" d="M 145.5 131 L 186.5 131 L 189.5 132 Q 191 129.5 196.5 131 L 196 132.5 L 197 139.5 L 194.5 141 L 191 140 L 188.5 136 L 185.5 134 L 181.5 135 L 176 134 L 175.5 136 L 166.5 136 L 155.5 134 L 147.5 141 L 144 138.5 Q 142.5 132.5 145.5 131 Z " /><path fill="rgb(0,0,0)" stroke="rgb(0,0,0)" stroke-width="1" opacity="0" d="M 303 131 L 314.5 132 L 315.5 131 L 340.5 131 L 343.5 132 L 344.5 131 L 356 131 L 356 141 L 350.5 141 L 346.5 136 Q 343.3 132.2 334.5 134 L 328.5 136 L 323.5 134 Q 316.7 135.3 313.5 133 L 311 138 Q 308.3 136.9 309 139.5 Q 308.3 141.8 304.5 141 L 303 139.5 L 303 131 Z " /><path fill="rgb(0,0,0)" stroke="rgb(0,0,0)" stroke-width="1" opacity="0" d="M 363 131 L 372 131 L 372 134 L 366.5 135 L 363 134 L 363 131 Z " /><path fill="rgb(0,0,0)" stroke="rgb(0,0,0)" stroke-width="1" opacity="0" d="M 123 142 Q 126 141 125 144 L 127.5 144 Q 129 141.5 134.5 143 L 138 144 Q 136.9 146.7 139.5 146 Q 141.7 150.3 149.5 149 L 157 146 L 158.5 142 L 166.5 144 L 174.5 144 Q 177.8 141 184 142 L 184 144 L 186 144 L 188 148 L 192.5 148 L 196.5 149 L 200.5 148 L 207.5 143 L 209.5 144 Q 210.8 141.7 215.5 143 L 218 144.5 L 217 147.5 L 217 149.5 Q 218.3 154.2 216 155.5 L 217 160.5 L 216 161.5 L 214 181.5 L 210 199.5 L 208 203.5 L 207 212.5 L 204 217.5 L 201 228.5 L 190 248 Q 187.3 246.9 188 249.5 L 178.5 260 Q 176.3 259.3 177 261.5 Q 173.6 266.5 168 268 Q 169.1 270.7 166.5 270 L 160 274 Q 161.3 277 157.5 276 L 156 272.5 L 160 267 Q 162.7 268.1 162 265.5 Q 169.5 259.5 172 250 Q 174.7 251.1 174 248.5 Q 179.4 241.2 181 231 Q 184.7 232.3 183 226.5 L 185 223.5 L 187 216.5 L 187 211.5 L 191 200.5 L 190 198.5 L 193 182.5 L 193 168.5 Q 191.4 165.5 186 167 L 184 178.5 L 185 182.5 L 184 183.5 L 184 193.5 L 181 202.5 L 182 204.5 L 175 228.5 L 166 245.5 L 166 248 Q 163 246.8 164 250.5 L 156.5 260 Q 154.3 259.3 155 261.5 L 153 266 L 151 266 L 151 268 L 149 268 Q 150.1 270.7 147.5 270 L 142 274 Q 143.1 276.7 140.5 276 L 135 277 L 140 269.5 L 140 264.5 L 147 250.5 Q 144.5 249 148 247.5 L 148 243.5 L 152 233.5 L 154 219.5 L 157 211.5 L 156 208.5 Q 158.5 207 157 201.5 L 159 197.5 L 158 192.5 L 160 181.5 L 160 163.5 L 159 161 Q 155.2 160 154 162.5 L 153 164.5 L 153 179.5 L 149 199.5 L 149 211.5 L 146 218.5 L 147 221.5 L 139 249.5 L 129 272 L 125.5 271 Q 124.3 273.3 123 270.5 L 123 142 Z " /><path fill="rgb(0,0,0)" stroke="rgb(0,0,0)" stroke-width="1" opacity="0" d="M 292.5 142 Q 295.8 140.9 295 143.5 L 299.5 148 L 307.5 149 L 314 147 L 316.5 142 L 321.5 144 L 324.5 143 L 325.5 144 L 333.5 144 L 339.5 142 Q 340.6 144.8 344 144 Q 342.9 146.7 345.5 146 Q 348.1 149.9 355.5 149 L 362 145.5 L 363 142 L 374.5 143 L 377 142 L 377 270.5 L 375.5 271 L 372.5 273 L 362 252.5 L 362 249.5 L 359 243.5 L 359 239.5 L 355 229.5 L 354 218.5 L 351 211.5 Q 352.1 202.9 349 198.5 L 349 185.5 L 348 184.5 L 347 173.5 L 348 169.5 Q 345.5 168 347 162.5 L 345.5 161 L 340 163.5 L 341 192.5 L 345 213.5 L 345 219.5 Q 348.6 226.8 349 237.5 L 352 243.5 L 354 252.5 L 356 254.5 L 357 260.5 L 365 276.5 L 360.5 278 L 357 276 L 357 274 L 355 274 L 355 272 L 353 272 L 353 270 L 351 270 L 351 268 L 349 268 L 349 266 Q 346.3 267.1 347 264.5 L 334 247.5 L 322 219.5 L 322 217.5 L 316 192.5 L 316 183.5 L 313 166 L 308 166 Q 309 169 306 168 L 306 175.5 L 309 188.5 L 309 196.5 Q 311.9 200.1 311 207.5 L 313 211.5 L 313 213.5 L 313 217.5 L 315 219.5 L 315 222.5 L 322 241.5 L 342.5 273 Q 343.8 270.7 345 273.5 Q 344.3 275.8 346.5 275 L 351 280.5 L 349.5 281 L 344 278 L 343 274 L 339.5 274 L 332 270 Q 333.1 267.3 330.5 268 L 326 265 L 326 263 L 324 263 Q 325.1 260.3 322.5 261 L 312 248 Q 309.3 249.1 310 246.5 L 308 242 Q 305 243.3 306 239.5 L 297 222.5 L 291 204.5 L 285 174.5 L 282 144.5 L 283.5 143 L 291.5 143 L 292.5 142 Z " /><path fill="rgb(0,0,0)" stroke="rgb(0,0,0)" stroke-width="1" opacity="0" d="M 124.5 280 L 125.5 282 L 127.5 282 Q 137.3 287.4 151 288 L 149.5 292 L 135.5 289 L 123 282.5 L 124.5 280 Z " /><path fill="rgb(0,0,0)" stroke="rgb(0,0,0)" stroke-width="1" opacity="0" d="M 375.5 280 L 377 282.5 L 375 283 L 375.5 280 Z " /><path fill="rgb(0,0,0)" stroke="rgb(0,0,0)" stroke-width="1" opacity="0" d="M 368.5 283 L 371.5 284 L 373 283.5 Q 373.8 285.8 371.5 285 L 364.5 289 L 363 285.5 L 368.5 283 Z " /><path fill="rgb(0,0,0)" stroke="rgb(0,0,0)" stroke-width="1" opacity="0" d="M 356.5 287 L 362 288.5 L 359.5 290 L 357.5 290 L 353 289.5 L 356.5 287 Z " /><path fill="rgb(0,0,0)" stroke="rgb(0,0,0)" stroke-width="1" opacity="0" d="M 124.5 292 L 126 293.5 L 126 329.5 L 125 334 Q 127.1 335.6 132.5 335 L 134 333.5 L 134.5 296 L 137 297 L 139 309.5 L 139 321.5 L 141 327.5 L 141 340.5 L 143 347.5 L 142 350.5 L 144 368.5 L 145 369.5 L 145 383 L 139.5 384 L 134.5 380 L 130.5 380 L 125.5 383 L 123 380.5 L 123 313.5 L 125 311.5 L 125 297.5 L 123 293.5 L 124.5 292 Z " /><path fill="rgb(0,0,0)" stroke="rgb(0,0,0)" stroke-width="1" opacity="0" d="M 375 292 L 377 292.5 L 377 311.5 L 375 314.5 L 377 320.5 L 376 323.5 L 377 325.5 L 377 380.5 L 373.5 383 Q 372.3 378.8 365.5 380 Q 363.5 384 357.5 384 L 355 381.5 L 355 371.5 L 357 364.5 L 358 352.5 L 357 350.5 L 359 340.5 L 359 326.5 L 361 320.5 L 362 300.5 L 363.5 299 L 366 300.5 L 366 333.5 L 367.5 334 L 373 335 L 374 332.5 L 375 292 Z " /><path fill="rgb(0,0,0)" stroke="rgb(0,0,0)" stroke-width="1" opacity="0" d="M 144.5 299 Q 150.6 297.8 150 300.5 L 153 306.5 L 154 313.5 L 156 316.5 L 158 326.5 L 160 329.5 L 160 333.5 L 162 336.5 L 162 341.5 L 164 344.5 Q 163 351.5 166 354.5 L 167 370.5 Q 164.2 374.7 155.5 373 L 153 372.5 L 147 318.5 L 147 316.5 L 146 304.5 L 144.5 299 Z " /><path fill="rgb(0,0,0)" stroke="rgb(0,0,0)" stroke-width="1" opacity="0" d="M 351 299 Q 354.8 297.5 354 300.5 L 355 302.5 L 353 312.5 L 354 316.5 L 352 322.5 L 352 335.5 L 350 341.5 L 350 355.5 L 348 363.5 L 348 371.5 L 346.5 373 L 336.5 373 L 334 370.5 L 333 365.5 L 335 356.5 L 335 354.5 L 336 345.5 L 338 342.5 L 340 330.5 L 344 320.5 L 347 306.5 L 349 304.5 L 349 301 Q 352 302 351 299 Z " /></svg>