<?xml version="1.0" standalone="no"?>
<!DOCTYPE svg PUBLIC "-//W3C//DTD SVG 20010904//EN"
 "http://www.w3.org/TR/2001/REC-SVG-20010904/DTD/svg10.dtd">
<svg version="1.0" xmlns="http://www.w3.org/2000/svg"
 width="1024.000000pt" height="1024.000000pt" viewBox="0 0 1024.000000 1024.000000"
 preserveAspectRatio="xMidYMid meet">

<g transform="translate(0.000000,1024.000000) scale(0.100000,-0.100000)"
fill="#000000" stroke="none">
<path d="M4895 7929 c-312 -40 -618 -162 -857 -342 -366 -274 -609 -663 -690
-1107 -17 -92 -22 -154 -22 -310 0 -173 3 -209 27 -321 34 -162 76 -285 146
-434 73 -153 138 -258 296 -475 188 -260 255 -373 330 -556 58 -144 85 -261
98 -436 l11 -158 892 0 891 0 6 153 c4 118 11 174 31 248 60 226 178 459 357
699 301 406 427 665 483 990 76 439 -21 889 -275 1275 -100 152 -319 372 -473
474 -244 162 -501 259 -783 296 -123 16 -355 18 -468 4z m475 -174 c419 -68
792 -286 1046 -611 286 -366 402 -887 293 -1312 -76 -294 -149 -436 -418 -812
-73 -102 -158 -227 -188 -278 -143 -242 -229 -487 -249 -705 l-7 -77 -188 0
-189 0 0 458 0 457 133 275 c74 151 189 389 257 528 132 273 144 311 120 398
-18 62 -86 135 -152 164 -43 19 -65 22 -128 18 -90 -6 -111 -16 -215 -107 -44
-39 -83 -71 -86 -71 -4 0 -40 31 -80 69 -91 84 -128 104 -194 104 -73 0 -118
-24 -204 -108 l-77 -74 -84 75 c-113 101 -151 118 -249 112 -89 -5 -141 -28
-193 -86 -50 -55 -72 -119 -65 -187 5 -45 40 -126 198 -448 106 -215 218 -448
251 -516 l58 -123 0 -469 0 -469 -184 0 -183 0 -6 83 c-11 157 -69 344 -172
552 -72 146 -143 260 -279 444 -228 307 -339 521 -400 771 -125 516 22 1062
390 1449 253 266 583 438 951 495 123 19 376 20 493 1z m423 -1696 c15 -16 27
-37 27 -47 0 -16 -67 -158 -381 -802 l-124 -255 -5 -495 -5 -495 -187 -3 -188
-2 0 487 0 488 -24 55 c-13 30 -126 264 -252 520 -160 327 -228 475 -228 499
0 48 41 81 98 81 41 0 50 -6 142 -91 55 -50 114 -97 133 -105 58 -26 86 -13
204 96 59 55 112 100 117 100 6 0 58 -45 116 -100 151 -144 170 -144 328 3 52
48 105 91 118 97 35 14 80 2 111 -31z"/>
<path d="M4310 3262 c0 -275 3 -336 16 -376 23 -68 99 -147 176 -182 l63 -29
550 0 c506 0 554 1 602 18 66 23 146 94 181 161 l27 51 3 343 3 342 -811 0
-810 0 0 -328z m1452 92 c2 -39 -1 -68 -7 -70 -5 -2 -64 -8 -130 -13 -66 -6
-336 -29 -600 -51 -264 -22 -495 -42 -512 -45 l-33 -6 0 126 0 125 639 0 639
0 4 -66z m-2 -323 c0 -94 -21 -134 -90 -168 -44 -23 -45 -23 -549 -23 -494 0
-506 0 -549 21 -49 24 -95 85 -90 121 2 19 10 23 43 26 44 3 903 77 1055 91
52 4 114 9 138 10 l42 1 0 -79z"/>
<path d="M4810 2450 c0 -48 25 -95 63 -118 32 -21 47 -22 246 -22 230 0 249 4
290 56 14 18 21 41 21 70 l0 44 -310 0 -310 0 0 -30z"/>
</g>
</svg>
